<svg width="496" height="119" viewBox="0 0 496 119" fill="none" xmlns="http://www.w3.org/2000/svg">
<path d="M134.78 92.47C113.88 92.47 94.03 79.41 94.03 53.6801C94.03 27.9501 117.02 14.11 136.35 14.11C161.3 14.11 177.1 27.1701 177.1 51.4601C177.1 78.2301 155.55 92.47 134.78 92.47ZM142.75 58.25C142.75 35.13 138.18 29.12 133.87 29.12C130.87 29.12 128.38 37.61 128.38 48.97C128.38 69.48 133.21 77.7 137.26 77.7C140.39 77.7 142.75 67.6401 142.75 58.2401V58.25Z" fill="#A2A5FF"/>
<path d="M272.38 37.42V81.42H294.62V89.86H262.76V37.42H272.38Z" fill="#A2A5FF"/>
<path d="M300.92 38.76C300.92 35.92 303.05 33.56 306.28 33.56C309.51 33.56 311.72 35.85 311.72 38.76C311.72 41.67 309.43 44.04 306.28 44.04C303.13 44.04 300.92 41.83 300.92 38.76ZM311.02 50.19V89.85H301.64V50.19H311.02Z" fill="#A2A5FF"/>
<path d="M320.79 87.6501V35.05H330.17V52.48C332.46 50.27 335.77 49.01 339.71 49.01C349.33 49.01 355.17 55.71 355.17 68.09C355.17 83.47 348.47 91.0401 336.48 91.0401C330.96 91.0401 324.1 89.5401 320.79 87.6501ZM345.87 69.3501C345.87 63.2001 344.37 55.87 337.04 55.87C333.41 55.87 330.18 58.31 330.18 61.78V82.76C331.76 83.55 334.28 84.26 336.88 84.26C342.16 84.26 345.87 80.24 345.87 69.36V69.3501Z" fill="#A2A5FF"/>
<path d="M362.67 50.19H370.4L371.35 55.87C373.08 51.45 376.95 49.01 380.89 49.01C383.26 49.01 385.7 49.56 387.2 50.51L385.54 58.32C383.96 57.53 381.99 56.9 379.94 56.9C375.68 56.9 372.92 60.29 372.76 64.86V89.86H363.38V56.5L362.67 50.19Z" fill="#A2A5FF"/>
<path d="M388.76 71.72C388.76 57.84 395.62 49.01 409.18 49.01C411.86 49.01 417.62 49.64 423.22 51.77V82.29L424.01 89.86H415.89L415.34 85.68L415.02 85.6C412.89 88.68 409.42 91.04 404.14 91.04C392.23 91.04 388.76 82.05 388.76 71.72ZM414 77.32V56.9C412.82 56.35 410.45 55.8 408.01 55.8C400.52 55.8 398 62.9 398 71.41C398 77.88 399.66 84.11 406.2 84.11C411.25 84.11 414.01 80.72 414.01 77.33L414 77.32Z" fill="#A2A5FF"/>
<path d="M432.61 50.19H440.34L441.29 55.87C443.02 51.45 446.89 49.01 450.83 49.01C453.2 49.01 455.64 49.56 457.14 50.51L455.48 58.32C453.9 57.53 451.93 56.9 449.88 56.9C445.62 56.9 442.86 60.29 442.7 64.86V89.86H433.32V56.5L432.61 50.19Z" fill="#A2A5FF"/>
<path d="M464.62 100.42C464.62 94.51 468.48 90.09 472.82 87.01C466.35 86.06 462.33 82.59 462.33 74.23V50.1801H471.71V73.2101C471.71 77.9401 472.18 81.4901 478.41 81.4901C482.19 81.4901 485.66 78.49 485.66 74V50.19H495.04V84.89C495.04 87.73 494.72 93.2501 494.17 95.8501C492.67 105.39 487.15 110.83 477.29 110.83C468.77 110.83 464.59 106.81 464.59 100.42H464.62ZM485.75 92.61V85.2C478.81 88.28 472.9 92.37 472.9 98.84C472.9 102.31 474.95 103.97 478.34 103.97C483.78 103.97 485.75 99.47 485.75 92.61Z" fill="#A2A5FF"/>
<path d="M48.84 39.44C47.73 39.44 46.83 40.35 46.83 41.47C46.83 42.59 47.73 43.5 48.84 43.5C49.95 43.5 50.85 42.59 50.85 41.47C50.85 40.35 49.95 39.44 48.84 39.44Z" fill="#A2A5FF"/>
<path d="M38.73 39.45C37.63 39.45 36.73 40.35 36.73 41.46C36.73 42.57 37.63 43.47 38.73 43.47C39.83 43.47 40.73 42.57 40.73 41.46C40.73 40.35 39.83 39.45 38.73 39.45Z" fill="#A2A5FF"/>
<path d="M33.04 3.05176e-05C17.63 3.05176e-05 0 4.70003 0 9.80003C2.22 13.72 3.39999 20.64 3.39999 29.13V64.65C3.39999 73.14 1.95999 85.03 1.95999 87.12C1.95999 88.69 2.61001 89.86 3.79001 89.86C6.01001 89.47 16.72 88.95 22.47 88.95C27.83 88.95 36.44 89.86 39.97 89.86C63.22 89.86 89.6 78.11 89.6 41.01C89.6 8.36002 58.52 3.05176e-05 33.05 3.05176e-05H33.04ZM68.11 43.02C66.67 45.59 64.44 46.3 62.66 46.5C63.08 48.18 63.35 49.98 63.35 52.21C63.35 55.25 62.65 57.86 61.28 59.98C60.07 61.84 58.34 63.34 56.12 64.41C52.66 66.09 48.61 66.51 45.42 66.6V56.44C47.39 55.51 49.31 53.18 49.31 51.33C49.31 48.2 45.85 48.2 43.79 48.2C41.73 48.2 38.27 48.2 38.27 51.33C38.27 53.19 40.19 55.51 42.16 56.44V66.6C38.97 66.51 34.92 66.09 31.46 64.41C29.24 63.33 27.51 61.84 26.3 59.98C24.93 57.86 24.23 55.24 24.23 52.21C24.23 49.98 24.49 48.18 24.92 46.5C23.14 46.31 20.92 45.59 19.47 43.02C18.25 40.84 18.72 37.9 20.89 34.27C22.48 31.61 24.71 29.08 26.22 27.75C29.54 24.83 32.31 24.9 33.67 25.21C34.22 25.33 34.72 25.53 35.17 25.8C37.51 24.09 40.36 23.25 43.79 23.25C47.22 23.25 50.07 24.09 52.41 25.8C52.86 25.54 53.36 25.34 53.91 25.21C55.27 24.9 58.04 24.83 61.36 27.75C62.87 29.08 65.1 31.61 66.69 34.27C68.86 37.9 69.33 40.84 68.11 43.02Z" fill="#A2A5FF"/>
<path d="M229.99 77.05C222.28 77.05 214.19 80.58 208.44 83.19C208.44 77.44 210.92 74.96 215.75 73.52H216.66C236.64 73.52 252.19 60.07 252.19 39.56C252.19 34.2 250.36 29.63 247.36 25.85C251.8 23.89 257.16 19.19 257.16 13.7C257.16 7.17003 252.98 1.68002 245.67 1.68002C245.62 1.68002 245.56 1.68002 245.51 1.68002C241.68 1.72002 238.87 5.21003 239.34 9.01003C239.46 9.97003 239.53 10.98 239.53 12C239.53 14.48 239.27 16.83 238.75 18.92C232.61 15.65 225.17 14.09 217.85 14.09C196.43 14.09 182.72 30.55 182.72 45.96C182.72 56.54 187.81 63.59 195.13 68.03C192.91 70.51 191.21 71.56 188.99 72.73C186.25 74.17 179.19 76.52 178.8 84.75C178.93 90.76 183.5 94.15 188.99 95.98C183.37 98.33 178.8 103.16 178.8 108.39C178.8 115.83 192.64 118.58 212.24 118.58C239.01 118.58 255.6 112.7 255.6 95.07C255.6 82.27 240.97 77.05 230 77.05H229.99ZM245.93 6.52003C245.93 6.52003 248.52 7.79002 249.55 11.46C250.58 15.13 248.19 19.71 244.7 21.32C244.27 21.52 243.8 21.7 243.28 21.85C243.28 21.85 248.74 15.32 245.92 6.52003H245.93ZM216.93 27.68C220.46 27.68 223.72 33.43 223.72 43.74C223.72 55.23 220.45 58.89 218.76 58.89C215.36 58.89 211.45 54.06 211.45 43.87C211.45 32.51 213.93 27.67 216.94 27.67L216.93 27.68ZM211.45 105C205.18 105 201.26 102.91 201.26 99.38C201.26 98.86 201.26 98.47 201.39 98.07H222.42C225.69 98.07 228.56 98.85 230.91 102.25C226.21 103.82 219.16 104.99 211.45 104.99V105Z" fill="#A2A5FF"/>
</svg>
