<?xml version="1.0" encoding="UTF-8"?>
<svg id="Camada_1" data-name="Camada 1" xmlns="http://www.w3.org/2000/svg" viewBox="0 0 700 700">
  <defs>
    <style>
      .cls-1 {
        fill: #a2a5ff;
      }

      .cls-2 {
        fill: #f2f2f2;
      }
    </style>
  </defs>
  <rect class="cls-1" width="700" height="700"/>
  <g>
    <path class="cls-2" d="M237.26,383.18c-20.9,0-40.75-13.06-40.75-38.79s22.99-39.57,42.32-39.57c24.95,0,40.75,13.06,40.75,37.35,0,26.77-21.55,41.01-42.32,41.01ZM245.23,348.96c0-23.12-4.57-29.13-8.88-29.13-3,0-5.49,8.49-5.49,19.85,0,20.51,4.83,28.73,8.88,28.73,3.13,0,5.49-10.06,5.49-19.46h0Z"/>
    <path class="cls-2" d="M374.86,328.13v44h22.24v8.44h-31.86v-52.44h9.62Z"/>
    <path class="cls-2" d="M403.4,329.47c0-2.84,2.13-5.2,5.36-5.2s5.44,2.29,5.44,5.2-2.29,5.28-5.44,5.28-5.36-2.21-5.36-5.28ZM413.5,340.9v39.66h-9.38v-39.66h9.38Z"/>
    <path class="cls-2" d="M423.27,378.36v-52.6h9.38v17.43c2.29-2.21,5.6-3.47,9.54-3.47,9.62,0,15.46,6.7,15.46,19.08,0,15.38-6.7,22.95-18.69,22.95-5.52,0-12.38-1.5-15.69-3.39ZM448.35,360.06c0-6.15-1.5-13.48-8.83-13.48-3.63,0-6.86,2.44-6.86,5.91v20.98c1.58.79,4.1,1.5,6.7,1.5,5.28,0,8.99-4.02,8.99-14.9h0Z"/>
    <path class="cls-2" d="M465.15,340.9h7.73l.95,5.68c1.73-4.42,5.6-6.86,9.54-6.86,2.37,0,4.81.55,6.31,1.5l-1.66,7.81c-1.58-.79-3.55-1.42-5.6-1.42-4.26,0-7.02,3.39-7.18,7.96v25h-9.38v-33.36l-.71-6.31Z"/>
    <path class="cls-2" d="M491.24,362.43c0-13.88,6.86-22.71,20.42-22.71,2.68,0,8.44.63,14.04,2.76v30.52l.79,7.57h-8.12l-.55-4.18-.32-.08c-2.13,3.08-5.6,5.44-10.88,5.44-11.91,0-15.38-8.99-15.38-19.32ZM516.48,368.03v-20.42c-1.18-.55-3.55-1.1-5.99-1.1-7.49,0-10.01,7.1-10.01,15.61,0,6.47,1.66,12.7,8.2,12.7,5.05,0,7.81-3.39,7.81-6.78h-.01Z"/>
    <path class="cls-2" d="M535.09,340.9h7.73l.95,5.68c1.73-4.42,5.6-6.86,9.54-6.86,2.37,0,4.81.55,6.31,1.5l-1.66,7.81c-1.58-.79-3.55-1.42-5.6-1.42-4.26,0-7.02,3.39-7.18,7.96v25h-9.38v-33.36l-.71-6.31Z"/>
    <path class="cls-2" d="M567.1,391.13c0-5.91,3.86-10.33,8.2-13.41-6.47-.95-10.49-4.42-10.49-12.78v-24.05h9.38v23.03c0,4.73.47,8.28,6.7,8.28,3.78,0,7.25-3,7.25-7.49v-23.81h9.38v34.7c0,2.84-.32,8.36-.87,10.96-1.5,9.54-7.02,14.98-16.88,14.98-8.52,0-12.7-4.02-12.7-10.41h.03ZM588.23,383.32v-7.41c-6.94,3.08-12.85,7.17-12.85,13.64,0,3.47,2.05,5.13,5.44,5.13,5.44,0,7.41-4.5,7.41-11.36Z"/>
    <path class="cls-2" d="M151.32,330.15c-1.11,0-2.01.91-2.01,2.03s.9,2.03,2.01,2.03,2.01-.91,2.01-2.03-.9-2.03-2.01-2.03Z"/>
    <path class="cls-2" d="M141.21,330.16c-1.1,0-2,.9-2,2.01s.9,2.01,2,2.01,2-.9,2-2.01-.9-2.01-2-2.01Z"/>
    <path class="cls-2" d="M135.52,290.71c-15.41,0-33.04,4.7-33.04,9.8,2.22,3.92,3.4,10.84,3.4,19.33v35.52c0,8.49-1.44,20.38-1.44,22.47,0,1.57.65,2.74,1.83,2.74,2.22-.39,12.93-.91,18.68-.91,5.36,0,13.97.91,17.5.91,23.25,0,49.63-11.75,49.63-48.85,0-32.65-31.08-41.01-56.55-41.01h0ZM170.59,333.73c-1.44,2.57-3.67,3.28-5.45,3.48.42,1.68.69,3.48.69,5.71,0,3.04-.7,5.65-2.07,7.77-1.21,1.86-2.94,3.36-5.16,4.43-3.46,1.68-7.51,2.1-10.7,2.19v-10.16c1.97-.93,3.89-3.26,3.89-5.11,0-3.13-3.46-3.13-5.52-3.13s-5.52,0-5.52,3.13c0,1.86,1.92,4.18,3.89,5.11v10.16c-3.19-.09-7.24-.51-10.7-2.19-2.22-1.08-3.95-2.57-5.16-4.43-1.37-2.12-2.07-4.74-2.07-7.77,0-2.23.26-4.03.69-5.71-1.78-.19-4-.91-5.45-3.48-1.22-2.18-.75-5.12,1.42-8.75,1.59-2.66,3.82-5.19,5.33-6.52,3.32-2.92,6.09-2.85,7.45-2.54.55.12,1.05.32,1.5.59,2.34-1.71,5.19-2.55,8.62-2.55s6.28.84,8.62,2.55c.45-.26.95-.46,1.5-.59,1.36-.31,4.13-.38,7.45,2.54,1.51,1.33,3.74,3.86,5.33,6.52,2.17,3.63,2.64,6.57,1.42,8.75Z"/>
    <path class="cls-2" d="M332.47,367.76c-7.71,0-15.8,3.53-21.55,6.14,0-5.75,2.48-8.23,7.31-9.67h.91c19.98,0,35.53-13.45,35.53-33.96,0-5.36-1.83-9.93-4.83-13.71,4.44-1.96,9.8-6.66,9.8-12.15,0-6.53-4.18-12.02-11.49-12.02h-.16c-3.83.04-6.64,3.53-6.17,7.33.12.96.19,1.97.19,2.99,0,2.48-.26,4.83-.78,6.92-6.14-3.27-13.58-4.83-20.9-4.83-21.42,0-35.13,16.46-35.13,31.87,0,10.58,5.09,17.63,12.41,22.07-2.22,2.48-3.92,3.53-6.14,4.7-2.74,1.44-9.8,3.79-10.19,12.02.13,6.01,4.7,9.4,10.19,11.23-5.62,2.35-10.19,7.18-10.19,12.41,0,7.44,13.84,10.19,33.44,10.19,26.77,0,43.36-5.88,43.36-23.51,0-12.8-14.63-18.02-25.6-18.02h0ZM348.41,297.23s2.59,1.27,3.62,4.94c1.03,3.67-1.36,8.25-4.85,9.86-.43.2-.9.38-1.42.53,0,0,5.46-6.53,2.64-15.33h0ZM319.41,318.39c3.53,0,6.79,5.75,6.79,16.06,0,11.49-3.27,15.15-4.96,15.15-3.4,0-7.31-4.83-7.31-15.02,0-11.36,2.48-16.2,5.49-16.2h-.01ZM313.93,395.71c-6.27,0-10.19-2.09-10.19-5.62,0-.52,0-.91.13-1.31h21.03c3.27,0,6.14.78,8.49,4.18-4.7,1.57-11.75,2.74-19.46,2.74h0Z"/>
  </g>
</svg>