<?xml version="1.0" encoding="UTF-8"?>
<svg id="Camada_1" data-name="Camada 1" xmlns="http://www.w3.org/2000/svg" viewBox="0 0 32 32">
  <defs>
    <style>
      .cls-1 {
        fill: #fff;
      }

      .cls-2 {
        fill: #ff7167;
      }
    </style>
  </defs>
  <path class="cls-2" d="M26.81,32H5.19c-2.86,0-5.19-2.32-5.19-5.19V5.19C0,2.32,2.32,0,5.19,0h21.61c2.88,0,5.21,2.33,5.21,5.21v21.61c0,2.86-2.32,5.19-5.19,5.19Z"/>
  <g>
    <path class="cls-1" d="M13.69,6.7c0-1.27,1.01-2.25,2.28-2.25s2.25.98,2.25,2.25-1.01,2.28-2.25,2.28-2.28-1.01-2.28-2.28ZM14.01,11h3.99v12.95h-3.99v-12.95Z"/>
    <path class="cls-1" d="M21.1,21.96c0-1.29,1.06-2.36,2.38-2.36s2.38,1.06,2.38,2.36-1.11,2.33-2.38,2.33-2.38-1.06-2.38-2.33Z"/>
  </g>
</svg>