<?xml version="1.0" encoding="UTF-8"?>
<svg id="Camada_1" data-name="Camada 1" xmlns="http://www.w3.org/2000/svg" viewBox="0 0 700 700">
  <defs>
    <style>
      .cls-1 {
        fill: #8c82fc;
      }

      .cls-2 {
        fill: #fff;
      }
    </style>
  </defs>
  <rect class="cls-1" width="700" height="700"/>
  <g>
    <path class="cls-2" d="M91.06,313.12c3.77,0,6.88-3.17,6.88-6.9s-3.16-6.9-6.88-6.9-6.88,3.17-6.88,6.9,3.16,6.9,6.88,6.9ZM87.34,362.06c0,1.04.89,1.94,1.93,1.94s1.93-.9,1.93-1.94-.89-1.94-1.93-1.94-1.93.9-1.93,1.94ZM101.09,321.86c1.65,0,2.83-1.37,2.83-2.84,0-1.66-1.37-2.84-2.83-2.84-1.65,0-2.83,1.37-2.83,2.84s1.18,2.84,2.83,2.84ZM78.48,347.87c3.77,0,6.88-3.17,6.88-6.9s-3.16-6.9-6.88-6.9-6.88,3.17-6.88,6.9c.14,3.78,3.16,6.9,6.88,6.9ZM68.59,331.65c1.65,0,2.83-1.37,2.83-2.84,0-1.66-1.37-2.84-2.83-2.84-1.65,0-2.83,1.37-2.83,2.84,0,1.66,1.18,2.84,2.83,2.84ZM67.56,337.94c0-1.04-.89-1.94-1.93-1.94s-1.93.9-1.93,1.94.89,1.94,1.93,1.94,1.93-.9,1.93-1.94ZM76.69,321.72c2.68,0,4.8-2.13,4.8-4.82s-2.12-4.82-4.8-4.82-4.8,2.13-4.8,4.82,2.12,4.82,4.8,4.82ZM135,295.24c1.04,0,1.93-.9,1.93-1.94s-.89-1.94-1.93-1.94-1.93.9-1.93,1.94.89,1.94,1.93,1.94ZM82.53,361.3c0-4.68-3.77-8.42-8.38-8.42s-8.38,3.78-8.38,8.42,3.77,8.42,8.38,8.42,8.38-3.78,8.38-8.42ZM166.6,325.79c3.77,0,6.88-3.17,6.88-6.9s-3.16-6.9-6.88-6.9-6.88,3.17-6.88,6.9,3.01,6.9,6.88,6.9ZM151.15,373.31c0,2.7,2.12,4.82,4.8,4.82s4.8-2.13,4.8-4.82-2.12-4.82-4.8-4.82-4.8,2.13-4.8,4.82ZM155.95,309.24c2.68,0,4.8-2.13,4.8-4.82s-2.12-4.82-4.8-4.82-4.8,2.13-4.8,4.82,2.12,4.82,4.8,4.82ZM145.31,321.72c2.68,0,4.8-2.13,4.8-4.82s-2.12-4.82-4.8-4.82-4.8,2.13-4.8,4.82,2.12,4.82,4.8,4.82ZM162.55,338.7c0,4.68,3.77,8.42,8.38,8.42s8.38-3.78,8.38-8.42-3.77-8.42-8.38-8.42-8.38,3.78-8.38,8.42ZM157.74,337.94c0-1.04-.89-1.94-1.93-1.94s-1.93.9-1.93,1.94.9,1.94,1.93,1.94,1.93-.9,1.93-1.94ZM143.99,298.98c1.65,0,2.83-1.37,2.83-2.84s-1.37-2.84-2.83-2.84c-1.65,0-2.83,1.37-2.83,2.84s1.37,2.84,2.83,2.84ZM152.94,331.65c1.65,0,2.83-1.37,2.83-2.84,0-1.66-1.37-2.84-2.83-2.84s-2.83,1.37-2.83,2.84c0,1.66,1.37,2.84,2.83,2.84ZM93.93,326.69c0-2.7-2.12-4.82-4.8-4.82s-4.8,2.13-4.8,4.82,2.12,4.82,4.8,4.82,4.8-2.13,4.8-4.82ZM143.99,378.14c-1.65,0-2.83,1.37-2.83,2.84,0,1.66,1.37,2.84,2.83,2.84,1.65,0,2.83-1.37,2.83-2.84s-1.18-2.84-2.83-2.84ZM134.24,389.72c-4.66,0-8.38,3.78-8.38,8.42s3.77,8.42,8.38,8.42,8.38-3.78,8.38-8.42-3.77-8.42-8.38-8.42ZM154.02,386.88c-3.77,0-6.88,3.17-6.88,6.9s3.16,6.9,6.88,6.9,6.88-3.17,6.88-6.9-3.16-6.9-6.88-6.9ZM133.02,383.86c0,1.04.89,1.94,1.93,1.94s1.93-.9,1.93-1.94-.89-1.94-1.93-1.94c-1.04.14-1.93.9-1.93,1.94ZM179.5,360.07c-1.04,0-1.93.9-1.93,1.94s.89,1.94,1.93,1.94,1.93-.9,1.93-1.94-1.04-1.94-1.93-1.94ZM176.49,368.35c-1.65,0-2.83,1.37-2.83,2.84,0,1.66,1.37,2.84,2.83,2.84,1.65,0,2.83-1.37,2.83-2.84,0-1.65-1.18-2.84-2.83-2.84ZM131.09,313.12c3.77,0,6.88-3.17,6.88-6.9s-3.16-6.9-6.88-6.9-6.88,3.17-6.88,6.9,3.16,6.9,6.88,6.9ZM166.6,352.13c-3.77,0-6.88,3.17-6.88,6.9s3.16,6.9,6.88,6.9,6.88-3.17,6.88-6.9c-.14-3.78-3.16-6.9-6.88-6.9ZM78.48,374.21c-3.77,0-6.88,3.17-6.88,6.9s3.16,6.9,6.88,6.9,6.88-3.17,6.88-6.9-3.01-6.9-6.88-6.9ZM168.39,378.28c-2.68,0-4.8,2.13-4.8,4.82s2.12,4.82,4.8,4.82,4.8-2.13,4.8-4.82-2.12-4.82-4.8-4.82ZM92.14,368.35c-1.65,0-2.83,1.37-2.83,2.84,0,1.66,1.37,2.84,2.83,2.84s2.83-1.37,2.83-2.84c0-1.65-1.37-2.84-2.83-2.84ZM99.77,378.28c-2.68,0-4.8,2.13-4.8,4.82s2.12,4.82,4.8,4.82,4.8-2.13,4.8-4.82-2.12-4.82-4.8-4.82ZM101.09,401.02c-1.65,0-2.83,1.37-2.83,2.84s1.37,2.84,2.83,2.84c1.65,0,2.83-1.37,2.83-2.84s-1.37-2.84-2.83-2.84ZM89.13,390.76c-2.68,0-4.8,2.13-4.8,4.82s2.12,4.82,4.8,4.82,4.8-2.13,4.8-4.82-2.12-4.82-4.8-4.82ZM108.29,316.14c0,1.04.89,1.94,1.93,1.94s1.93-.9,1.93-1.94-.89-1.94-1.93-1.94c-1.18,0-1.93.9-1.93,1.94ZM119.27,301.72c0-4.68-3.77-8.42-8.38-8.42s-8.38,3.78-8.38,8.42,3.77,8.42,8.38,8.42c4.66.14,8.38-3.59,8.38-8.42ZM110.08,404.76c-1.04,0-1.93.9-1.93,1.94s.89,1.94,1.93,1.94,1.93-.9,1.93-1.94-.89-1.94-1.93-1.94ZM113.99,386.88c-3.77,0-6.88,3.17-6.88,6.9s3.16,6.9,6.88,6.9,6.88-3.17,6.88-6.9-3.16-6.9-6.88-6.9Z"/>
    <path class="cls-2" d="M222.58,361.49v27h-10.36v-76.99h10.36v37.31l37.16-37.31h14.32l-31.93,31.07,32.78,45.87h-13.47l-26.8-38.59-12.06,11.59v.05ZM291.9,332.41v56.08h-9.37v-56.08h9.37ZM291.9,322.24h-9.37v-10.73h9.37v10.73ZM352.32,311.51v76.99h-8.85v-7.71h-.24c-4.05,7.61-10.45,9.32-15.92,9.32-18.98,0-24.54-17.92-24.54-31.31,0-15.75,8.43-27.99,23.27-27.99,10.12,0,14.41,6.34,16.67,9.55l.24-.76v-28.09h9.37ZM312.48,360.31c0,12.34,4.8,21.66,15.07,21.66,5.98,0,15.26-3.97,15.26-18.87,0-9.13-1.51-23.79-15.07-23.79-14.51,0-15.26,13.81-15.26,21ZM407.52,340.16l-33.3,40.53h34.29v7.8h-46.77v-7.38l33.63-40.86h-31.08v-7.8h43.23v7.71ZM456.73,370.9h9.37c-.33,2.7-2.87,10.59-9.94,15.32-2.54,1.7-6.17,3.88-15.16,3.88-15.68,0-24.96-11.92-24.96-28.09,0-17.35,8.34-31.21,26.8-31.21,16.11,0,24.02,12.86,24.02,32.68h-40.78c0,11.68,5.46,18.44,16.25,18.44,8.85,0,14.08-6.86,14.41-11.02ZM426.07,356.01h31.08c-.52-8.7-4.14-16.74-15.59-16.74-8.67,0-15.49,8.04-15.49,16.74ZM523.56,350.33v38.16h-9.37v-34.52c0-9.74-2.78-14.71-11.96-14.71-5.32,0-14.74,3.45-14.74,18.63v30.55h-9.37v-56.08h8.85v7.94h.24c2.03-2.98,7.25-9.55,16.86-9.55,8.67,0,19.54,3.55,19.54,19.53l-.05.05ZM547.01,332.41v56.08h-9.37v-56.08h9.37ZM547.01,322.24h-9.37v-10.73h9.37v10.73ZM581.63,340.26h-8.95v36.46c0,4.4,3.72,4.4,5.65,4.4h3.3v7.38c-3.44.33-6.08.76-7.06.76-9.28,0-11.3-5.25-11.3-12.01v-36.98h-7.58v-7.8h7.58v-15.65h9.37v15.65h8.95v7.8h.05ZM636.26,350.33v38.16h-9.37v-36.65c0-7.61-2.12-12.53-11.11-12.53-7.68,0-15.59,4.49-15.59,18.63v30.55h-9.37v-76.99h9.37v28.42h.24c2.68-3.55,7.35-9.13,16.34-9.13s19.54,3.55,19.54,19.53h-.05Z"/>
  </g>
</svg>