<?xml version="1.0" encoding="UTF-8"?>
<svg id="Camada_1" data-name="Camada 1" xmlns="http://www.w3.org/2000/svg" viewBox="0 0 399.81 406.59">
  <defs>
    <style>
      .cls-1 {
        fill: #93a603;
      }
    </style>
  </defs>
  <circle class="cls-1" cx="199.91" cy="154.87" r="20.66"/>
  <g>
    <path class="cls-1" d="M126.24,167.08l-47.03-.04c1.73,17.29,7.2,34.12,15.97,49.08l59.84-.58-33.41,31.98c13.88,11.73,30.3,20.23,47.86,24.77,11.62-11.77,18.25-27.14,18.71-43.31l.06-2.18c-1.22-33.14-28.56-59.73-62-59.73Z"/>
    <path class="cls-1" d="M273.15,167.08c-33.63,0-61.09,26.89-62.02,60.3l.09,1.61c.45,16.21,7.12,31.61,18.78,43.4,17.61-4.5,34.06-12.96,47.98-24.67l-33.61-32.17,60.25.58c8.77-14.97,14.24-31.8,15.97-49.09l-3.95.04h-43.49Z"/>
  </g>
</svg>