<?xml version="1.0" encoding="UTF-8"?>
<svg id="Camada_1" data-name="Camada 1" xmlns="http://www.w3.org/2000/svg" viewBox="0 0 399.81 406.59">
  <defs>
    <style>
      .cls-1 {
        fill: #93a603;
      }
    </style>
  </defs>
  <path class="cls-1" d="M126.24,217.4l-47.03-.04c1.73,17.29,7.2,34.12,15.97,49.08l59.84-.58-33.41,31.98c13.88,11.73,30.3,20.23,47.86,24.77,11.62-11.77,18.25-27.14,18.71-43.31l.06-2.18c-1.22-33.14-28.56-59.73-62-59.73Z"/>
  <path class="cls-1" d="M273.15,217.4c-33.63,0-61.09,26.89-62.02,60.3l.09,1.61c.45,16.21,7.12,31.61,18.78,43.4,17.61-4.5,34.06-12.96,47.98-24.67l-33.61-32.17,60.25.58c8.77-14.97,14.24-31.8,15.97-49.09l-3.95.04h-43.49Z"/>
  <path class="cls-1" d="M154.56,189.28c.8-.8,1.54-1.79,2.32-2.84,1.39-1.86,2.37-3.51,3.07-5.14.78-1.8,1.36-3.73,1.71-5.75.31-1.75.45-3.18.45-4.5,0-6.88-2.68-13.35-7.55-18.22l-36.84-36.83c-12.98,11.97-23.26,26.69-29.96,42.93l30.35,30.35c10.05,10.05,26.41,10.04,36.45,0Z"/>
  <path class="cls-1" d="M239.53,181.45c.73,1.65,1.72,3.29,3.03,5.02.89,1.18,1.51,2.04,2.28,2.81,10.05,10.05,26.41,10.05,36.45,0l30.64-30.65c-6.75-16.22-17.06-30.91-30.06-42.84l-37.04,37.04c-4.87,4.87-7.55,11.34-7.55,18.22,0,1.43.16,2.97.47,4.7.35,1.91.95,3.83,1.78,5.7Z"/>
  <path class="cls-1" d="M174.14,86.63v49.25c0,14.21,11.56,25.78,25.77,25.78s25.77-11.57,25.77-25.78v-49.25c-16.92-3.67-34.63-3.67-51.54,0Z"/>
</svg>