<?xml version="1.0" encoding="UTF-8"?>
<svg id="Camada_1" data-name="Camada 1" xmlns="http://www.w3.org/2000/svg" viewBox="0 0 700 700">
  <defs>
    <style>
      .cls-1 {
        fill: #f2594b;
      }

      .cls-2 {
        fill: #f7f7f7;
      }

      .cls-3 {
        fill: #d9bfb0;
      }
    </style>
  </defs>
  <rect class="cls-3" width="700" height="700"/>
  <g>
    <g>
      <circle class="cls-1" cx="132.75" cy="340.13" r="8.23"/>
      <g>
        <path class="cls-1" d="M103.41,344.99h-18.73c.69,6.87,2.87,13.57,6.36,19.53l23.83-.23-13.31,12.74c5.53,4.67,12.07,8.06,19.06,9.87,4.63-4.69,7.27-10.81,7.45-17.25l.03-.87c-.49-13.2-11.38-23.79-24.69-23.79Z"/>
        <path class="cls-1" d="M161.92,344.99c-13.39,0-24.33,10.71-24.7,24.01l.03.64c.18,6.46,2.84,12.59,7.48,17.28,7.01-1.79,13.56-5.16,19.11-9.82l-13.39-12.81,24,.23c3.49-5.96,5.67-12.66,6.36-19.55l-1.57.02h-17.32Z"/>
        <path class="cls-1" d="M114.69,333.79c.32-.32.61-.71.92-1.13.55-.74.94-1.4,1.22-2.05.31-.72.54-1.48.68-2.29.12-.7.18-1.27.18-1.79,0-2.74-1.07-5.32-3.01-7.26l-14.67-14.67c-5.17,4.77-9.26,10.63-11.93,17.1l12.09,12.09c4,4,10.52,4,14.52,0Z"/>
        <path class="cls-1" d="M148.52,330.67c.29.66.68,1.31,1.21,2,.35.47.6.81.91,1.12,4,4,10.52,4,14.52,0l12.2-12.21c-2.69-6.46-6.79-12.31-11.97-17.06l-14.75,14.75c-1.94,1.94-3.01,4.52-3.01,7.26,0,.57.06,1.18.19,1.87.14.76.38,1.53.71,2.27Z"/>
        <path class="cls-1" d="M122.48,292.91v19.61c0,5.66,4.6,10.27,10.26,10.27s10.26-4.61,10.26-10.27v-19.61c-6.74-1.46-13.79-1.46-20.53,0Z"/>
      </g>
    </g>
    <g>
      <path class="cls-2" d="M212.86,313.29h24.21v48.13c0,4.08.88,7.81,2.62,11.09,1.74,3.29,4.25,5.92,7.47,7.81,3.21,1.89,7.06,2.85,11.46,2.85h5.85v-10.68h-5.74c-2.95,0-5.33-.92-7.07-2.74-1.75-1.82-2.64-4.17-2.64-6.97v-49.49h24.21v-10.68h-60.35v10.68Z"/>
      <path class="cls-2" d="M323.2,327.34h0c-4.01-2.54-8.92-3.83-14.59-3.83s-10.49,1.29-14.75,3.82c-4.27,2.54-7.62,6.13-9.97,10.66-2.34,4.52-3.52,9.92-3.52,16.03s1.2,11.42,3.58,15.98c2.38,4.57,5.74,8.18,9.96,10.71,4.23,2.54,9.09,3.82,14.47,3.82,4.52,0,8.55-.82,11.98-2.44,3.42-1.61,6.33-3.82,8.64-6.55,2.31-2.73,3.98-5.91,4.99-9.45l.18-.65h-10.46l-.13.33c-1.17,2.99-3.04,5.38-5.55,7.09-2.51,1.71-5.76,2.58-9.66,2.58-3.08,0-5.99-.78-8.67-2.32-2.67-1.54-4.86-3.88-6.51-6.96-1.36-2.55-2.17-5.74-2.39-9.47h44.64l.03-.48c.08-1.11.12-2.05.12-2.88v-2.39c0-4.91-1.07-9.48-3.18-13.59-2.12-4.12-5.22-7.49-9.21-10.03ZM299.64,334.77c2.71-1.43,5.65-2.16,8.74-2.16,4.69,0,8.65,1.45,11.76,4.3,2.99,2.74,4.66,6.57,4.98,11.38h-34.21c.32-2.81,1.07-5.24,2.24-7.24,1.61-2.75,3.8-4.86,6.5-6.28Z"/>
      <path class="cls-2" d="M369.18,325.02c-2.9,1-5.4,2.45-7.45,4.31-1.62,1.47-3.03,3.2-4.2,5.17l-.6-9.62h-9.63v58.3h10.57v-30.06c0-3.56.47-6.58,1.39-8.96.91-2.37,2.2-4.27,3.83-5.64,1.65-1.39,3.55-2.41,5.66-3.03,2.14-.63,4.43-.94,6.79-.94h4.04v-11.03h-.51c-3.68,0-7,.51-9.88,1.5Z"/>
      <path class="cls-2" d="M434.74,327.57c-4.19-2.69-9.16-4.06-14.77-4.06-3.54,0-6.7.53-9.39,1.57-2.69,1.04-5.04,2.41-6.97,4.07-1.52,1.31-2.84,2.69-3.93,4.13l-.72-8.4h-9.62v83.3h10.57v-33.14c1.86,2.75,4.36,4.96,7.43,6.6,3.62,1.92,7.83,2.9,12.51,2.9,5.6,0,10.58-1.33,14.82-3.94,4.22-2.61,7.56-6.25,9.9-10.83,2.34-4.56,3.52-9.82,3.52-15.63s-1.19-11.07-3.52-15.63c-2.35-4.57-5.65-8.25-9.84-10.94ZM437.42,354.03c0,4.29-.8,8.06-2.39,11.19-1.58,3.12-3.81,5.59-6.63,7.35-2.82,1.76-6.08,2.65-9.67,2.65s-6.94-.89-9.73-2.65c-2.78-1.76-4.98-4.23-6.52-7.35-1.55-3.13-2.33-6.9-2.33-11.19s.79-7.97,2.33-11.14c1.54-3.16,3.74-5.65,6.52-7.41,2.78-1.76,6.06-2.65,9.73-2.65s6.85.89,9.67,2.65c2.82,1.76,5.05,4.25,6.63,7.41,1.59,3.17,2.39,6.92,2.39,11.14Z"/>
      <path class="cls-2" d="M497.89,326.48c-3.58-1.96-8.12-2.96-13.49-2.96-3.92,0-7.73.76-11.33,2.25-3.62,1.5-6.65,3.69-9,6.51-2.37,2.83-3.8,6.38-4.26,10.56l-.06.57h10.78l.07-.43c.58-3.4,2.15-6.01,4.67-7.73,2.55-1.75,5.63-2.64,9.14-2.64,3,0,5.53.59,7.53,1.75,1.98,1.15,3.52,2.89,4.57,5.17,1.01,2.19,1.55,4.95,1.6,8.19h-14.6c-5.04,0-9.48.72-13.19,2.14-3.75,1.43-6.69,3.55-8.75,6.31-2.07,2.77-3.12,6.18-3.12,10.14,0,3.26.79,6.3,2.34,9.06,1.56,2.77,3.96,5.01,7.14,6.68,3.16,1.66,7.14,2.5,11.83,2.5,2.61,0,5-.31,7.08-.93,2.08-.62,3.95-1.46,5.54-2.51,1.59-1.05,3-2.3,4.2-3.74.79-.94,1.49-1.93,2.1-2.96l.49,8.77h9.52v-35.97c0-4.75-.9-8.94-2.67-12.45-1.79-3.53-4.51-6.31-8.11-8.29ZM498.1,356.13c-.02,2.44-.41,4.81-1.16,7.05-.77,2.28-1.91,4.39-3.38,6.27-1.47,1.87-3.26,3.35-5.34,4.4-2.07,1.06-4.42,1.59-6.98,1.59s-4.66-.41-6.44-1.2c-1.76-.79-3.1-1.91-3.98-3.33-.89-1.42-1.34-3.13-1.34-5.07s.47-3.54,1.4-5.01c.92-1.45,2.48-2.6,4.64-3.43,2.21-.84,5.16-1.27,8.79-1.27h13.81Z"/>
      <path class="cls-2" d="M536.17,316.76c0-2.71.57-4.61,1.71-5.64,1.15-1.04,3.08-1.57,5.74-1.57h5.51v-9.21h-6.99c-3.54,0-6.58.57-9.02,1.69-2.48,1.14-4.38,2.94-5.64,5.34-1.24,2.38-1.88,5.46-1.88,9.16v8.35h-8.75v9.09h8.75v49.21h10.57v-49.21h14.43v-9.09h-14.43v-8.12Z"/>
      <polygon class="cls-2" points="604.31 324.88 585 367.86 566.82 325.19 566.68 324.88 555.22 324.88 578.17 376.82 581.01 376.82 567.03 408.18 578.15 408.18 615 325.6 615.32 324.88 604.31 324.88"/>
    </g>
  </g>
</svg>