<?xml version="1.0" encoding="UTF-8"?>
<svg id="Camada_1" data-name="Camada 1" xmlns="http://www.w3.org/2000/svg" viewBox="0 0 476.3 467.86">
  <defs>
    <style>
      .cls-1 {
        fill: #0aeded;
      }
    </style>
  </defs>
  <path class="cls-1" d="M238.15,277.56c-22.12,0-40.12-18-40.12-40.12s18-40.12,40.12-40.12,40.12,18,40.12,40.12-18,40.12-40.12,40.12ZM238.15,199.54c-20.9,0-37.91,17-37.91,37.91s17,37.91,37.91,37.91,37.91-17,37.91-37.91-17-37.91-37.91-37.91Z"/>
  <g>
    <path class="cls-1" d="M181.02,460.37l-.61-.16c-33.15-8.57-64.54-24.82-90.8-47l-.93-.79.89-.85,61.07-58.45-110.83,1.07-.32-.55c-16.55-28.25-27.02-60.45-30.3-93.11l-.12-1.22,90.01.07c63.9,0,115.81,50,118.16,113.84l-.12,4.19c-.86,30.8-13.52,60.1-35.64,82.51l-.45.45ZM91.98,412.32c25.63,21.42,56.15,37.17,88.37,45.59,21.45-21.95,33.71-50.54,34.55-80.57l.12-4.11c-2.3-62.57-53.24-111.64-115.95-111.64l-87.56-.07c3.36,31.72,13.56,62.96,29.55,90.45l115.13-1.1-64.21,61.45Z"/>
    <path class="cls-1" d="M294.63,460.54l-.45-.45c-22.22-22.46-34.92-51.82-35.78-82.68l-.16-3.01c1.76-63.46,54.79-115.01,118.2-115.01l90.8-.09-.13,1.23c-3.27,32.67-13.75,64.87-30.3,93.13l-.32.55h-.64s-110.97-1.08-110.97-1.08l62.33,59.66-.95.79c-26.3,22.12-57.78,38.3-91.02,46.8l-.61.16ZM464.79,261.53l-6.22.07h-82.13c-62.23,0-114.27,50.59-115.99,112.77l.16,2.94c.84,30.12,13.16,58.77,34.71,80.77,32.3-8.35,62.89-24.04,88.58-45.4l-64.58-61.82,115.91,1.11c16-27.49,26.2-58.73,29.56-90.45Z"/>
    <path class="cls-1" d="M118.12,222.73c-13.31,0-25.8-5.16-35.19-14.54l-57.82-57.83.28-.68c12.66-30.66,32.31-58.82,56.84-81.44l.79-.72.75.74,69.55,69.54c9.4,9.41,14.58,21.91,14.58,35.19,0,2.58-.28,5.34-.87,8.69-.67,3.88-1.79,7.62-3.31,11.1-1.37,3.19-3.26,6.34-5.92,9.92-1.42,1.92-2.9,3.9-4.48,5.49-9.38,9.37-21.88,14.54-35.19,14.54h0ZM27.72,149.84l56.78,56.78c8.96,8.97,20.9,13.9,33.62,13.9h0c12.72,0,24.66-4.94,33.62-13.9,1.47-1.46,2.9-3.38,4.27-5.23,2.56-3.44,4.37-6.46,5.68-9.49,1.44-3.32,2.5-6.89,3.15-10.6.57-3.22.84-5.86.84-8.31,0-12.7-4.95-24.63-13.94-33.62l-68.79-68.79c-23.75,22.11-42.83,49.48-55.24,79.26Z"/>
    <path class="cls-1" d="M357.38,222.74c-12.75,0-25.49-4.85-35.2-14.55-1.38-1.39-2.54-2.94-4.01-4.91l-.38-.51c-2.54-3.33-4.45-6.51-5.85-9.69-1.6-3.62-2.75-7.32-3.44-11.01-.6-3.37-.9-6.34-.9-9.07,0-13.28,5.18-25.78,14.58-35.19l70.68-70.67.79.72c24.56,22.55,44.29,50.66,57.02,81.27l.28.68-58.37,58.39c-9.71,9.7-22.45,14.55-35.2,14.55ZM392.93,70.18l-69.18,69.19c-8.99,8.99-13.94,20.92-13.94,33.62,0,2.61.28,5.44.86,8.67.65,3.52,1.75,7.06,3.28,10.51h0c1.34,3.03,3.17,6.06,5.59,9.26l.39.52c1.48,1.97,2.54,3.39,3.81,4.66,8.96,8.97,20.9,13.9,33.63,13.9s24.67-4.94,33.63-13.9l57.34-57.34c-12.49-29.73-31.62-57.04-55.41-79.1Z"/>
    <path class="cls-1" d="M238.15,156.37c-27.44,0-49.76-22.33-49.76-49.78V12.72l.87-.19c31.98-6.94,65.8-6.94,97.77,0l.87.19v93.87c0,27.45-22.32,49.78-49.76,49.78ZM190.6,14.5v92.09c0,26.23,21.33,47.57,47.55,47.57s47.55-21.34,47.55-47.57V14.5c-31.14-6.61-63.97-6.61-95.1,0Z"/>
  </g>
</svg>