<?xml version="1.0" encoding="UTF-8"?>
<svg id="Camada_1" data-name="Camada 1" xmlns="http://www.w3.org/2000/svg" viewBox="0 0 476.3 467.86">
  <defs>
    <style>
      .cls-1 {
        fill: #f2594b;
      }
    </style>
  </defs>
  <path class="cls-1" d="M238.15,277.56c-22.13,0-40.13-18-40.13-40.13s18-40.13,40.13-40.13,40.13,18,40.13,40.13-18,40.13-40.13,40.13ZM238.15,199.52c-20.91,0-37.92,17.01-37.92,37.92s17.01,37.92,37.92,37.92,37.92-17.01,37.92-37.92-17.01-37.92-37.92-37.92Z"/>
  <g>
    <path class="cls-1" d="M181.01,460.42l-.61-.16c-33.16-8.57-64.56-24.83-90.82-47.01l-.93-.79.89-.85,61.08-58.46-110.86,1.07-.32-.55c-16.55-28.26-27.03-60.47-30.3-93.13l-.12-1.22,90.03.07c63.92,0,115.84,50.01,118.19,113.86l-.12,4.19c-.86,30.8-13.52,60.11-35.65,82.53l-.45.45ZM91.95,412.36c25.64,21.43,56.17,37.17,88.38,45.6,21.45-21.95,33.72-50.55,34.56-80.59l.12-4.11c-2.31-62.58-53.25-111.66-115.98-111.66l-87.58-.07c3.36,31.73,13.56,62.97,29.56,90.47l115.16-1.11-64.22,61.47Z"/>
    <path class="cls-1" d="M294.65,460.58l-.45-.45c-22.22-22.46-34.93-51.83-35.79-82.7l-.16-3.01c1.76-63.47,54.8-115.04,118.23-115.04l90.82-.09-.13,1.23c-3.27,32.68-13.75,64.89-30.31,93.15l-.32.55h-.64s-110.99-1.08-110.99-1.08l62.35,59.67-.95.79c-26.3,22.13-57.79,38.31-91.04,46.81l-.61.16ZM464.84,261.53l-6.22.07h-82.14c-62.24,0-114.29,50.6-116.02,112.8l.16,2.94c.84,30.13,13.17,58.78,34.71,80.79,32.3-8.36,62.9-24.04,88.6-45.41l-64.59-61.83,115.93,1.11c16.01-27.5,26.21-58.74,29.57-90.47Z"/>
    <path class="cls-1" d="M118.1,222.74c-12.75,0-25.49-4.85-35.21-14.56l-57.83-57.84.28-.68c12.66-30.66,32.32-58.83,56.85-81.46l.79-.72.75.74,69.56,69.56c9.4,9.41,14.58,21.91,14.58,35.2,0,2.58-.28,5.34-.87,8.69-.67,3.88-1.79,7.62-3.31,11.1-1.37,3.19-3.26,6.35-5.92,9.92-1.42,1.93-2.9,3.9-4.48,5.49-9.71,9.7-22.45,14.56-35.2,14.56ZM27.67,149.82l56.8,56.79c8.96,8.97,20.91,13.91,33.63,13.92h0c12.73,0,24.66-4.95,33.63-13.92,1.47-1.46,2.9-3.38,4.27-5.23,2.56-3.44,4.37-6.46,5.68-9.49,1.44-3.32,2.5-6.89,3.15-10.6.57-3.22.84-5.86.84-8.31,0-12.7-4.95-24.64-13.94-33.63l-68.81-68.81c-23.76,22.12-42.84,49.49-55.25,79.28Z"/>
    <path class="cls-1" d="M357.41,222.74c-12.75,0-25.49-4.85-35.21-14.56-1.38-1.39-2.54-2.94-4.01-4.91l-.38-.51c-2.54-3.33-4.45-6.51-5.85-9.69-1.6-3.62-2.75-7.32-3.44-11.02-.6-3.37-.9-6.34-.9-9.07,0-13.29,5.18-25.79,14.58-35.2l70.7-70.69.79.72c24.57,22.56,44.3,50.67,57.03,81.29l.28.68-.52.53-57.87,57.88c-9.71,9.7-22.45,14.56-35.21,14.56ZM392.97,70.15l-69.19,69.2c-9,8.99-13.94,20.93-13.94,33.63,0,2.61.28,5.44.86,8.68.65,3.52,1.75,7.06,3.28,10.52h0c1.34,3.03,3.17,6.06,5.59,9.26l.39.52c1.48,1.97,2.54,3.39,3.82,4.66,8.96,8.97,20.91,13.91,33.63,13.91s24.67-4.94,33.63-13.91l57.35-57.35c-12.49-29.73-31.63-57.06-55.42-79.11Z"/>
    <path class="cls-1" d="M238.15,156.35c-27.44,0-49.77-22.33-49.77-49.79V12.67l.87-.19c31.99-6.95,65.81-6.93,97.79,0l.87.19v93.89c0,27.45-22.32,49.79-49.77,49.79ZM190.59,14.45v92.11c0,26.24,21.33,47.58,47.56,47.58s47.56-21.34,47.56-47.58V14.45c-31.15-6.61-63.99-6.61-95.12,0Z"/>
  </g>
</svg>