<?xml version="1.0" encoding="UTF-8"?>
<svg id="Camada_1" data-name="Camada 1" xmlns="http://www.w3.org/2000/svg" viewBox="0 0 476.3 467.86">
  <defs>
    <style>
      .cls-1 {
        fill: #592e25;
      }
    </style>
  </defs>
  <path class="cls-1" d="M238.15,277.52c-22.11,0-40.09-17.98-40.09-40.09s17.98-40.09,40.09-40.09,40.08,17.98,40.08,40.09-17.98,40.09-40.08,40.09ZM238.15,199.55c-20.89,0-37.88,16.99-37.88,37.88s16.99,37.88,37.88,37.88,37.87-16.99,37.87-37.88-16.99-37.88-37.87-37.88Z"/>
  <g>
    <path class="cls-1" d="M181.06,460.21l-.61-.16c-33.13-8.56-64.5-24.81-90.73-46.96l-.93-.79.89-.85,61.02-58.41-110.75,1.07-.32-.55c-16.53-28.23-27-60.41-30.27-93.04l-.12-1.22,89.94.07c63.86,0,115.73,49.96,118.07,113.75l-.12,4.18c-.86,30.77-13.51,60.05-35.61,82.45l-.45.45ZM92.09,412.19c25.62,21.41,56.11,37.14,88.3,45.56,21.43-21.93,33.69-50.5,34.53-80.51l.12-4.11c-2.3-62.52-53.2-111.55-115.87-111.55l-87.5-.07c3.36,31.7,13.55,62.91,29.53,90.38l115.05-1.1-64.16,61.41Z"/>
    <path class="cls-1" d="M294.59,460.37l-.45-.45c-22.2-22.44-34.9-51.78-35.76-82.62l-.16-3.01c1.76-63.41,54.75-114.93,118.12-114.93l90.73-.09-.13,1.22c-3.27,32.65-13.74,64.82-30.28,93.06l-.32.55h-.64s-110.89-1.08-110.89-1.08l62.29,59.62-.95.79c-26.28,22.11-57.73,38.28-90.95,46.76l-.61.16ZM464.62,261.51l-6.22.07h-82.07c-62.19,0-114.18,50.55-115.91,112.69l.16,2.94c.84,30.1,13.15,58.73,34.68,80.71,32.27-8.35,62.84-24.02,88.52-45.37l-64.53-61.77,115.82,1.11c15.99-27.47,26.19-58.68,29.54-90.39Z"/>
    <path class="cls-1" d="M118.21,222.75c-12.74,0-25.47-4.85-35.17-14.54l-57.78-57.79.28-.68c12.65-30.64,32.29-58.78,56.79-81.38l.78-.72.75.74,69.5,69.49c9.39,9.4,14.57,21.89,14.57,35.16,0,2.58-.28,5.34-.87,8.69-.67,3.88-1.79,7.62-3.3,11.09-1.37,3.19-3.26,6.34-5.92,9.91-1.42,1.92-2.9,3.9-4.48,5.49-9.7,9.69-22.43,14.54-35.16,14.54ZM27.87,149.9l56.74,56.73c8.95,8.96,20.89,13.89,33.59,13.9h0c12.71,0,24.64-4.94,33.59-13.9,1.47-1.46,2.9-3.38,4.27-5.23,2.56-3.44,4.36-6.45,5.68-9.48,1.44-3.32,2.5-6.88,3.15-10.59.57-3.22.84-5.86.84-8.31,0-12.69-4.94-24.62-13.93-33.59l-68.74-68.74c-23.74,22.1-42.8,49.45-55.2,79.2Z"/>
    <path class="cls-1" d="M357.3,222.75c-12.74,0-25.47-4.85-35.17-14.54-1.38-1.39-2.54-2.94-4.01-4.91l-.38-.51c-2.54-3.33-4.44-6.5-5.85-9.69-1.6-3.61-2.75-7.31-3.43-11.01-.6-3.36-.9-6.33-.9-9.06,0-13.27,5.17-25.76,14.57-35.16l70.63-70.62.78.72c24.55,22.54,44.25,50.62,56.98,81.21l.28.68-.52.53-57.81,57.82c-9.7,9.69-22.43,14.54-35.17,14.54ZM392.82,70.3l-69.13,69.14c-8.99,8.98-13.93,20.91-13.93,33.59,0,2.6.28,5.43.86,8.67.65,3.52,1.75,7.06,3.28,10.51h0c1.34,3.03,3.17,6.05,5.59,9.25l.39.52c1.47,1.97,2.54,3.39,3.81,4.66,8.95,8.96,20.89,13.89,33.6,13.89s24.65-4.93,33.6-13.89l57.29-57.29c-12.48-29.7-31.6-57-55.37-79.04Z"/>
    <path class="cls-1" d="M238.15,156.42c-27.42,0-49.72-22.31-49.72-49.74V12.88l.87-.19c31.95-6.94,65.74-6.93,97.7,0l.87.19v93.8c0,27.43-22.3,49.74-49.72,49.74ZM190.64,14.66v92.03c0,26.21,21.31,47.53,47.51,47.53s47.51-21.32,47.51-47.53V14.66c-31.12-6.61-63.93-6.61-95.03,0Z"/>
  </g>
</svg>