<?xml version="1.0" encoding="UTF-8"?>
<svg id="Camada_1" data-name="Camada 1" xmlns="http://www.w3.org/2000/svg" viewBox="0 0 476.3 467.86">
  <defs>
    <style>
      .cls-1 {
        fill: #d9bfb0;
      }
    </style>
  </defs>
  <circle class="cls-1" cx="238.15" cy="237.53" r="39.22"/>
  <g>
    <path class="cls-1" d="M98.33,260.7l-89.26-.07c3.29,32.82,13.68,64.76,30.31,93.16l113.59-1.09-63.42,60.7c26.35,22.27,57.51,38.41,90.84,47.02,22.05-22.34,34.65-51.51,35.51-82.21l.12-4.13c-2.32-62.91-54.22-113.38-117.68-113.38Z"/>
    <path class="cls-1" d="M377.19,260.7c-63.83,0-115.96,51.05-117.73,114.45l.16,3.05c.86,30.77,13.52,60,35.66,82.37,33.42-8.54,64.65-24.6,91.07-46.82l-63.8-61.06,114.37,1.1c16.64-28.41,27.03-60.35,30.32-93.18l-7.5.08h-82.56Z"/>
    <path class="cls-1" d="M152.08,207.33c1.51-1.51,2.92-3.39,4.4-5.39,2.63-3.53,4.49-6.66,5.83-9.75,1.48-3.41,2.58-7.07,3.25-10.91.59-3.32.86-6.03.86-8.55,0-13.07-5.09-25.35-14.34-34.59l-69.92-69.91c-24.64,22.73-44.14,50.67-56.87,81.49l57.61,57.61c19.08,19.08,50.12,19.06,69.18,0Z"/>
    <path class="cls-1" d="M313.35,192.47c1.38,3.13,3.26,6.25,5.75,9.53,1.68,2.25,2.87,3.88,4.32,5.33,19.07,19.07,50.12,19.07,69.19,0l58.16-58.17c-12.81-30.79-32.38-58.67-57.05-81.32l-70.3,70.3c-9.24,9.24-14.34,21.53-14.34,34.59,0,2.71.3,5.63.89,8.92.67,3.63,1.8,7.27,3.38,10.82Z"/>
    <path class="cls-1" d="M189.24,12.49v93.48c0,26.98,21.95,48.93,48.91,48.93s48.91-21.95,48.91-48.93V12.49c-32.12-6.96-65.72-6.96-97.83,0Z"/>
  </g>
</svg>