<?xml version="1.0" encoding="UTF-8"?>
<svg id="Camada_1" data-name="Camada 1" xmlns="http://www.w3.org/2000/svg" viewBox="0 0 894.92 467.86">
  <defs>
    <style>
      .cls-1 {
        fill: #3a3a3a;
      }

      .cls-2 {
        fill: #f2594b;
      }
    </style>
  </defs>
  <g>
    <circle class="cls-2" cx="127.7" cy="219.4" r="12.11"/>
    <g>
      <path class="cls-2" d="M84.52,226.55l-27.57-.02c1.02,10.13,4.22,20,9.36,28.77l35.08-.34-19.59,18.74c8.14,6.88,17.76,11.86,28.05,14.52,6.81-6.9,10.7-15.91,10.97-25.39l.04-1.28c-.72-19.43-16.74-35.01-36.34-35.01Z"/>
      <path class="cls-2" d="M170.63,226.55c-19.71,0-35.81,15.76-36.35,35.34l.05.94c.27,9.5,4.17,18.53,11.01,25.44,10.32-2.64,19.96-7.6,28.12-14.46l-19.7-18.86,35.32.34c5.14-8.77,8.35-18.64,9.36-28.77l-2.32.02h-25.49Z"/>
      <path class="cls-2" d="M101.11,210.07c.47-.47.9-1.05,1.36-1.66.81-1.09,1.39-2.06,1.8-3.01.46-1.05.8-2.18,1-3.37.18-1.03.27-1.86.27-2.64,0-4.04-1.57-7.83-4.43-10.68l-21.59-21.59c-7.61,7.02-13.63,15.65-17.56,25.16l17.79,17.79c5.89,5.89,15.48,5.89,21.36,0Z"/>
      <path class="cls-2" d="M150.92,205.48c.43.97,1.01,1.93,1.78,2.94.52.69.89,1.2,1.33,1.65,5.89,5.89,15.48,5.89,21.37,0l17.96-17.96c-3.96-9.51-10-18.12-17.62-25.11l-21.71,21.71c-2.85,2.85-4.43,6.65-4.43,10.68,0,.84.09,1.74.27,2.75.21,1.12.56,2.25,1.04,3.34Z"/>
      <path class="cls-2" d="M112.59,149.91v28.87c0,8.33,6.78,15.11,15.11,15.11s15.11-6.78,15.11-15.11v-28.87c-9.92-2.15-20.3-2.15-30.21,0Z"/>
    </g>
  </g>
  <g>
    <path class="cls-1" d="M245.62,179.9h35.63v70.83c0,6.01,1.3,11.5,3.85,16.33,2.57,4.84,6.26,8.71,10.99,11.5,4.72,2.79,10.39,4.2,16.86,4.2h8.61v-15.72h-8.45c-4.34,0-7.84-1.36-10.41-4.04-2.58-2.68-3.89-6.14-3.89-10.26v-72.84h35.63v-15.73h-88.82v15.73Z"/>
    <path class="cls-1" d="M408.02,200.58h0c-5.9-3.74-13.12-5.63-21.48-5.63s-15.43,1.89-21.71,5.62c-6.28,3.74-11.22,9.02-14.67,15.69-3.44,6.65-5.19,14.59-5.19,23.6s1.77,16.8,5.27,23.52c3.51,6.73,8.44,12.03,14.67,15.77,6.22,3.73,13.39,5.63,21.3,5.63,6.66,0,12.59-1.21,17.63-3.58,5.03-2.37,9.31-5.62,12.72-9.65,3.39-4.02,5.86-8.7,7.34-13.91l.27-.96h-15.4l-.19.48c-1.72,4.4-4.47,7.92-8.17,10.44-3.7,2.52-8.48,3.8-14.21,3.8-4.53,0-8.82-1.15-12.76-3.41-3.93-2.26-7.15-5.7-9.58-10.24-2.01-3.75-3.19-8.44-3.52-13.94h65.7l.05-.7c.11-1.63.17-3.01.17-4.23v-3.51c0-7.22-1.58-13.95-4.69-20-3.11-6.06-7.68-11.02-13.56-14.76ZM373.34,211.51c3.99-2.11,8.32-3.18,12.86-3.18,6.9,0,12.73,2.13,17.3,6.33,4.4,4.04,6.86,9.67,7.32,16.75h-50.36c.46-4.14,1.57-7.72,3.3-10.65,2.37-4.04,5.59-7.15,9.57-9.25Z"/>
    <path class="cls-1" d="M475.69,197.16c-4.26,1.48-7.95,3.61-10.96,6.35-2.39,2.16-4.46,4.71-6.18,7.6l-.89-14.15h-14.18v85.81h15.56v-44.24c0-5.24.69-9.68,2.04-13.19,1.34-3.49,3.24-6.28,5.64-8.31,2.42-2.04,5.23-3.54,8.34-4.45,3.15-.92,6.52-1.39,9.99-1.39h5.94v-16.23h-.75c-5.41,0-10.31.74-14.55,2.21Z"/>
    <path class="cls-1" d="M572.18,200.92c-6.17-3.96-13.48-5.97-21.73-5.97-5.2,0-9.85.78-13.82,2.31-3.96,1.53-7.41,3.54-10.26,5.99-2.24,1.93-4.18,3.97-5.79,6.07l-1.06-12.36h-14.16v122.61h15.56v-48.77c2.74,4.05,6.41,7.31,10.93,9.71,5.33,2.83,11.52,4.27,18.42,4.27,8.24,0,15.58-1.95,21.81-5.8,6.22-3.84,11.12-9.2,14.58-15.94,3.44-6.71,5.19-14.45,5.19-23.01s-1.75-16.3-5.19-23.01c-3.45-6.73-8.32-12.14-14.48-16.1ZM576.12,239.86c0,6.31-1.18,11.86-3.51,16.47-2.32,4.59-5.61,8.23-9.76,10.82-4.16,2.59-8.95,3.9-14.24,3.9s-10.22-1.31-14.32-3.9c-4.1-2.59-7.33-6.23-9.6-10.82-2.28-4.61-3.43-10.16-3.43-16.48s1.16-11.73,3.44-16.4c2.27-4.65,5.5-8.31,9.59-10.9,4.1-2.59,8.92-3.9,14.32-3.9s10.08,1.31,14.24,3.9c4.15,2.59,7.43,6.26,9.76,10.9,2.33,4.67,3.52,10.19,3.52,16.39Z"/>
    <path class="cls-1" d="M665.13,199.3c-5.27-2.89-11.95-4.36-19.85-4.36-5.76,0-11.38,1.12-16.68,3.32-5.32,2.21-9.78,5.43-13.25,9.58-3.48,4.17-5.59,9.4-6.28,15.54l-.09.84h15.87l.11-.63c.85-5.01,3.16-8.84,6.87-11.38,3.76-2.57,8.28-3.88,13.45-3.88,4.41,0,8.14.87,11.08,2.57,2.92,1.7,5.18,4.26,6.72,7.61,1.49,3.23,2.28,7.29,2.35,12.06h-21.49c-7.42,0-13.95,1.06-19.42,3.15-5.52,2.1-9.85,5.22-12.88,9.28-3.04,4.07-4.59,9.09-4.59,14.92,0,4.79,1.16,9.28,3.44,13.33,2.29,4.07,5.83,7.38,10.51,9.83,4.66,2.44,10.51,3.68,17.41,3.68,3.85,0,7.35-.46,10.42-1.37,3.07-.91,5.81-2.15,8.15-3.69,2.34-1.54,4.42-3.39,6.18-5.5,1.16-1.38,2.19-2.84,3.08-4.36l.73,12.91h14.01v-52.94c0-7-1.32-13.16-3.93-18.32-2.63-5.19-6.64-9.29-11.94-12.2ZM665.44,242.96c-.03,3.6-.6,7.09-1.71,10.38-1.14,3.36-2.82,6.46-4.98,9.23-2.16,2.75-4.8,4.93-7.86,6.48-3.05,1.55-6.51,2.34-10.28,2.34s-6.86-.6-9.48-1.77c-2.59-1.16-4.56-2.81-5.86-4.9-1.31-2.09-1.98-4.61-1.98-7.46s.69-5.22,2.06-7.37c1.35-2.13,3.65-3.83,6.82-5.05,3.25-1.24,7.6-1.87,12.94-1.87h20.32Z"/>
    <path class="cls-1" d="M721.47,185c0-3.99.85-6.79,2.51-8.31,1.69-1.53,4.53-2.31,8.44-2.31h8.11v-13.55h-10.29c-5.21,0-9.68.84-13.28,2.49-3.66,1.68-6.45,4.33-8.3,7.86-1.83,3.5-2.76,8.03-2.76,13.48v12.29h-12.88v13.38h12.88v72.42h15.56v-72.42h21.24v-13.38h-21.24v-11.96Z"/>
    <polygon class="cls-1" points="821.76 196.96 793.33 260.22 766.58 197.42 766.38 196.96 749.5 196.96 783.29 273.4 787.47 273.4 766.89 319.56 783.26 319.56 837.49 198.02 837.96 196.96 821.76 196.96"/>
  </g>
</svg>