<?xml version="1.0" encoding="UTF-8"?>
<svg id="Camada_1" data-name="Camada 1" xmlns="http://www.w3.org/2000/svg" xmlns:xlink="http://www.w3.org/1999/xlink" viewBox="0 0 399.81 406.59">
  <defs>
    <style>
      .cls-1 {
        fill: url(#linear-gradient-8);
      }

      .cls-2 {
        fill: url(#linear-gradient-7);
      }

      .cls-3 {
        fill: url(#linear-gradient-5);
      }

      .cls-4 {
        fill: url(#linear-gradient-6);
      }

      .cls-5 {
        fill: url(#linear-gradient-9);
      }

      .cls-6 {
        fill: url(#linear-gradient-4);
      }

      .cls-7 {
        fill: url(#linear-gradient-3);
      }

      .Graphic_Style_3 {
        fill: url(#linear-gradient-2);
      }

      .Graphic_Style_2 {
        fill: url(#linear-gradient);
      }

      .cls-8 {
        fill: #59717c;
      }

      .cls-9 {
        fill: url(#linear-gradient-10);
      }

      .cls-10 {
        fill: url(#linear-gradient-11);
      }

      .cls-11 {
        fill: url(#linear-gradient-12);
      }

      .cls-12 {
        fill: url(#linear-gradient-13);
      }

      .cls-13 {
        fill: url(#linear-gradient-19);
      }

      .cls-14 {
        fill: url(#linear-gradient-14);
      }

      .cls-15 {
        fill: url(#linear-gradient-21);
      }

      .cls-16 {
        fill: url(#linear-gradient-20);
      }

      .cls-17 {
        fill: url(#linear-gradient-22);
      }

      .cls-18 {
        fill: url(#linear-gradient-23);
      }

      .cls-19 {
        fill: url(#linear-gradient-28);
      }

      .cls-20 {
        fill: url(#linear-gradient-25);
      }

      .cls-21 {
        fill: url(#linear-gradient-32);
      }

      .cls-22 {
        fill: url(#linear-gradient-31);
      }

      .cls-23 {
        fill: url(#linear-gradient-33);
      }

      .cls-24 {
        fill: url(#linear-gradient-30);
      }

      .cls-25 {
        fill: url(#linear-gradient-15);
      }

      .cls-26 {
        fill: url(#linear-gradient-16);
      }

      .cls-27 {
        fill: url(#linear-gradient-17);
      }

      .cls-28 {
        fill: url(#linear-gradient-18);
      }

      .cls-29 {
        fill: url(#linear-gradient-35);
      }

      .cls-30 {
        fill: url(#linear-gradient-34);
      }

      .cls-31 {
        fill: url(#linear-gradient-36);
      }

      .cls-32 {
        fill: url(#linear-gradient-27);
      }

      .cls-33 {
        fill: url(#linear-gradient-24);
      }

      .cls-34 {
        fill: url(#linear-gradient-26);
      }

      .cls-35 {
        fill: url(#linear-gradient-29);
      }

      .cls-36 {
        fill: url(#New_Gradient_Swatch_3);
      }

      .cls-37 {
        fill: url(#New_Gradient_Swatch_2);
      }

      .cls-38 {
        fill: #fce4cd;
      }

      .cls-39 {
        fill: #fccb88;
      }
    </style>
    <linearGradient id="linear-gradient" x1="284.61" y1="296.65" x2="284.61" y2="301.55" gradientUnits="userSpaceOnUse">
      <stop offset="0" stop-color="#5e6770"/>
      <stop offset=".53" stop-color="#3b4d57"/>
      <stop offset="1" stop-color="#2c444e"/>
    </linearGradient>
    <linearGradient id="linear-gradient-2" x1="199.91" y1="317.61" x2="199.91" y2="324.96" gradientUnits="userSpaceOnUse">
      <stop offset=".39" stop-color="#fcbf60"/>
      <stop offset="1" stop-color="#fb9f10"/>
    </linearGradient>
    <linearGradient id="linear-gradient-3" x1="199.91" y1="322.39" x2="199.91" y2="332.35" gradientUnits="userSpaceOnUse">
      <stop offset="0" stop-color="#b4cbd1"/>
      <stop offset=".16" stop-color="#afc6cd"/>
      <stop offset=".34" stop-color="#a1bbc3"/>
      <stop offset=".39" stop-color="#9bb6bf"/>
      <stop offset=".58" stop-color="#96b1ba"/>
      <stop offset=".8" stop-color="#88a3ac"/>
      <stop offset="1" stop-color="#76909a"/>
    </linearGradient>
    <linearGradient id="linear-gradient-4" x1="199.91" y1="309.45" x2="199.91" y2="320.18" gradientUnits="userSpaceOnUse">
      <stop offset="0" stop-color="#fcefe3"/>
      <stop offset=".33" stop-color="#fce4cd"/>
      <stop offset=".58" stop-color="#fce2c8"/>
      <stop offset=".87" stop-color="#fcdcba"/>
      <stop offset="1" stop-color="#fcd9b1"/>
    </linearGradient>
    <linearGradient id="linear-gradient-5" y1="302.83" y2="312.03" xlink:href="#linear-gradient-3"/>
    <linearGradient id="linear-gradient-6" x1="331.7" y1="291.71" x2="331.7" y2="296.1" xlink:href="#linear-gradient-3"/>
    <linearGradient id="linear-gradient-7" x1="290.81" y1="289.47" x2="290.81" y2="294.29" xlink:href="#linear-gradient-2"/>
    <linearGradient id="linear-gradient-8" x1="292.13" y1="288.2" x2="292.13" y2="290.51" xlink:href="#linear-gradient-3"/>
    <linearGradient id="linear-gradient-9" x1="321.92" y1="336.23" x2="321.92" y2="345.2" xlink:href="#linear-gradient"/>
    <linearGradient id="linear-gradient-10" x1="321.85" y1="344.05" x2="321.85" y2="348.04" xlink:href="#linear-gradient-4"/>
    <linearGradient id="linear-gradient-11" x1="322.28" y1="346.9" x2="322.28" y2="351.16" xlink:href="#linear-gradient-3"/>
    <linearGradient id="linear-gradient-12" x1="325.93" y1="67.03" x2="325.93" y2="74.1" gradientUnits="userSpaceOnUse">
      <stop offset=".43" stop-color="#b4cbd1"/>
      <stop offset=".47" stop-color="#b1c9cf"/>
      <stop offset="1" stop-color="#98bac2"/>
    </linearGradient>
    <linearGradient id="linear-gradient-13" x1="294.54" y1="61.16" x2="294.54" y2="67.03" xlink:href="#linear-gradient-12"/>
    <linearGradient id="linear-gradient-14" x1="297.48" y1="291.71" x2="297.48" y2="296.1" xlink:href="#linear-gradient-3"/>
    <linearGradient id="linear-gradient-15" x1="276.1" y1="291.71" x2="276.1" y2="296.1" xlink:href="#linear-gradient-3"/>
    <linearGradient id="linear-gradient-16" x1="254.22" y1="55.43" x2="254.22" y2="61.16" xlink:href="#linear-gradient-12"/>
    <linearGradient id="linear-gradient-17" x1="243.19" y1="291.71" x2="243.19" y2="296.1" xlink:href="#linear-gradient-3"/>
    <linearGradient id="linear-gradient-18" x1="141.12" y1="336.23" x2="141.12" y2="343.76" xlink:href="#linear-gradient"/>
    <linearGradient id="linear-gradient-19" y1="222.32" y2="289.06" xlink:href="#linear-gradient-2"/>
    <linearGradient id="linear-gradient-20" x1="200.35" y1="288.2" x2="200.35" y2="290.51" xlink:href="#linear-gradient-3"/>
    <linearGradient id="linear-gradient-21" x1="199.96" y1="296.65" x2="199.96" y2="301.24" xlink:href="#linear-gradient-3"/>
    <linearGradient id="linear-gradient-22" y1="222.32" y2="289.06" xlink:href="#linear-gradient-2"/>
    <linearGradient id="linear-gradient-23" x1="202.65" y1="298.97" x2="202.65" y2="302.15" xlink:href="#linear-gradient"/>
    <linearGradient id="linear-gradient-24" x1="199.91" y1="55.43" x2="199.91" y2="61.16" xlink:href="#linear-gradient-12"/>
    <linearGradient id="linear-gradient-25" x1="177.65" x2="177.65" xlink:href="#linear-gradient"/>
    <linearGradient id="linear-gradient-26" x1="164.63" y1="291.71" x2="164.63" y2="296.1" xlink:href="#linear-gradient-3"/>
    <linearGradient id="linear-gradient-27" x1="113.58" y1="289.47" x2="113.58" y2="294.29" xlink:href="#linear-gradient-2"/>
    <linearGradient id="linear-gradient-28" x1="111.76" y1="288.2" x2="111.76" y2="290.51" xlink:href="#linear-gradient-3"/>
    <linearGradient id="linear-gradient-29" x1="144.2" x2="144.2" xlink:href="#linear-gradient"/>
    <linearGradient id="linear-gradient-30" x1="144.59" y1="55.43" x2="144.59" y2="61.62" xlink:href="#linear-gradient-12"/>
    <linearGradient id="New_Gradient_Swatch_3" data-name="New Gradient Swatch 3" x1="199.91" y1="61.16" x2="199.91" y2="287.42" gradientUnits="userSpaceOnUse">
      <stop offset="0" stop-color="#59717c"/>
      <stop offset=".3" stop-color="#9bb6bf"/>
      <stop offset=".34" stop-color="#a5b9bd"/>
      <stop offset=".45" stop-color="#c4c5b8"/>
      <stop offset=".57" stop-color="#ddcdb5"/>
      <stop offset=".7" stop-color="#eed4b2"/>
      <stop offset=".84" stop-color="#f8d7b1"/>
      <stop offset="1" stop-color="#fcd9b1"/>
    </linearGradient>
    <linearGradient id="New_Gradient_Swatch_2" data-name="New Gradient Swatch 2" x1="199.91" y1="61.16" x2="199.91" y2="287.42" gradientUnits="userSpaceOnUse">
      <stop offset="0" stop-color="#9bb6bf"/>
      <stop offset=".05" stop-color="#a5bbc0"/>
      <stop offset=".21" stop-color="#c4c9c5"/>
      <stop offset=".39" stop-color="#ddd5c8"/>
      <stop offset=".57" stop-color="#eeddcb"/>
      <stop offset=".76" stop-color="#f8e2cc"/>
      <stop offset="1" stop-color="#fce4cd"/>
    </linearGradient>
    <linearGradient id="linear-gradient-31" x1="125.07" y1="291.71" x2="125.07" y2="296.1" xlink:href="#linear-gradient-3"/>
    <linearGradient id="linear-gradient-32" x1="105.26" x2="105.26" xlink:href="#linear-gradient"/>
    <linearGradient id="linear-gradient-33" x1="87.84" y1="55.87" x2="87.84" xlink:href="#linear-gradient-12"/>
    <linearGradient id="linear-gradient-34" x1="88.86" y1="291.71" x2="88.86" y2="296.1" xlink:href="#linear-gradient-3"/>
    <linearGradient id="linear-gradient-35" x1="66.85" x2="66.85" xlink:href="#linear-gradient"/>
    <linearGradient id="linear-gradient-36" x1="64.34" y1="291.71" x2="64.34" y2="296.1" xlink:href="#linear-gradient-3"/>
  </defs>
  <path class="cls-8" d="M355.4,331.71v1.64c0,1.85-.28,3.63-.8,5.31-3.76-.54-4.46-2.43-9.43-2.43-5.79,0-5.79,2.58-11.57,2.58s-5.78-2.58-11.56-2.58-5.79,2.58-11.57,2.58-5.78-2.58-11.56-2.58c-5.07,0-5.7,1.98-9.67,2.46-.39-1.22-.64-2.49-.75-3.81h-52.43c-.09,0-.18,0-.27,0-.45.77-.95,1.51-1.5,2.2h0c-1.17-.47-2.54-.85-4.75-.85-5.78,0-5.78,2.58-11.56,2.58s-5.78-2.58-11.57-2.58-5.78,2.58-11.56,2.58-5.79-2.58-11.57-2.58-5.78,2.58-11.56,2.58-5.78-2.58-11.56-2.58-5.78,2.58-11.56,2.58-5.78-2.58-11.56-2.58-5.78,2.58-11.56,2.58-5.78-2.58-11.56-2.58-5.78,2.58-11.56,2.58-5.78-2.58-11.56-2.58-5.78,2.58-11.56,2.58-5.78-2.58-11.56-2.58-5.78,2.58-11.56,2.58c-4.34,0-5.42-1.45-8.13-2.17h0c-1.5-2-2.59-4.33-3.14-6.86,9.82.05,9.92,2.57,19.94,2.57s10.12-2.58,20.24-2.58,10.12,2.58,20.23,2.58,10.12-2.58,20.23-2.58,10.12,2.58,20.23,2.58,10.12-2.58,20.24-2.58,10.12,2.58,20.23,2.58,10.12-2.58,20.24-2.58,10.12,2.58,20.24,2.58,10.12-2.58,20.23-2.58,10.12,2.58,20.24,2.58,10.12-2.58,20.23-2.58,10.12,2.58,20.24,2.58,10.12-2.58,20.24-2.58,10.12,2.58,20.24,2.58c3.28,0,5.49-.27,7.34-.64Z"/>
  <path class="cls-7" d="M355.4,324.91v6.8c-1.84.36-4.06.64-7.34.64-10.12,0-10.12-2.58-20.24-2.58s-10.12,2.58-20.24,2.58-10.12-2.58-20.24-2.58-10.12,2.58-20.23,2.58-10.12-2.58-20.24-2.58-10.12,2.58-20.23,2.58-10.12-2.58-20.24-2.58-10.12,2.58-20.24,2.58-10.12-2.58-20.23-2.58-10.12,2.58-20.24,2.58-10.12-2.58-20.23-2.58-10.12,2.58-20.23,2.58-10.12-2.58-20.23-2.58-10.12,2.58-20.24,2.58-10.12-2.52-19.94-2.57c-.27-1.23-.41-2.51-.41-3.82v-3.57h.12c5.78,0,5.78,2.58,11.56,2.58s5.78-2.58,11.56-2.58,5.78,2.58,11.56,2.58,5.78-2.58,11.56-2.58,5.78,2.58,11.56,2.58,5.78-2.58,11.56-2.58,5.78,2.58,11.56,2.58,5.78-2.58,11.56-2.58,5.78,2.58,11.56,2.58,5.78-2.58,11.56-2.58,5.78,2.58,11.56,2.58,5.78-2.58,11.56-2.58,5.78,2.58,11.57,2.58,5.78-2.58,11.56-2.58,5.79,2.58,11.57,2.58,5.78-2.58,11.56-2.58,5.78,2.58,11.56,2.58,5.78-2.58,11.56-2.58,5.78,2.58,11.56,2.58,5.78-2.58,11.56-2.58,5.78,2.58,11.56,2.58,5.78-2.58,11.56-2.58,5.78,2.58,11.56,2.58,5.78-2.58,11.57-2.58,5.78,2.58,11.56,2.58,5.78-2.58,11.57-2.58c5.3,0,5.74,2.16,10.23,2.52Z"/>
  <path class="Graphic_Style_3" d="M355.4,320.13v4.78c-4.49-.36-4.93-2.52-10.23-2.52-5.79,0-5.79,2.58-11.57,2.58s-5.78-2.58-11.56-2.58-5.79,2.58-11.57,2.58-5.78-2.58-11.56-2.58-5.78,2.58-11.56,2.58-5.78-2.58-11.56-2.58-5.78,2.58-11.56,2.58-5.78-2.58-11.56-2.58-5.78,2.58-11.56,2.58-5.78-2.58-11.56-2.58-5.78,2.58-11.56,2.58-5.78-2.58-11.57-2.58-5.78,2.58-11.56,2.58-5.79-2.58-11.57-2.58-5.78,2.58-11.56,2.58-5.78-2.58-11.56-2.58-5.78,2.58-11.56,2.58-5.78-2.58-11.56-2.58-5.78,2.58-11.56,2.58-5.78-2.58-11.56-2.58-5.78,2.58-11.56,2.58-5.78-2.58-11.56-2.58-5.78,2.58-11.56,2.58-5.78-2.58-11.56-2.58-5.78,2.58-11.56,2.58-5.78-2.58-11.56-2.58h-.12v-4.78h.12c5.78,0,5.78,2.58,11.56,2.58s5.78-2.58,11.56-2.58,5.78,2.58,11.56,2.58,5.78-2.58,11.56-2.58,5.78,2.58,11.56,2.58,5.78-2.58,11.56-2.58,5.78,2.58,11.56,2.58,5.78-2.58,11.56-2.58,5.78,2.58,11.56,2.58,5.78-2.58,11.56-2.58,5.78,2.58,11.56,2.58,5.78-2.58,11.56-2.58,5.78,2.58,11.57,2.58,5.78-2.58,11.56-2.58,5.79,2.58,11.57,2.58,5.78-2.58,11.56-2.58,5.78,2.58,11.56,2.58,5.78-2.58,11.56-2.58,5.78,2.58,11.56,2.58,5.78-2.58,11.56-2.58,5.78,2.58,11.56,2.58,5.78-2.58,11.56-2.58,5.78,2.58,11.56,2.58,5.78-2.58,11.57-2.58,5.78,2.58,11.56,2.58,5.78-2.58,11.57-2.58c5.3,0,5.74,2.16,10.23,2.52Z"/>
  <path class="cls-6" d="M355.4,311.76v8.37c-4.49-.36-4.93-2.52-10.23-2.52-5.79,0-5.79,2.58-11.57,2.58s-5.78-2.58-11.56-2.58-5.79,2.58-11.57,2.58-5.78-2.58-11.56-2.58-5.78,2.58-11.56,2.58-5.78-2.58-11.56-2.58-5.78,2.58-11.56,2.58-5.78-2.58-11.56-2.58-5.78,2.58-11.56,2.58-5.78-2.58-11.56-2.58-5.78,2.58-11.56,2.58-5.78-2.58-11.57-2.58-5.78,2.58-11.56,2.58-5.79-2.58-11.57-2.58-5.78,2.58-11.56,2.58-5.78-2.58-11.56-2.58-5.78,2.58-11.56,2.58-5.78-2.58-11.56-2.58-5.78,2.58-11.56,2.58-5.78-2.58-11.56-2.58-5.78,2.58-11.56,2.58-5.78-2.58-11.56-2.58-5.78,2.58-11.56,2.58-5.78-2.58-11.56-2.58-5.78,2.58-11.56,2.58-5.78-2.58-11.56-2.58h-.12v-6.43c.96.47,2.09.85,3.92.85,4.76,0,4.76-2.58,9.52-2.58s4.76,2.58,9.52,2.58,4.76-2.58,9.52-2.58,4.76,2.58,9.52,2.58,4.76-2.58,9.52-2.58,4.76,2.58,9.52,2.58,4.76-2.58,9.52-2.58,4.76,2.58,9.52,2.58,4.76-2.58,9.52-2.58,4.76,2.58,9.52,2.58,4.76-2.58,9.52-2.58,4.76,2.58,9.52,2.58,4.76-2.58,9.52-2.58,4.76,2.58,9.52,2.58,4.76-2.58,9.52-2.58,4.76,2.58,9.52,2.58,4.76-2.58,9.52-2.58,4.76,2.58,9.52,2.58,4.76-2.58,9.52-2.58,4.76,2.58,9.52,2.58,4.76-2.58,9.52-2.58,4.76,2.58,9.52,2.58,4.76-2.58,9.52-2.58,4.76,2.58,9.52,2.58,4.76-2.58,9.52-2.58,4.76,2.58,9.52,2.58,4.76-2.58,9.52-2.58,4.76,2.58,9.52,2.58,4.76-2.58,9.52-2.58,4.76,2.58,9.52,2.58,4.76-2.58,9.52-2.58,4.76,2.58,9.53,2.58c.94,0,1.69-.1,2.33-.26Z"/>
  <path class="cls-3" d="M355.4,305.35v6.41c-.64.16-1.39.26-2.33.26-4.76,0-4.76-2.58-9.53-2.58s-4.76,2.58-9.52,2.58-4.76-2.58-9.52-2.58-4.76,2.58-9.52,2.58-4.76-2.58-9.52-2.58-4.76,2.58-9.52,2.58-4.76-2.58-9.52-2.58-4.76,2.58-9.52,2.58-4.76-2.58-9.52-2.58-4.76,2.58-9.52,2.58-4.76-2.58-9.52-2.58-4.76,2.58-9.52,2.58-4.76-2.58-9.52-2.58-4.76,2.58-9.52,2.58-4.76-2.58-9.52-2.58-4.76,2.58-9.52,2.58-4.76-2.58-9.52-2.58-4.76,2.58-9.52,2.58-4.76-2.58-9.52-2.58-4.76,2.58-9.52,2.58-4.76-2.58-9.52-2.58-4.76,2.58-9.52,2.58-4.76-2.58-9.52-2.58-4.76,2.58-9.52,2.58-4.76-2.58-9.52-2.58-4.76,2.58-9.52,2.58-4.76-2.58-9.52-2.58-4.76,2.58-9.52,2.58-4.76-2.58-9.52-2.58-4.76,2.58-9.52,2.58-4.76-2.58-9.52-2.58-4.76,2.58-9.52,2.58c-1.83,0-2.96-.38-3.92-.85v-1.78c0-2.3.44-4.51,1.24-6.53,4.69.3,5.06,2.54,10.44,2.54,5.78,0,5.78-2.58,11.56-2.58s5.78,2.58,11.56,2.58,5.78-2.58,11.56-2.58,5.78,2.58,11.56,2.58,5.78-2.58,11.56-2.58,5.78,2.58,11.56,2.58,5.78-2.58,11.56-2.58,5.78,2.58,11.56,2.58,5.78-2.58,11.56-2.58,5.78,2.58,11.56,2.58,5.78-2.58,11.56-2.58,5.78,2.58,11.57,2.58c5.06,0,5.69-1.97,9.64-2.46.57-.07,1.2-.11,1.92-.11,5.79,0,5.79,2.58,11.57,2.58s5.78-2.58,11.56-2.58,5.78,2.58,11.56,2.58,5.78-2.58,11.56-2.58,5.78,2.58,11.56,2.58,5.78-2.58,11.56-2.58,5.78,2.58,11.56,2.58,5.78-2.58,11.56-2.58,5.78,2.58,11.56,2.58,5.78-2.58,11.57-2.58,5.78,2.58,11.56,2.58,5.78-2.58,11.57-2.58c5.3,0,5.74,2.16,10.23,2.52Z"/>
  <path class="cls-8" d="M355.4,300.91v4.44c-4.49-.36-4.93-2.52-10.23-2.52-5.79,0-5.79,2.58-11.57,2.58s-5.78-2.58-11.56-2.58-5.79,2.58-11.57,2.58-5.78-2.58-11.56-2.58-5.78,2.58-11.56,2.58-5.78-2.58-11.56-2.58-5.78,2.58-11.56,2.58-5.78-2.58-11.56-2.58-5.78,2.58-11.56,2.58-5.78-2.58-11.56-2.58-5.78,2.58-11.56,2.58-5.78-2.58-11.57-2.58c-.72,0-1.35.04-1.92.11l-.12-1.04c3.3-.37,6.47-1.15,9.46-2.28,3.79.77,6.03,1.93,12.82,1.93,10.12,0,10.12-2.58,20.23-2.58s10.12,2.58,20.24,2.58,10.12-2.58,20.23-2.58,10.12,2.58,20.24,2.58,10.12-2.58,20.24-2.58,10.12,2.58,20.24,2.58c3.28,0,5.49-.27,7.34-.64Z"/>
  <path class="Graphic_Style_2" d="M355.4,297.67v3.24c-1.84.36-4.06.64-7.34.64-10.12,0-10.12-2.58-20.24-2.58s-10.12,2.58-20.24,2.58-10.12-2.58-20.24-2.58-10.12,2.58-20.23,2.58-10.12-2.58-20.24-2.58-10.12,2.58-20.23,2.58c-6.79,0-9.03-1.16-12.82-1.93,1.46-.55,2.86-1.18,4.23-1.88.49.03,1.04.06,1.68.06,4.76,0,4.76-1.15,9.52-1.15s4.76,1.15,9.52,1.15,4.76-1.15,9.52-1.15,4.76,1.15,9.52,1.15,4.76-1.15,9.52-1.15,4.76,1.15,9.52,1.15,4.76-1.15,9.52-1.15,4.76,1.15,9.52,1.15,4.76-1.15,9.52-1.15,4.76,1.15,9.52,1.15,4.76-1.15,9.52-1.15,4.76,1.15,9.52,1.15,4.76-1.15,9.52-1.15,4.76,1.15,9.53,1.15c.94,0,1.69-.04,2.33-.12Z"/>
  <path class="cls-8" d="M355.4,295.98v1.7c-.64.08-1.39.12-2.33.12-4.76,0-4.76-1.15-9.53-1.15s-4.76,1.15-9.52,1.15-4.76-1.15-9.52-1.15-4.76,1.15-9.52,1.15-4.76-1.15-9.52-1.15-4.76,1.15-9.52,1.15-4.76-1.15-9.52-1.15-4.76,1.15-9.52,1.15-4.76-1.15-9.52-1.15-4.76,1.15-9.52,1.15-4.76-1.15-9.52-1.15-4.76,1.15-9.52,1.15-4.76-1.15-9.52-1.15-4.76,1.15-9.52,1.15c-.64,0-1.19-.02-1.68-.06.99-.52,1.96-1.07,2.9-1.67h0c3.58-.18,3.98-1.12,8.3-1.12,4.76,0,4.76,1.15,9.52,1.15s4.76-1.15,9.52-1.15,4.76,1.15,9.52,1.15c4.02,0,4.64-.82,7.6-1.07.55-.05,1.18-.08,1.92-.08,4.76,0,4.76,1.15,9.52,1.15s4.76-1.15,9.52-1.15c.15,0,.28,0,.42,0,4.34.06,4.49,1.14,9.1,1.14s4.76-1.15,9.52-1.15c1.06,0,1.88.06,2.57.15,2.43.3,3.25,1,6.95,1,4.76,0,4.76-1.15,9.52-1.15s4.76,1.15,9.52,1.15,4.76-1.15,9.52-1.15,4.76,1.15,9.53,1.15c.94,0,1.69-.04,2.33-.12Z"/>
  <path class="cls-4" d="M355.4,294.24v1.74c-.64.08-1.39.12-2.33.12-4.76,0-4.76-1.15-9.53-1.15s-4.76,1.15-9.52,1.15-4.76-1.15-9.52-1.15-4.76,1.15-9.52,1.15c-3.7,0-4.52-.7-6.95-1l.13-.98c.67.1,1.42.17,2.33.17,5.78,0,5.78-2.58,11.57-2.58s5.78,2.58,11.56,2.58,5.78-2.58,11.57-2.58c5.3,0,5.74,2.16,10.23,2.52Z"/>
  <path class="cls-2" d="M355.4,290.48v3.75c-4.49-.36-4.93-2.52-10.23-2.52-5.79,0-5.79,2.58-11.57,2.58s-5.78-2.58-11.56-2.58-5.79,2.58-11.57,2.58c-.91,0-1.67-.06-2.33-.17-3.59-.58-4.35-2.41-9.23-2.41-5.78,0-5.78,2.58-11.56,2.58-.18,0-.36,0-.52,0-5.26-.15-5.44-2.57-11.04-2.57s-5.75,2.22-10.41,2.54c-.36.03-.74.04-1.15.04-5.78,0-5.78-2.58-11.56-2.58s-5.78,2.58-11.56,2.58-5.78-2.58-11.56-2.58c-1.38,0-2.43.15-3.31.37.93-.82,1.81-1.7,2.64-2.61.21,0,.43,0,.67,0,5.78,0,5.78,1.03,11.56,1.03s5.78-1.03,11.56-1.03,5.78,1.03,11.56,1.03,5.78-1.03,11.56-1.03,5.78,1.03,11.56,1.03,5.78-1.03,11.56-1.03,5.78,1.03,11.56,1.03,5.78-1.03,11.57-1.03,5.78,1.03,11.56,1.03,5.78-1.03,11.57-1.03c5.3,0,5.74.87,10.23,1.01Z"/>
  <path class="cls-1" d="M355.4,289.21v1.27c-4.49-.15-4.93-1.01-10.23-1.01-5.79,0-5.79,1.03-11.57,1.03s-5.78-1.03-11.56-1.03-5.79,1.03-11.57,1.03-5.78-1.03-11.56-1.03-5.78,1.03-11.56,1.03-5.78-1.03-11.56-1.03-5.78,1.03-11.56,1.03-5.78-1.03-11.56-1.03-5.78,1.03-11.56,1.03-5.78-1.03-11.56-1.03c-.23,0-.45,0-.67,0,.39-.42.77-.84,1.13-1.27,5.32.05,5.47,1.03,11.1,1.03s5.78-1.03,11.56-1.03,5.78,1.03,11.56,1.03,5.78-1.03,11.56-1.03,5.78,1.03,11.56,1.03,5.78-1.03,11.56-1.03,5.78,1.03,11.56,1.03,5.78-1.03,11.57-1.03,5.78,1.03,11.56,1.03,5.78-1.03,11.57-1.03c5.3,0,5.74.87,10.23,1.01Z"/>
  <path class="cls-8" d="M355.4,287.42v1.79c-4.49-.15-4.93-1.01-10.23-1.01-5.79,0-5.79,1.03-11.57,1.03s-5.78-1.03-11.56-1.03v-.78h33.36Z"/>
  <path class="cls-8" d="M351.65,73.92c.06.06.1.13.15.2-.15,0-.3,0-.44,0h-23.37l4.81-7.08h4.79c.15,0,.3,0,.46,0,.22,0,.44.02.66.03.08,0,.16.01.24.02.11,0,.22.02.33.03.14.01.28.03.42.04.09,0,.17.02.25.03.12.02.24.03.35.05.15.02.29.05.44.07,1.76.31,3.42.88,4.95,1.67.13.06.26.13.38.2.06.03.12.06.18.1.23.13.46.26.69.4.11.07.23.14.34.21.12.08.24.16.36.24.1.07.2.14.29.21.21.15.43.31.64.48.1.08.21.16.31.25.2.17.4.34.6.52.03.02.05.04.07.06.17.16.34.32.51.48.19.18.37.38.55.57.11.11.21.22.31.34.07.09.15.17.21.25.1.12.2.24.3.36.07.09.14.18.21.26Z"/>
  <path class="cls-5" d="M345.17,336.23c4.97,0,5.67,1.9,9.43,2.43-.75,2.41-2,4.6-3.63,6.44-2.81-.27-3.49-1.05-7.43-1.05-4.76,0-4.76,1.15-9.52,1.15s-4.76-1.15-9.52-1.15-4.76,1.15-9.52,1.15-4.76-1.15-9.52-1.15-4.76,1.15-9.52,1.15c-1.39,0-2.37-.1-3.19-.24-1.56-1.81-2.76-3.94-3.49-6.27,3.97-.49,4.6-2.46,9.67-2.46,5.78,0,5.78,2.58,11.56,2.58s5.78-2.58,11.57-2.58,5.78,2.58,11.56,2.58,5.78-2.58,11.57-2.58Z"/>
  <path class="cls-9" d="M350.97,345.11c-.77.88-1.63,1.68-2.55,2.39-1.23-.3-2.42-.6-4.88-.6-4.76,0-4.76,1.15-9.52,1.15s-4.76-1.15-9.52-1.15-4.76,1.15-9.52,1.15-4.76-1.15-9.52-1.15-4.76,1.11-9.29,1.14c-1.27-.88-2.42-1.91-3.43-3.07.82.14,1.8.24,3.19.24,4.76,0,4.76-1.15,9.52-1.15s4.76,1.15,9.52,1.15,4.76-1.15,9.52-1.15,4.76,1.15,9.52,1.15,4.76-1.15,9.52-1.15c3.94,0,4.62.79,7.43,1.05Z"/>
  <path class="cls-10" d="M343.53,346.9c2.46,0,3.65.3,4.88.6-3,2.3-6.75,3.67-10.82,3.67h-31.37c-3.74,0-7.21-1.15-10.07-3.12,4.53-.03,4.61-1.14,9.29-1.14s4.76,1.15,9.52,1.15,4.76-1.15,9.52-1.15,4.76,1.15,9.52,1.15,4.76-1.15,9.52-1.15Z"/>
  <path class="cls-11" d="M332.8,67.03l-4.81,7.08h-4.39c-1-2.68-2.56-5.09-4.54-7.08h13.73Z"/>
  <path class="cls-8" d="M322.04,287.42v.78c-5.79,0-5.79,1.03-11.57,1.03s-5.78-1.03-11.56-1.03v-.78h23.13Z"/>
  <path class="cls-12" d="M319.06,67.03h-45.44c-.16-.42-.33-.84-.52-1.24-.08-.18-.17-.36-.26-.55-.16-.33-.34-.65-.53-.96-.07-.12-.14-.25-.22-.37-.07-.12-.15-.24-.23-.36-.07-.12-.15-.24-.24-.36-.16-.24-.33-.47-.51-.7-.08-.11-.16-.22-.25-.33,0,0,0-.02-.03-.03-.17-.22-.35-.43-.54-.64-.09-.11-.18-.21-.29-.32h34.96c5.51,0,10.49,2.24,14.09,5.86Z"/>
  <path class="cls-14" d="M308.14,294.12l-.13.98c-.69-.09-1.52-.15-2.57-.15-4.76,0-4.76,1.15-9.52,1.15s-4.76-1.08-9.1-1.14v-.68c.18,0,.35,0,.53,0,5.78,0,5.78-2.58,11.56-2.58,4.88,0,5.64,1.83,9.23,2.41Z"/>
  <path class="cls-8" d="M298.91,287.42v.78c-5.78,0-5.78,1.03-11.56,1.03s-5.78-1.03-11.56-1.03v-.78h23.13Z"/>
  <path class="cls-25" d="M286.82,294.28v.68c-.15,0-.28,0-.43,0-4.76,0-4.76,1.15-9.52,1.15s-4.76-1.15-9.52-1.15c-.74,0-1.37.03-1.92.08l-.06-.78c4.66-.31,5.04-2.54,10.41-2.54s5.78,2.42,11.04,2.57Z"/>
  <path class="cls-8" d="M275.78,287.42v.78c-5.78,0-5.78,1.03-11.56,1.03s-5.78-1.03-11.56-1.03v-.78h23.13Z"/>
  <path class="cls-26" d="M270.02,61.16h-31.6c.38-2,.75-3.91,1.1-5.74h17.42c.17,0,.33,0,.49,0,.12,0,.25,0,.37.01.18,0,.37.02.55.03s.37.03.55.06c.1,0,.2.02.3.03.1,0,.19.02.29.04.1.01.19.03.29.04.23.04.46.08.7.13.15.03.3.06.44.09.08.02.16.03.24.06.15.03.3.07.45.12.14.03.27.07.41.12.03,0,.06.02.09.03.13.04.25.08.38.12.23.08.45.15.68.24.13.05.26.09.38.15.22.08.43.18.64.27.14.06.27.12.41.19.27.13.55.27.81.41.13.07.26.14.39.22,0,0,0,0,.01,0,.13.07.26.15.38.23.26.15.51.31.76.49.12.09.25.17.37.26.12.09.24.18.36.27.12.09.24.18.35.27.7.57,1.36,1.18,1.97,1.84Z"/>
  <path class="cls-27" d="M265.37,294.25l.06.78c-2.96.25-3.58,1.07-7.6,1.07-4.76,0-4.76-1.15-9.52-1.15s-4.76,1.15-9.52,1.15-4.76-1.15-9.52-1.15c-4.32,0-4.72.94-8.3,1.12,1.87-1.18,3.63-2.51,5.26-3.98.88-.23,1.93-.37,3.31-.37,5.78,0,5.78,2.58,11.56,2.58s5.78-2.58,11.56-2.58,5.78,2.58,11.56,2.58c.41,0,.79-.01,1.15-.04Z"/>
  <path class="cls-8" d="M252.66,287.42v.78c-5.78,0-5.78,1.03-11.56,1.03s-5.78-.98-11.1-1.03c.22-.26.44-.52.65-.79h22.01Z"/>
  <path class="cls-38" d="M242.9,259.56c.07,1.04.11,2.09.11,3.14s-.04,2.11-.12,3.15c-.12,1.67-.34,3.33-.64,4.94-.4,2.08-.94,4.11-1.63,6.07-.55,1.58-1.19,3.12-1.91,4.61-.92,1.9-1.97,3.71-3.15,5.44l.73.5h-5.65c5.45-6.76,8.7-15.36,8.7-24.71,0-21.78-17.66-39.44-39.44-39.44s-39.44,17.66-39.44,39.44c0,9.36,3.26,17.95,8.7,24.71h-5.65c.21-.15.52-.35.73-.5-1.18-1.73-2.23-3.55-3.15-5.44-.73-1.49-1.36-3.03-1.91-4.61-.68-1.97-1.23-3.99-1.62-6.07-.31-1.62-.53-3.27-.65-4.95-.07-1.03-.12-2.08-.12-3.14s.04-2.1.11-3.14c.12-1.68.34-3.33.65-4.95.39-2.08.94-4.11,1.62-6.07.55-1.58,1.19-3.12,1.91-4.61.92-1.9,1.97-3.71,3.15-5.44.94-1.38,1.95-2.7,3.04-3.96,1.37-1.59,2.86-3.07,4.45-4.45,1.26-1.09,2.58-2.1,3.96-3.04,1.73-1.18,3.55-2.23,5.44-3.15,1.49-.73,3.03-1.36,4.61-1.91,1.96-.69,3.99-1.23,6.07-1.63,1.62-.3,3.27-.52,4.95-.64,1.04-.08,2.09-.12,3.14-.12s2.1.04,3.14.12c1.68.12,3.33.34,4.95.64,2.08.4,4.11.94,6.07,1.63,1.58.55,3.12,1.18,4.61,1.91,1.9.92,3.72,1.97,5.44,3.15,1.38.94,2.7,1.95,3.96,3.04,1.59,1.37,3.07,2.86,4.45,4.45,1.09,1.26,2.1,2.58,3.04,3.96,1.18,1.73,2.23,3.55,3.15,5.44.72,1.49,1.36,3.03,1.91,4.61.68,1.97,1.23,3.99,1.62,6.07.3,1.62.52,3.27.65,4.95Z"/>
  <path class="cls-8" d="M215.06,55.43h24.45c-.35,1.83-.72,3.74-1.1,5.74h-23.77l.42-5.74Z"/>
  <path class="cls-28" d="M229.53,336.23c2.21,0,3.58.38,4.75.85-3.26,4.08-8.28,6.69-13.9,6.69H62.22c-5.83,0-11.01-2.8-14.25-7.13,2.7.73,3.79,2.17,8.13,2.17,5.78,0,5.78-2.58,11.56-2.58s5.78,2.58,11.56,2.58,5.78-2.58,11.56-2.58,5.78,2.58,11.56,2.58,5.78-2.58,11.56-2.58,5.78,2.58,11.56,2.58,5.78-2.58,11.56-2.58,5.78,2.58,11.56,2.58,5.78-2.58,11.56-2.58,5.78,2.58,11.56,2.58,5.78-2.58,11.56-2.58,5.78,2.58,11.57,2.58,5.78-2.58,11.56-2.58,5.79,2.58,11.57,2.58,5.78-2.58,11.56-2.58Z"/>
  <path class="cls-13" d="M239.35,262.71c0,9.36-3.26,17.95-8.7,24.71h-61.48c-5.45-6.76-8.7-15.36-8.7-24.71,0-21.78,17.66-39.44,39.44-39.44s39.44,17.66,39.44,39.44ZM214.71,262.71c0-8.17-6.63-14.8-14.8-14.8s-14.8,6.63-14.8,14.8,6.63,14.8,14.8,14.8,14.8-6.63,14.8-14.8Z"/>
  <path class="cls-8" d="M206.4,287.42h24.25c-.21.27-.42.53-.65.79-.15,0-.31,0-.47,0-5.78,0-5.78,1.03-11.56,1.03s-5.78-1.03-11.57-1.03v-.78Z"/>
  <path class="cls-16" d="M229.53,288.2c.16,0,.32,0,.47,0-.36.43-.74.86-1.13,1.27-5.12.07-5.35,1.03-10.9,1.03s-5.78-1.03-11.57-1.03-5.78,1.03-11.56,1.03-5.79-1.03-11.57-1.03-5.78,1.01-11.35,1.03c-.42-.42-.82-.85-1.22-1.28.31,0,.65.01,1,.01,5.78,0,5.78-1.03,11.56-1.03s5.78,1.03,11.57,1.03,5.78-1.03,11.56-1.03,5.79,1.03,11.57,1.03,5.78-1.03,11.56-1.03Z"/>
  <path class="cls-39" d="M228.86,289.48c-.83.91-1.72,1.78-2.64,2.61-2.8.71-3.85,2.2-8.25,2.2-5.78,0-5.78-2.58-11.57-2.58s-5.78,2.58-11.56,2.58c-.54,0-1.03-.02-1.49-.06-4.35-.39-4.84-2.51-10.08-2.51-4.09,0-5.29,1.29-7.7,2.04-1.28-1-2.51-2.09-3.65-3.25,5.57-.03,5.64-1.03,11.35-1.03s5.78,1.03,11.57,1.03,5.78-1.03,11.56-1.03,5.79,1.03,11.57,1.03,5.77-.95,10.9-1.03Z"/>
  <path class="cls-8" d="M217.97,294.29c4.4,0,5.45-1.49,8.25-2.2-1.64,1.47-3.4,2.8-5.26,3.98h0c-.37.02-.78.03-1.22.03-4.76,0-4.76-1.15-9.52-1.15s-4.76,1.15-9.52,1.15c-3.93,0-4.62-.78-7.41-1.05l.08-.82c.45.04.94.06,1.49.06,5.78,0,5.78-2.58,11.56-2.58s5.79,2.58,11.57,2.58Z"/>
  <path class="cls-39" d="M219.73,296.1c.45,0,.85,0,1.22-.03-.94.6-1.91,1.15-2.9,1.67-3.17-.23-3.72-1.09-7.85-1.09-4.76,0-4.76,1.15-9.52,1.15s-4.76-1.15-9.52-1.15-4.76,1.11-9.3,1.14c-1.13-.58-2.24-1.22-3.3-1.91.79.13,1.76.22,3.09.22,4.76,0,4.76-1.15,9.52-1.15.84,0,1.52.03,2.12.09,2.79.27,3.48,1.05,7.41,1.05,4.76,0,4.76-1.15,9.52-1.15s4.76,1.15,9.52,1.15Z"/>
  <path class="cls-15" d="M210.21,296.65c4.13,0,4.68.86,7.85,1.09-1.36.71-2.77,1.34-4.23,1.88-1.86-.37-4.09-.65-7.42-.65-7.95,0-9.65,1.59-14.93,2.27-3.39-.73-6.61-1.91-9.61-3.46,4.54-.03,4.61-1.14,9.3-1.14s4.76,1.15,9.52,1.15,4.76-1.15,9.52-1.15Z"/>
  <path class="cls-17" d="M199.91,247.91c8.18,0,14.8,6.63,14.8,14.8s-6.63,14.8-14.8,14.8-14.8-6.63-14.8-14.8,6.63-14.8,14.8-14.8Z"/>
  <path class="cls-18" d="M206.41,298.97c3.33,0,5.56.28,7.42.65-3,1.13-6.17,1.91-9.46,2.28-1.46.16-2.95.25-4.46.25-2.89,0-5.71-.31-8.43-.91,5.28-.68,6.98-2.27,14.93-2.27Z"/>
  <path class="cls-8" d="M206.4,287.42v.78c-5.78,0-5.78,1.03-11.56,1.03s-5.79-1.03-11.57-1.03v-.78h23.13Z"/>
  <path class="cls-8" d="M204.36,301.9l.12,1.04c-3.95.49-4.58,2.46-9.64,2.46-5.79,0-5.79-2.58-11.57-2.58s-5.78,2.58-11.56,2.58-5.78-2.58-11.56-2.58-5.78,2.58-11.56,2.58-5.78-2.58-11.56-2.58-5.78,2.58-11.56,2.58-5.78-2.58-11.56-2.58-5.78,2.58-11.56,2.58-5.78-2.58-11.56-2.58-5.78,2.58-11.56,2.58-5.78-2.58-11.56-2.58-5.78,2.58-11.56,2.58c-5.38,0-5.76-2.23-10.44-2.54.53-1.35,1.23-2.63,2.06-3.79,7.08.47,8.13,2.48,17.05,2.48,10.12,0,10.12-2.58,20.24-2.58.33,0,.66,0,.97,0,9.16.16,9.49,2.57,19.27,2.57s10.11-2.42,19.31-2.57c.3,0,.6,0,.92,0,10.12,0,10.12,2.58,20.23,2.58,9.37,0,10.07-2.21,18.16-2.54.64-.03,1.33-.04,2.08-.04,10.12,0,10.12,2.58,20.23,2.58,2.17,0,3.87-.12,5.31-.3,2.72.59,5.54.91,8.43.91,1.51,0,2.99-.09,4.46-.25Z"/>
  <path class="cls-33" d="M199.91,55.43h-15.16c.14,1.85.27,3.76.42,5.74h29.47l.42-5.74h-15.16Z"/>
  <path class="cls-8" d="M193.36,294.22l-.08.82c-.59-.06-1.28-.09-2.12-.09-4.76,0-4.76,1.15-9.52,1.15-1.33,0-2.29-.09-3.09-.22-1.03-.66-2.02-1.37-2.98-2.12,2.4-.75,3.6-2.04,7.7-2.04,5.24,0,5.73,2.12,10.08,2.51Z"/>
  <path class="cls-20" d="M191.48,301.24c-1.43.18-3.14.3-5.31.3-10.12,0-10.12-2.58-20.23-2.58-.75,0-1.44.01-2.08.04l-.04-1.25c3.58-.18,3.99-1.12,8.3-1.12,4.76,0,4.76,1.15,9.52,1.15.07,0,.15,0,.22,0,3,1.55,6.22,2.72,9.61,3.46Z"/>
  <path class="cls-8" d="M185.17,61.16h-23.78l-1.09-5.74h24.45c.14,1.85.27,3.76.42,5.74Z"/>
  <path class="cls-8" d="M183.27,287.42v.78c-5.78,0-5.78,1.03-11.56,1.03-.36,0-.69,0-1-.01-.53-.58-1.05-1.18-1.54-1.8h14.11Z"/>
  <path class="cls-8" d="M181.86,297.79c-.07,0-.15,0-.22,0-4.76,0-4.76-1.15-9.52-1.15-4.31,0-4.72.94-8.3,1.12-.37.02-.77.03-1.22.03-4.76,0-4.76-1.15-9.52-1.15s-4.76,1.15-9.52,1.15-4.76-1.15-9.52-1.15-4.76,1.14-9.49,1.15h-.03c-4.76,0-4.76-1.15-9.52-1.15s-4.76,1.15-9.52,1.15-4.76-1.15-9.52-1.15-4.76,1.15-9.52,1.15c-.15,0-.29,0-.43,0-4.33-.06-4.48-1.14-9.09-1.14s-4.76,1.15-9.52,1.15-4.76-1.15-9.52-1.15-4.76,1.08-9.14,1.14c.55-.64,1.14-1.24,1.77-1.79,2.76-.27,3.46-1.05,7.37-1.05,4.76,0,4.76,1.15,9.52,1.15s4.76-1.15,9.52-1.15c.46,0,.88.01,1.26.03,3.54.18,3.96,1.12,8.26,1.12,4.76,0,4.76-1.15,9.52-1.15,1.49,0,2.51.11,3.36.27,1.87.34,2.89.88,6.16.88,4.76,0,4.76-1.15,9.52-1.15s4.76,1.15,9.52,1.15,4.76-1.15,9.52-1.15,4.76,1.15,9.52,1.15c3.87,0,4.6-.76,7.28-1.04.62-.07,1.35-.11,2.24-.11,4.76,0,4.76,1.15,9.52,1.15s4.76-1.15,9.52-1.15c3.43,0,4.39.6,6.44.93,1.07.69,2.17,1.33,3.3,1.91Z"/>
  <path class="cls-34" d="M178.56,295.88c-2.05-.33-3.01-.93-6.44-.93-4.76,0-4.76,1.15-9.52,1.15s-4.76-1.15-9.52-1.15c-.89,0-1.62.04-2.24.11l-.12-.91c3.77-.53,4.47-2.44,9.44-2.44,5.78,0,5.78,2.58,11.56,2.58,1.68,0,2.88-.22,3.87-.53.96.76,1.95,1.46,2.98,2.12Z"/>
  <path class="cls-32" d="M171.93,290.51c1.15,1.16,2.37,2.24,3.65,3.25-.99.31-2.18.53-3.87.53-5.78,0-5.78-2.58-11.56-2.58-4.97,0-5.67,1.91-9.44,2.44-.61.09-1.31.14-2.12.14-5.78,0-5.78-2.58-11.56-2.58s-5.78,2.58-11.56,2.58-5.78-2.58-11.56-2.58-5.78,2.58-11.56,2.58c-1.11,0-2.01-.09-2.77-.25-3.22-.64-4.12-2.33-8.79-2.33-5.78,0-5.78,2.58-11.56,2.58-.36,0-.7,0-1.02-.03-4.79-.28-5.12-2.55-10.55-2.55-5.78,0-5.78,2.58-11.56,2.58-2.06,0-3.39-.33-4.5-.75v-3.33c1.12.17,2.44.3,4.5.3,5.78,0,5.78-1.03,11.56-1.03s5.78,1.03,11.56,1.03,5.78-1.03,11.56-1.03,5.78,1.03,11.56,1.03,5.78-1.03,11.56-1.03,5.78,1.03,11.56,1.03,5.78-1.03,11.56-1.03,5.78,1.03,11.56,1.03,5.78-1.03,11.56-1.03,5.78,1.03,11.56,1.03h.21Z"/>
  <path class="cls-19" d="M171.93,290.51h-.21c-5.78,0-5.78-1.03-11.56-1.03s-5.78,1.03-11.56,1.03-5.78-1.03-11.56-1.03-5.78,1.03-11.56,1.03-5.78-1.03-11.56-1.03-5.78,1.03-11.56,1.03-5.78-1.03-11.56-1.03-5.78,1.03-11.56,1.03-5.78-1.03-11.56-1.03-5.78,1.03-11.56,1.03c-2.06,0-3.39-.13-4.5-.3v-1.27c1.12.17,2.44.3,4.5.3,5.78,0,5.78-1.03,11.56-1.03s5.78,1.03,11.56,1.03,5.78-1.03,11.56-1.03,5.78,1.03,11.56,1.03,5.78-1.03,11.56-1.03,5.78,1.03,11.56,1.03,5.78-1.03,11.56-1.03,5.78,1.03,11.56,1.03,5.78-1.03,11.56-1.03c5.43,0,5.76.91,10.56,1.02.39.44.8.87,1.22,1.28Z"/>
  <path class="cls-8" d="M169.17,287.42c.49.62,1.01,1.22,1.54,1.8-4.8-.11-5.13-1.02-10.56-1.02-5.78,0-5.78,1.03-11.56,1.03s-5.78-1.03-11.56-1.03v-.78h32.14Z"/>
  <path class="cls-35" d="M163.82,297.76l.04,1.25c-8.09.33-8.78,2.54-18.16,2.54-10.12,0-10.12-2.58-20.23-2.58-.32,0-.62,0-.92,0v-1.19c4.72,0,4.73-1.15,9.48-1.15s4.76,1.15,9.52,1.15,4.76-1.15,9.52-1.15,4.76,1.15,9.52,1.15c.45,0,.85,0,1.22-.03Z"/>
  <path class="cls-24" d="M160.3,55.43l1.09,5.74h-27.21c-1.45,0-2.87.15-4.23.45-.79-2.27-1.51-4.34-2.15-6.19h32.5Z"/>
  <path class="cls-36" d="M48.01,74.1c-.04.06-.09.11-.12.17-.23.31-.45.62-.65.94-.21.34-.42.68-.61,1.03-.06.12-.13.24-.19.36-.06.12-.12.24-.18.36-.12.24-.23.49-.34.73-.05.12-.1.24-.15.36,0,0,0,.01,0,.02l-.14.36c-.05.13-.1.25-.14.38-.05.12-.09.25-.13.38-.13.39-.24.78-.35,1.18,0,0,0,0,0,0-.06.26-.13.52-.18.79-.03.13-.05.27-.08.4l-.06.35c-.03.15-.05.31-.07.47-.02.14-.03.28-.05.42l127.2,147.27c1.26-1.09,2.58-2.1,3.96-3.04-27.88-41.05-86.05-126.7-103.87-152.94h-23.81ZM115.56,74.1h-6.9l72.47,149.8c1.49-.73,3.03-1.36,4.61-1.91-15.82-45.47-43.71-125.64-55.79-160.37-6.65,1.44-12.06,6.22-14.39,12.49ZM161.39,61.16l30.42,159.2c1.62-.3,3.27-.52,4.95-.64-3.34-45.64-8.49-116.06-11.59-158.56h-23.78ZM44.41,132.93c0,6.74,3.74,12.61,9.27,15.63-1.33,2.5-2.09,5.35-2.09,8.38v5.04l112.66,76.51c.94-1.38,1.95-2.7,3.04-3.96-35.72-30.85-90.08-77.8-122.87-106.13v4.53ZM128.87,287.42h19.96l12.28-5.94c-.73-1.49-1.36-3.03-1.91-4.61-8.82,3.07-17.4,6.05-30.32,10.55ZM51.59,251.86l105.32,7.7c.12-1.68.34-3.33.65-4.95-30.81-5.88-55.96-10.69-105.97-20.25v17.5ZM161.1,243.93c-31.84-15.4-61.44-29.73-109.51-52.98v20.16l107.6,37.43c.55-1.58,1.19-3.12,1.91-4.61ZM156.92,265.85c-30.62,2.24-55.17,4.03-105.33,7.7v13.87h18.98l86.99-16.62c-.31-1.62-.53-3.27-.65-4.95ZM238.72,243.93c.72,1.49,1.36,3.03,1.91,4.61,31.72-11.04,59.42-20.68,109.09-37.95-.33-.31-.68-.61-1.04-.9-.1-.09-.21-.17-.31-.24-.16-.13-.32-.24-.48-.36-.01-.01-.03-.03-.04-.03-.21-.15-.42-.3-.64-.43,0,0-.02,0-.02-.01-.21-.13-.42-.27-.64-.39-.06-.04-.11-.07-.17-.1-.16-.09-.33-.18-.49-.27-.06-.04-.13-.07-.2-.1-.21-.11-.42-.21-.63-.31-.24-.12-.49-.22-.75-.33v-14.28l-105.58,51.08ZM242.9,259.56c32.7-2.39,60.56-4.43,112.5-8.23v-18.34l-113.15,21.62c.3,1.62.52,3.27.65,4.95ZM242.25,270.8c25.29,4.83,43.76,8.37,86.99,16.62h26.16v-13.34l-112.51-8.22c-.12,1.67-.34,3.33-.64,4.94ZM232.53,234.53c1.09,1.26,2.1,2.58,3.04,3.96,31.61-21.47,64.39-43.73,108.73-73.84v-7.71c0-2.49-.51-4.85-1.42-6.99,7.26-2.25,12.53-9.01,12.53-17.01v-4.53l-122.87,106.13ZM238.71,281.48c3.57,1.73,7.9,3.82,12.28,5.94h19.96l-30.32-10.55c-.55,1.58-1.19,3.12-1.91,4.61ZM273.63,67.03c-.16-.42-.33-.84-.52-1.24-.09-.18-.17-.37-.26-.55-.16-.33-.34-.65-.53-.96-.07-.12-.14-.25-.22-.37-.07-.12-.15-.24-.23-.36-.08-.12-.16-.24-.24-.36-.16-.24-.33-.47-.51-.7-.08-.11-.17-.22-.25-.33,0,0,0-.02-.03-.03-.17-.22-.35-.43-.54-.64-.09-.11-.19-.21-.29-.32l-55.95,160.83c1.58.55,3.12,1.18,4.61,1.91,22.07-45.61,61.06-126.2,75.9-156.87h-20.95ZM214.64,61.16l-11.59,158.56c1.68.12,3.33.34,4.95.64,8.73-45.69,22.72-118.9,30.42-159.2h-23.77ZM355.23,82.4c-.02-.16-.04-.32-.07-.47l-.06-.35c-.03-.14-.05-.27-.08-.4-.06-.27-.12-.53-.18-.79,0,0,0,0,0,0-.1-.4-.22-.79-.35-1.18-.04-.13-.09-.26-.13-.38-.04-.13-.09-.25-.14-.38l-.14-.36s0-.01,0-.02c-.05-.12-.1-.24-.15-.36-.11-.24-.22-.49-.34-.73-.06-.12-.12-.24-.18-.36-.06-.12-.12-.24-.19-.36-.19-.35-.4-.69-.61-1.03-.21-.32-.42-.64-.65-.94-.04-.06-.08-.11-.12-.16h0c-.15,0-.3,0-.44,0h-23.37l-103.87,152.94c1.38.94,2.7,1.95,3.96,3.04,36.98-42.81,120.62-139.64,127.2-147.27-.02-.14-.03-.28-.05-.42Z"/>
  <path class="cls-37" d="M157.57,270.8l-86.99,16.62h58.29c12.93-4.5,21.51-7.48,30.32-10.55-.68-1.97-1.23-3.99-1.62-6.07ZM44.48,83.32c-.01.17-.03.33-.03.5-.02.33-.03.68-.03,1.02v43.57c32.79,28.32,87.15,75.28,122.87,106.13,1.37-1.59,2.86-3.07,4.45-4.45L44.53,82.82c-.02.17-.03.33-.05.5ZM71.82,74.1c17.82,26.25,75.99,111.89,103.87,152.94,1.73-1.18,3.55-2.23,5.44-3.15L108.66,74.1h-36.84ZM148.82,287.42h14.69c.21-.15.52-.35.73-.5-1.18-1.73-2.23-3.55-3.15-5.44l-12.28,5.94ZM164.25,238.49l-112.66-76.51v28.97c48.07,23.25,77.67,37.58,109.51,52.98.92-1.9,1.97-3.71,3.15-5.44ZM51.59,234.36c50.02,9.56,75.16,14.37,105.97,20.25.39-2.08.94-4.11,1.62-6.07l-107.6-37.43v23.25ZM51.59,273.55c50.16-3.67,74.71-5.46,105.33-7.7-.07-1.03-.12-2.08-.12-3.14s.04-2.1.11-3.14l-105.32-7.7v21.69ZM134.18,61.16c-1.45,0-2.87.15-4.23.45,12.08,34.73,39.97,114.9,55.79,160.37,1.96-.69,3.99-1.23,6.07-1.63l-30.42-159.2h-27.21ZM243.01,262.71c0,1.06-.04,2.11-.12,3.15l112.51,8.22v-22.74c-51.94,3.8-79.8,5.84-112.5,8.23.07,1.04.11,2.09.11,3.14ZM355.34,222.19c-.02-.21-.04-.42-.06-.64-.03-.22-.06-.45-.09-.67-.03-.18-.06-.37-.09-.55,0-.05-.02-.1-.03-.15-.04-.21-.08-.42-.13-.62-.04-.2-.09-.39-.15-.59,0-.02-.01-.04-.02-.06-.06-.21-.12-.43-.19-.64-.06-.21-.14-.42-.21-.63-.08-.22-.16-.44-.25-.66-.08-.19-.16-.38-.24-.56-.09-.2-.18-.4-.28-.6-.09-.19-.19-.39-.3-.58-.1-.19-.21-.38-.32-.57-.11-.19-.22-.38-.34-.56-.1-.16-.21-.32-.31-.47-.02-.03-.03-.05-.05-.07-.12-.18-.25-.36-.38-.53-.12-.16-.24-.33-.37-.49,0,0-.02-.02-.03-.03-.27-.34-.55-.67-.85-.98h0c-.15-.16-.3-.32-.45-.47-.15-.15-.3-.3-.46-.45-.01-.01-.03-.03-.04-.03-49.66,17.28-77.37,26.92-109.09,37.95.68,1.97,1.23,3.99,1.62,6.07l113.15-21.62v-9.37c0-.22,0-.44-.01-.66,0-.26-.02-.52-.04-.78ZM240.62,276.87l30.32,10.55h58.29c-43.23-8.26-61.7-11.79-86.99-16.62-.4,2.08-.94,4.11-1.63,6.07ZM355.37,83.82c0-.17-.02-.33-.03-.5-.02-.17-.03-.33-.05-.5-6.58,7.62-90.22,104.46-127.2,147.27,1.59,1.37,3.07,2.86,4.45,4.45l122.87-106.13v-43.57c0-.34,0-.68-.03-1.02ZM344.29,192.85v-28.2c-44.34,30.11-77.12,52.37-108.73,73.84,1.18,1.73,2.23,3.55,3.15,5.44l105.58-51.08ZM238.41,61.16c-7.7,40.3-21.69,113.51-30.42,159.2,2.08.4,4.11.94,6.07,1.63l55.95-160.83h-31.6ZM185.17,61.16c3.1,42.5,8.25,112.91,11.59,158.56,1.04-.08,2.09-.12,3.14-.12s2.1.04,3.14.12l11.59-158.56h-29.47ZM323.6,74.1c-1-2.68-2.56-5.09-4.54-7.08h-24.49c-14.84,30.68-53.83,111.26-75.9,156.87,1.9.92,3.72,1.97,5.44,3.15l103.87-152.94h-4.39ZM235.56,286.92l.73.5h14.69c-4.38-2.12-8.71-4.21-12.28-5.94-.92,1.9-1.97,3.71-3.15,5.44Z"/>
  <path class="cls-22" d="M150.71,294.15l.12.91c-2.69.28-3.41,1.04-7.28,1.04-4.76,0-4.76-1.15-9.52-1.15s-4.76,1.15-9.52,1.15-4.76-1.15-9.52-1.15-4.76,1.15-9.52,1.15c-3.27,0-4.3-.54-6.16-.88l.26-1.18c.76.15,1.66.25,2.77.25,5.78,0,5.78-2.58,11.56-2.58s5.78,2.58,11.56,2.58,5.78-2.58,11.56-2.58,5.78,2.58,11.56,2.58c.81,0,1.51-.05,2.12-.14Z"/>
  <path class="cls-8" d="M137.03,287.42v.78c-5.78,0-5.78,1.03-11.56,1.03s-5.78-1.03-11.56-1.03v-.78h23.13Z"/>
  <path class="cls-8" d="M127.8,55.43c.64,1.85,1.36,3.93,2.15,6.19-6.65,1.44-12.06,6.22-14.39,12.49h-6.9l-8.82-18.23c.32-.08.64-.14.97-.19l.4-.06c.07-.01.14-.02.21-.03.12-.02.24-.03.37-.04.36-.04.71-.07,1.07-.09.14,0,.27-.01.41-.02.18,0,.36,0,.54,0h23.99Z"/>
  <path class="cls-21" d="M124.54,297.79v1.19c-9.19.15-9.5,2.57-19.3,2.57s-10.1-2.41-19.27-2.57l.02-1.19c.14,0,.28,0,.43,0,4.76,0,4.76-1.15,9.52-1.15s4.76,1.15,9.52,1.15,4.76-1.15,9.52-1.15,4.76,1.15,9.52,1.15h.03Z"/>
  <path class="cls-8" d="M113.9,287.42v.78c-5.78,0-5.78,1.03-11.56,1.03s-5.78-1.03-11.56-1.03v-.78h23.12Z"/>
  <path class="cls-23" d="M99.84,55.87l8.82,18.23h-36.84c-2.37-3.49-4.03-5.94-4.81-7.08h20.1c.08-.2.15-.4.24-.61.1-.25.21-.5.33-.75.06-.15.13-.3.21-.44,0-.03.02-.05.04-.08.06-.14.14-.27.21-.4.13-.24.26-.47.4-.7.07-.12.14-.24.22-.35.12-.19.24-.39.38-.58.1-.15.21-.3.32-.45.11-.15.22-.29.33-.43.27-.36.57-.7.87-1.03.1-.12.21-.23.32-.34.02-.03.04-.05.07-.07.09-.1.19-.2.29-.29.09-.1.19-.19.3-.28.46-.43.94-.84,1.44-1.21.14-.11.28-.21.42-.31.01,0,.03-.02.04-.03l.49-.33c.37-.24.75-.47,1.13-.68.11-.06.23-.12.34-.18.23-.12.47-.24.71-.36.12-.05.23-.11.34-.16.22-.1.45-.2.68-.28.32-.13.64-.24.96-.35.18-.06.36-.11.54-.17.18-.05.35-.1.53-.15,0,0,0,0,.02,0l.54-.13Z"/>
  <path class="cls-30" d="M99.56,294.04l-.26,1.18c-.85-.15-1.87-.27-3.36-.27-4.76,0-4.76,1.15-9.52,1.15-4.3,0-4.72-.94-8.26-1.12l.03-.73c.32.02.66.03,1.02.03,5.78,0,5.78-2.58,11.56-2.58,4.67,0,5.56,1.68,8.79,2.33Z"/>
  <path class="cls-8" d="M90.78,287.42v.78c-5.78,0-5.78,1.03-11.56,1.03s-5.78-1.03-11.56-1.03v-.78h23.13Z"/>
  <path class="cls-29" d="M85.99,297.79l-.02,1.19c-.31,0-.63,0-.97,0-10.12,0-10.12,2.58-20.24,2.58-8.93,0-9.97-2-17.05-2.48.32-.45.65-.87,1.01-1.28,4.38-.06,4.51-1.14,9.14-1.14s4.76,1.15,9.52,1.15,4.76-1.15,9.52-1.15,4.76,1.08,9.09,1.14Z"/>
  <path class="cls-31" d="M78.2,294.26l-.03.73c-.38-.02-.8-.03-1.26-.03-4.76,0-4.76,1.15-9.52,1.15s-4.76-1.15-9.52-1.15c-3.91,0-4.61.77-7.37,1.05.36-.31.72-.61,1.1-.89v-1.57c1.12.42,2.44.75,4.5.75,5.78,0,5.78-2.58,11.56-2.58,5.42,0,5.76,2.26,10.55,2.55Z"/>
  <path class="cls-8" d="M71.82,74.1h-23.81c.05-.06.09-.13.15-.19.06-.09.13-.18.21-.26.09-.12.19-.24.3-.36.07-.09.15-.17.21-.25.1-.12.21-.23.31-.34.18-.19.36-.39.55-.57.17-.16.33-.32.51-.48.03-.03.05-.05.07-.06.2-.18.4-.35.6-.52.1-.09.21-.17.31-.25.21-.16.42-.32.64-.48.09-.07.19-.14.29-.21.12-.08.24-.16.36-.24.11-.07.23-.15.34-.21.23-.14.45-.27.69-.4.06-.03.12-.07.18-.1.12-.07.25-.14.38-.2,1.53-.79,3.2-1.36,4.95-1.67.15-.03.29-.05.44-.07.12-.02.24-.03.35-.05.08,0,.16-.02.25-.03.14-.02.27-.03.42-.04.11-.01.22-.02.33-.03.08,0,.16-.01.24-.02.22-.01.44-.02.66-.03.15,0,.3,0,.46,0h4.79c.78,1.14,2.43,3.58,4.81,7.08Z"/>
  <path class="cls-8" d="M67.65,287.42v.78c-5.78,0-5.78,1.03-11.56,1.03-2.06,0-3.39-.13-4.5-.3v-1.52h16.06Z"/>
</svg>