<?xml version="1.0" encoding="UTF-8"?>
<svg id="Camada_1" xmlns="http://www.w3.org/2000/svg" version="1.1" viewBox="0 0 894.9 467.9">
  <!-- Generator: Adobe Illustrator 30.3.0, SVG Export Plug-In . SVG Version: 2.1.3 Build 182)  -->
  <defs>
    <style>
      .st0 {
        fill: #3a3a3a;
      }
    </style>
  </defs>
  <g>
    <circle class="st0" cx="-182.3" cy="219.4" r="12.1"/>
    <g>
      <path class="st0" d="M-225.4,226.6h-27.6c1,10.1,4.2,20,9.4,28.8l35.1-.3-19.6,18.7c8.1,6.9,17.8,11.9,28.1,14.5,6.8-6.9,10.7-15.9,11-25.4v-1.3c-.7-19.4-16.7-35-36.3-35h0Z"/>
      <path class="st0" d="M-139.3,226.6c-19.7,0-35.8,15.8-36.4,35.3v.9c.3,9.5,4.2,18.5,11.1,25.4,10.3-2.6,20-7.6,28.1-14.5l-19.7-18.9,35.3.3c5.1-8.8,8.4-18.6,9.4-28.8h-2.3s-25.5,0-25.5,0h0Z"/>
      <path class="st0" d="M-208.9,210.1c.5-.5.9-1.1,1.4-1.7.8-1.1,1.4-2.1,1.8-3,.5-1.1.8-2.2,1-3.4.2-1,.3-1.9.3-2.6,0-4-1.6-7.8-4.4-10.7l-21.6-21.6c-7.6,7-13.6,15.6-17.6,25.2l17.8,17.8c5.9,5.9,15.5,5.9,21.4,0h0Z"/>
      <path class="st0" d="M-159,205.5c.4,1,1,1.9,1.8,2.9.5.7.9,1.2,1.3,1.6,5.9,5.9,15.5,5.9,21.4,0l18-18c-4-9.5-10-18.1-17.6-25.1l-21.7,21.7c-2.9,2.9-4.4,6.6-4.4,10.7s0,1.7.3,2.8c.2,1.1.6,2.2,1,3.3h0Z"/>
      <path class="st0" d="M-197.4,149.9v28.9c0,8.3,6.8,15.1,15.1,15.1s15.1-6.8,15.1-15.1v-28.9c-9.9-2.1-20.3-2.1-30.2,0h0Z"/>
    </g>
  </g>
  <g>
    <path class="st0" d="M21.9,147.3h51.2v101.8c0,8.6,1.9,16.5,5.5,23.5,3.7,7,9,12.5,15.8,16.5,6.8,4,14.9,6,24.2,6h12.4v-22.6h-12.1c-6.2,0-11.3-2-15-5.8-3.7-3.9-5.6-8.8-5.6-14.7v-104.7h51.2v-22.6H21.9v22.6h0Z"/>
    <path class="st0" d="M255.3,177h0c-8.5-5.4-18.9-8.1-30.9-8.1s-22.2,2.7-31.2,8.1c-9,5.4-16.1,13-21.1,22.5-4.9,9.6-7.5,21-7.5,33.9s2.5,24.1,7.6,33.8c5,9.7,12.1,17.3,21.1,22.7,8.9,5.4,19.2,8.1,30.6,8.1s18.1-1.7,25.3-5.1c7.2-3.4,13.4-8.1,18.3-13.9,4.9-5.8,8.4-12.5,10.5-20l.4-1.4h-22.1l-.3.7c-2.5,6.3-6.4,11.4-11.7,15s-12.2,5.5-20.4,5.5-12.7-1.7-18.3-4.9c-5.6-3.2-10.3-8.2-13.8-14.7-2.9-5.4-4.6-12.1-5.1-20h94.4v-1c.2-2.3.3-4.3.3-6.1v-5c0-10.4-2.3-20-6.7-28.7-4.5-8.7-11-15.8-19.5-21.2h0ZM205.4,192.7c5.7-3,12-4.6,18.5-4.6,9.9,0,18.3,3.1,24.9,9.1,6.3,5.8,9.9,13.9,10.5,24.1h-72.4c.7-5.9,2.3-11.1,4.7-15.3,3.4-5.8,8-10.3,13.8-13.3h0Z"/>
    <path class="st0" d="M352.5,172.1c-6.1,2.1-11.4,5.2-15.7,9.1-3.4,3.1-6.4,6.8-8.9,10.9l-1.3-20.3h-20.4v123.3h22.4v-63.6c0-7.5,1-13.9,2.9-19,1.9-5,4.7-9,8.1-11.9,3.5-2.9,7.5-5.1,12-6.4,4.5-1.3,9.4-2,14.4-2h8.5v-23.3h-1.1c-7.8,0-14.8,1.1-20.9,3.2h0Z"/>
    <path class="st0" d="M491.1,177.5c-8.9-5.7-19.4-8.6-31.2-8.6s-14.2,1.1-19.9,3.3c-5.7,2.2-10.6,5.1-14.7,8.6-3.2,2.8-6,5.7-8.3,8.7l-1.5-17.8h-20.3v176.2h22.4v-70.1c3.9,5.8,9.2,10.5,15.7,14,7.7,4.1,16.6,6.1,26.5,6.1s22.4-2.8,31.3-8.3c8.9-5.5,16-13.2,20.9-22.9,4.9-9.6,7.5-20.8,7.5-33.1s-2.5-23.4-7.5-33.1c-5-9.7-12-17.4-20.8-23.1h0ZM496.8,233.4c0,9.1-1.7,17-5,23.7-3.3,6.6-8.1,11.8-14,15.5-6,3.7-12.9,5.6-20.5,5.6s-14.7-1.9-20.6-5.6c-5.9-3.7-10.5-9-13.8-15.5-3.3-6.6-4.9-14.6-4.9-23.7s1.7-16.9,4.9-23.6c3.3-6.7,7.9-11.9,13.8-15.7,5.9-3.7,12.8-5.6,20.6-5.6s14.5,1.9,20.5,5.6c6,3.7,10.7,9,14,15.7,3.3,6.7,5.1,14.6,5.1,23.5h0Z"/>
    <path class="st0" d="M624.7,175.2c-7.6-4.2-17.2-6.3-28.5-6.3s-16.4,1.6-24,4.8c-7.6,3.2-14.1,7.8-19,13.8-5,6-8,13.5-9,22.3v1.2c-.1,0,22.7,0,22.7,0l.2-.9c1.2-7.2,4.5-12.7,9.9-16.4,5.4-3.7,11.9-5.6,19.3-5.6s11.7,1.3,15.9,3.7c4.2,2.4,7.4,6.1,9.7,10.9,2.1,4.6,3.3,10.5,3.4,17.3h-30.9c-10.7,0-20,1.5-27.9,4.5-7.9,3-14.2,7.5-18.5,13.3-4.4,5.8-6.6,13.1-6.6,21.4s1.7,13.3,4.9,19.2c3.3,5.8,8.4,10.6,15.1,14.1,6.7,3.5,15.1,5.3,25,5.3s10.6-.7,15-2c4.4-1.3,8.3-3.1,11.7-5.3,3.4-2.2,6.4-4.9,8.9-7.9,1.7-2,3.1-4.1,4.4-6.3l1,18.5h20.1v-76.1c0-10.1-1.9-18.9-5.6-26.3-3.8-7.5-9.5-13.3-17.2-17.5h0ZM625.1,237.9c0,5.2-.9,10.2-2.5,14.9-1.6,4.8-4.1,9.3-7.2,13.3-3.1,4-6.9,7.1-11.3,9.3-4.4,2.2-9.4,3.4-14.8,3.4s-9.9-.9-13.6-2.5c-3.7-1.7-6.6-4-8.4-7-1.9-3-2.8-6.6-2.8-10.7s1-7.5,3-10.6c1.9-3.1,5.2-5.5,9.8-7.3,4.7-1.8,10.9-2.7,18.6-2.7h29.2Z"/>
    <path class="st0" d="M705.6,154.6c0-5.7,1.2-9.8,3.6-11.9,2.4-2.2,6.5-3.3,12.1-3.3h11.7v-19.5h-14.8c-7.5,0-13.9,1.2-19.1,3.6-5.3,2.4-9.3,6.2-11.9,11.3-2.6,5-4,11.5-4,19.4v17.7h-18.5v19.2h18.5v104.1h22.4v-104.1h30.5v-19.2h-30.5v-17.2h0Z"/>
    <polygon class="st0" points="849.7 171.8 808.9 262.7 770.4 172.5 770.2 171.8 745.9 171.8 794.4 281.6 800.5 281.6 770.9 348 794.4 348 872.3 173.3 873 171.8 849.7 171.8"/>
  </g>
</svg>