<?xml version="1.0" encoding="UTF-8"?>
<svg id="Camada_1" data-name="Camada 1" xmlns="http://www.w3.org/2000/svg" viewBox="0 0 399.81 406.59">
  <defs>
    <style>
      .cls-1 {
        fill: #4a9040;
      }

      .cls-2 {
        fill: #387c2d;
      }

      .cls-3 {
        fill: #24541c;
      }

      .cls-4 {
        fill: #9de57f;
      }

      .cls-5 {
        fill: #65ac4b;
      }
    </style>
  </defs>
  <path class="cls-5" d="M304.59,156.9c-1.86,1.7-4.51,3.82-6.83,4.84-1.17.52-2.3.54-3.35.99-1.42-.83-2.8,1.19-3.41,2.08-2.22-1.15-4.26-.43-5.5,1.47-1.53-.43-2.82.21-4.21,1.82-.57.67-1.2,1.92-1.9,2.39.11.15.21.29.32.44-.24-.14-.5-.26-.76-.35-1.26.09-1.83-.29-3.19.34-.59.27-.87.92-.78,1.53-.02-.15-3.1-.22-3.54-.05-1.47.58-1.92,2.37-3.3,3.09-1.52.79-3.31.5-4.73,1.59-.82.63-1.43,2.5-2.43,3.02-.25-.07-.51-.11-.81-.08-.32.04-.64.07-.96.11-1.14.13-1.57,1.08-1.43,1.99-.45.25-.89.54-1.25,1.08-.33.48-.81,2.31-1.44,3.29-.45-.27-1.01-.4-1.47-.29-2.16.52-4.14,1.45-5.23,3.48.07-.12-.78,1.88-.59,1.82-.12.04-.44-.58-.88-.64-.85-.13-1.52-.51-2.47-.2-2.43.79-3.54,4.28-4.22,6.42-.39,1.21-1.02,1.68-1.77,2.13-.61-.17-1.26-.02-2,.75-.84.88-1.34,2.43-1.54,3.57-.05.26-.07.57-.1.89-.3.65-.55,1.32-.79,2.01-.21.04-.48-.02-.83-.22-.46-.26-.94-.26-1.37.07-1.84,1.42-1.67,3.51-2.41,5.53-1.01,2.75-1.2,1.03-3.37,1.38-1.31.22-2.14,1.22-2.62,2.42-.49,1.23-.05,4.51-.48,6.37-.63-.32-1.23-.76-1.28-1.55-.03-.43.74-1.48.83-2.04.26-1.71-.78-2.53-1.15-4.06-.89-3.66,4.46-7.17.68-10.62-.32-.3-1.08-.41-1.29-.79-.32-.56.52-2.74.7-3.55.41-1.77.93-3.62.46-5.44-.29-1.11-.92-2.12-1.73-2.68,1.54-2.31,2.88-5.46,2.73-7.8-.06-.95-.33-1.89-1.07-2.52-.13-.11-.25-.18-.38-.24.62-2.57-.54-6.84-1.9-8.95-1.11-1.72-1.06,1.2-2.51,1.3-.02-1.79.89-6.2,1.15-7.68.32-1.78-.03-2.11-.88-3.72-.26-.49-1.15.19-1.62,0,.3-2.32.63-6.66-.42-8.59-.44-.81-.22-1.15-1.08-1.45-.12-.04-1.47,1.52-1.58,1.51.39-2.17,1-6.18-.14-7.8-.66-.94-.48-1.34-1.43-1.52,0-2.98.09-7.23-2.29-8.65-.5-.3-.98-.44-1.42-.47.69-3.29.27-7.4-2.54-8.45-.56-.21-1.15-.13-1.65.13.11-.35.08-.75-.09-1.2-.07-.76-.15-1.52-.25-2.27-.23-1.28-.61-2.4-1.15-3.58-.22-.48-.63-.74-1.07-.81-.45-1.98-1.03-3.94-1.64-5.88-.44-1.38-1.86-1.71-2.78-.87-.49-1.86-1.03-3.7-1.86-5.35-.54-1.09-2.04-1.04-2.61-.06-.14-1.98-.36-4.81-2.19-5.22-.51-2.01-1.12-4.03-2.1-5.77-.14-.73-.29-1.4-.43-1.96-.3-1.2-1.95-1.13-2.15.09-.45,2.78-.8,5.85-.68,8.84-.25.19-.49.45-.73.77-.5.69-.19,1.47.4,1.84-.12.51-.17,1.04-.12,1.6-.02-.21.45,2.22.55,1.92.51.48.32.53-.55.16-.15-.02-.3,0-.44.06-2.47,1.58.43,4.58-2.19,5.74-.3.13-.56.48-.56.81-.01,1.97.44,4.58,1.24,6.87.2.92.07,1.74-.4,2.44-.37-.29-.92-.31-1.26.21-.34.51-.67,1.04-.96,1.58-.28.49-.14,1,.2,1.3,0,.02,0,.05,0,.07.07,1.63,2.19,2.48.29,1.68-.48-.2-1.23-.1-1.61.29-3.09,3.26,1.04,7.7,1.09,11.51-.2,0-.39.01-.5.05-.93.28-1.57,1.02-1.94,1.88-.98,2.34.86,4.21,1.99,6.25-.99-.02-2.03.99-1.72,2.01.43,1.43.61,2.89,1.07,4.32.11.36.84,1.97,1.41,3.28-.94-.26-2.05.47-2.09,1.47-.05,1.24.16,1.75.75,2.83.97,1.74,1.72,3.4,2.17,5.24-.17.03-.36.07-.57.12-1,.23-1.78,1.39-1.22,2.39,1.27,2.26,2.15,4.71,3.25,7.06-.25-.06-.5-.13-.75-.21-.95-.29-2.27.5-1.93,1.63.59,2.02,1.54,3.75,2.61,5.57.54.92,1.17,1.85,1.61,2.81.52,1.14.95.92-.27,1.54-1.22.63-1.38,2.01-.65,3.07,1.31,1.89,2.65,3.75,4,5.61-1.88,2.52,1.34,7.53,3.66,10.73-1.08,2.41,2.54,6.57,4.33,8.6-.02.65.24,1.31.81,1.74-.05.15-.1.36-.14.66-.39.56-.49,1.48-.47,2.14.05,1.32.73,2.37,1.62,3.3.99,1.04,2.99,3.57,4.64,4.27-.82-.28-1.76-.79-2.3-.92-.79-.19-1.59-.29-2.39-.41,0,0-.02-.02-.02-.03-.88-1.14-1.33-2.54-2.27-3.64-1.61-1.87-3.9-3.82-5.95-5.18-.9-.59-1.92-.04-2.16.82-1.62-1.51-3.26-3.03-5.1-4.15-.53-.33-1.14-.2-1.49.19-1.58-1.78-3.27-3.43-4.99-5.18-.85-.87-2.64-.84-3.02.54-.02.06-.03.12-.05.19-.29.36-.48.71-.6,1.07-1.37-1.88-2.94-3.58-4.88-4.59-.66-.34-1.44.25-1.57.92-.36-.24-.72-.48-1.08-.73-.67-.48-1.29-1.08-2-1.5-.26-.16-.53-.29-.8-.43-.25-.36-.51-.73-.83-1-.22-.19-.5-.25-.72-.4-.19-.14-.36-.36-.52-.53-.6-.63-1.6-.14-1.5.71,0,.09.02.17.03.26-1.12-.67-2.41-1.05-3.66-1.44-.25-.26-.51-.51-.77-.74-.9-.78-1.96-.02-2.23.91-.44-.31-.88-.62-1.31-.92-1.42-1.02-3.18-2.88-4.88-3.31-1.57-.4-2.23.84-2.11,2.12-1.98-.9-3.94-1.76-5.68-3.15-1.12-.89-2.32.72-1.58,1.75.19.27.36.57.51.88-1.19-.69-2.38-1.39-3.57-2.07-1.23-.7-2.89-2.2-4.44-2.01-1.08.13-1.88,1.03-2.04,2-.57-.32-1.13-.64-1.7-.97-.44-.25-.85-.26-1.18-.12-.7-.6-1.41-1.15-2.16-1.48-.33-.14-.74-.04-1,.18-.35.29-.94,1.37-1.02,1.85-.67-.53-2.9-1.93-3.58-2-1.41-.16-1.75.59-2.78,1.28-.18.12-.26.69-.3.7-1.28.31-3.83-2.02-4.52-2.79-.85-.94-2.58.06-1.93,1.25.94,1.72.55,1.06-1.01.35-1.02-.46-1.97-.84-3.04-1.19-1.5-.49-2.64-.84-4.2-.73-.03,0-.05.01-.08.02-.55-.15-1.11-.2-1.7-.06-.1.02-.16.11-.15.21.41,2.36,3.87,4.43,5.7,5.77.33.24.66.48.98.73.16.27.32.54.48.8-.08.09-.16.17-.24.26-.73.83.09,2,1,2.14,1.06.16,2.05.56,3,1.04-.38.88-.08,2.07,1.01,2.61.91.46,1.88.83,2.87,1.14-.08,1.22,1.57,2.09,2.58,2.64.62.34,1.25.66,1.88.97,0,.02.01.04.02.06-.02.17-.03.34-.05.51-.04.35.13.77.44.95.36.21,2.56,1.19,3.41,1.23.08.04.16.07.23.11-1.06.93-.88,3.01.93,3.14.23.04.41.06.59.07,1.35.21,2.85.8,4.3,1.44-.07.11-.14.21-.21.33-.43.78-.1,1.88.91,1.94.32.07.63.11.92.12,1.73.32,3.34,1.14,4.99,1.71-.07.18-.13.36-.16.57-.15.95.17,1.75.76,2.28.7,1.68,3.04,1.95,5.12,1.8.12,1.12,1.13,1.96,2.52,2.33,1.61.43,3.25.81,4.89,1.14,0,.08-.02.16-.01.24.03,1.25.94,1.92,2.07,2.18,1.54.36,3.35.76,4.94.89.23.02.47,0,.71-.02-.39.85.27,1.81,1.32,1.74,1.97-.13,4.04.09,6.11.2-.46.33-.91.63-1.14.85-.5.48-.27,1.36.46,1.44,1.25.14,3.09.48,5,.65-.03.2-.01.41.08.58.55,1.05,1.24,1.28,2.24,1.37.05.06.12.11.22.13.36.08,1.73.14,3.1.19.16.18.33.33.53.46.02.21.1.42.27.61,1.58,1.8,4.03,1.59,6.27,2.05.17.04.34.08.52.12-1.91.49-3.83.97-5.78,1.22-2.16.27-4.61-.62-5.79,1.56-2.17.6-4.57.69-6.69,1.42-.78.27-1.13,1.26-1.02,2-.33-2.23-5.74.39-6.73.42-1.26.05-2.06.97-1.95,2.02-1.01.36-1.99.78-2.96,1.24-.44-.24-.97-.28-1.51.04-1.13.68-1.53,1.06-2.03,2.23-1.33.78-3.5,2.5-3.77,2.75-1.96,1.85-4.61,3.02-7.03,4.15-.33.16-.34.49-.17.72-.1.14-.18.29-.24.47,0-.01,0-.03-.03-.03-.59-.09-.47-.12-.95.26-.21.17-.02.46.21.44,1.77-.16,3.46-.51,5.2-.79,2.7-.44,3.48-.52,6.16.63.66.28,1.18.65,1.94.69.78.05,2.44-.65,3.42-.47.24,1.02,1.48,1.67,2.54,1.24,1.1-.46,2.22-.68,3.38-.73.36.89,1.58,1.24,2.41.59,1.02-.79,2.42-1,3.75-1.04,0,.03,0,.06,0,.09-.21,1.3,1.27,2.07,2.33,1.62,2.4-1,4.72-1.22,7.2-1.1.32.64,1.05.97,1.9.68,1.02-.34,2.63-.86,3.96-.88,1.08,1.36,2.77.68,4.49,0,.94-.25,2.17-.8,2.6-.52.54.35,1.29.47,1.88.15,1.93-1.06,4.21-1.01,6.47-1.15-1.21,1.76-2.44,3.5-3.84,5.1-.97,1.11-2.14,2.08-2.93,3.33-1.1,1.74-1.17,5.42-3.71,5.58-.56.03-1.05.76-.9,1.29.17.61.43,1,.76,1.24-1.18,2.01-2.43,4.03-3.07,6.23-.13.44.41.92.79.55.11-.1.2-.21.3-.31,3.18-.41,6.01-2.76,8.71-4.39,2.42-1.46,5.48-1.9,7.37-3.83,1.94-1.99,4.49-2.99,6.67-4.7,2.04-1.61,3.53-3.88,4.89-6.12.8-.03,1.61-.47,2.33-1.15,2.3-2.19,4.33-4.88,6.32-7.46.53,2.17,1.09,4.34,1.6,6.51,1.2,5.07,2.18,10.12,3.73,15.12,2.98,9.63,7.08,18.67,12.88,26.93.43.62,1.02.91,1.65.98.14.34.44.62.86.69,2.41.38,5.29-2.1,3.62-4.51-.47-.69-1.32-1.14-1.87-1.75-.68-.75-1.15-1.65-1.8-2.43-.09-.11-.19-.22-.29-.33-3.58-6.22-6.52-12.77-9.15-19.46-1.58-4.02-2.99-8.11-4.49-12.16-.84-2.28-1.58-4.58-2.25-6.91-.32-1.12-1.44-3.72-1.65-5.51,4.88,5.62,10.94,11.54,18.23,13.22,2.03.47,3.74,1.54,5.74,2.05,1.9.49,2.89-.35,4.81-.5,1.08-.09,2.54.14,3.62.26,1.47.16,3.11.98,4.46,1.09.27.02.56-.05.81-.04.89-.21,1.79-.43,2.68-.64,1.01.17,2,.39,2.98.67.58.16,1.15-.68.53-1.02-.4-.28-.77-.49-1.14-.65-1.36-.8-2.59-1.65-3.9-2.63-.83-.62-1.81-1.11-2.72-1.68.5-.72-.14-1.96-1.26-1.53-.17.08-1.4-1.32-1.58-1.46-.44-.34-1.16-.45-1.55-.85-.55-.57-.59-1.61-.91-2.26-.31-.62-4.3-4.4-4.79-3.63.22-.35.26-.9-.06-1.22-.77-.77-.92-.88-1.93-1.3-.21-.09-.42-.09-.61-.04-.28-.15-.57-.3-.84-.44,3.63.46,7.46.25,11.05.63.67.07,1.23-.3,1.51-.84.12-.06.24-.13.35-.22.29-.21.56-.47.77-.77,1.32.11,3.59.41,3.79.4,1.96-.09,3.91-.74,5.8-1.22,4.86-1.22,9.37-2.52,13.93-4.59,1.99-.9,4.18-1.62,6.05-2.76,1.62-.98,2.62-2.53,4-3.75,1.33-1.17,3.38-1.53,5.05-2.39,1.92-.99,4-1.81,5.56-3.33.53-.52.44-1.46-.31-1.73-1.98-.71-4,.07-6.03-.67-1.54-.56-2.82-1.3-4.31-1.33-.54-.96-1.4-1.63-2.67-1.89-.95-.19-1.95-.01-2.85.28-.51.17-1.19.68-1.84,1.04-.26-.58-.74-1.11-1.31-1.58-.81-.68-2.21.17-2.05,1.19-1.38.16-2.8.8-4.18.12-1.13-.56-1.43-1.26-2.84-1.31-.7-.02-1.31.14-1.96.37-.98.36-1.46,1.5-1.9.16-.32-1-1.87-1.21-2.56-.54-2.22,2.14-4.47.91-7.07,1.39-.86.16-1.75.55-2.47,1.03-.51.34-1.06,1.58-1.31.58-.33-1.31-2.18-1.96-3-.65-1.08,1.71-2.61,1.42-4.35,1.51-.32.02-1.49.18-2.55.18,4.12-3.42,8.76-7.41,14.14-8.26,1.75-.27,3.82-.79,4.31-2.83.04-.19.07-.37.08-.56,2.17-.68,4.54-1.7,5.31-3.49.32-.75.28-1.73-.12-2.43,0-.02-.02-.04-.04-.06,2.92-1.18,5.83-2.57,6.5-5.89.08-.37-.05-.73-.27-1.01.8-.53,1.64-.98,2.57-1.37.73-.3,1.55-.41,2.2-.89,1.25-.91.96-1.84,1.49-3.09,0-.22-.04-.44-.14-.64.71-.58,1.46-1.11,2.24-1.58,1.03-.7,2.17-1.28,3.15-2.05,1.04-.82,2.18-1.7,2.16-3.12,0-.66-.29-1.12-.89-1.4-.85-.39-.58.18.03-.64.36-.47,1.52-1.06,2.04-1.44,1.03-.75,2.55-1.42,3.15-2.63.72-1.44-.34-2.36-.6-3.48.87-.36,1.49-1.12,2.06-1.98.25.02.51-.02.76-.16.21-.11.42-.22.62-.34,1.18-.64,1.14-2.01.51-2.83.64-.9,1.26-1.81,1.89-2.69.79-1.1,2.55-2.99,3.02-4.71,2.61-2.4,6.23-6.52,4.38-9.85-.22-.39-.56-.65-.93-.78,1.78-2.95,3.75-5.76,5.67-8.64.52-.78-.52-1.8-1.25-1.13Z"/>
  <path class="cls-1" d="M231.98,308.32c-.18-.61-.76-1.07-1.1-1.61-.38-.62-1.42-.39-1.28.41.1.59.23,1.26.51,1.8.25.49,1.01,1.05,1.57.85.66-.24.46-.94.3-1.45Z"/>
  <path class="cls-1" d="M247.94,270.81c-.48-.6-1.17-.74-1.89-.83-.41-.05-.78.01-1.13.14-.84-.36-1.73-.66-2.61-.92-.14-.52-.44-.99-.93-1.38-3.7-2.95-8.5-3.67-12.38-6.2-3.08-2.01-5.39-4.54-9.3-3.71-1.05.22-1.31,1.32-.77,2.14,1.92,2.87,4.57,5.75,7.61,7.53.76.45,1.56.76,2.38,1.02.01.54.22,1.1.52,1.5.47.62.98,1.08,1.55,1.43.4.61,1.04,1.08,1.92,1.18.11.01.21.03.32.04.64.08,1.26-.12,1.76-.48.48.39,2.63,1.03,2.76,1.07,1,.26,2.09.66,3.12.83,1.81.3,4.12-.19,5.89-1.04.12,0,.25-.02.37-.06,1-.3,1.53-1.39.81-2.27Z"/>
  <path class="cls-1" d="M290.55,170.56c-3.39.32-5.28,1.69-7.93,3.82-1.52,1.23-2.92,2.6-4.39,3.88-1.94,1.68-3.86,2.67-6.13,3.78-7.09,3.45-13.02,9.94-18.87,15.11-5.48,4.84-10.67,9.8-15.26,15.5-2.58,3.21-5.14,6.44-7.7,9.66-2.13,2.67-5.02,5.52-5.31,9.05-.08.93.85,2,1.86,1.7,3.07-.91,4.89-3.45,6.92-5.82,2.56-2.98,5.04-6.04,7.56-9.06,4.97-5.95,10.67-10.63,16.48-15.72,5.83-5.11,12.34-9.99,17.04-16.23,1.4-1.86,2.19-3.7,3.98-5.31,1.3-1.18,2.69-2.2,4.11-3.22,3.01-2.16,5.75-3.76,7.92-6.72.15-.2-.05-.44-.27-.42Z"/>
  <path class="cls-1" d="M301.24,160.38c-1.4.36-2.39,1.36-3.36,2.41-1.16,1.25-2.31,2.51-3.47,3.76-.24.25.06.62.35.41,1.39-.99,2.77-1.97,4.16-2.96,1.15-.82,2.29-1.68,2.82-3.02.12-.3-.17-.69-.51-.6Z"/>
  <path class="cls-1" d="M288.52,238.19c-2.67-3.61-9.37-1.31-12.96-.86-3.41.43-6.84-.06-10.27.04-2.68.08-5.36.18-8.04.35-6.06.38-12.01,1.19-17.83,2.98-3.75,1.15-11.9,2.95-12.92,7.33-.14.59.04,1.23.67,1.45,2.14.76,3.52-.19,5.6-1.05,2.6-1.07,5.14-2.18,7.83-3.01,5.48-1.7,11.13-2.48,16.84-2.85,5.5-.36,10.57-.82,15.92-2.08,2.92-.68,5.89-1.24,8.9-1.22,2.1.01,4.3.51,6.15-.66.15-.1.2-.27.09-.42Z"/>
  <path class="cls-1" d="M249.12,271.95c-.84.15-.82,1.47.07,1.52.29.02.58.1.78.22.06.04.12.08.17.12.04.03.07.05.09.06-.03-.02-.06-.04,0,.02.28.26.49.36.87.4.6.06.97-.47.92-1.01-.11-1.24-1.92-1.52-2.9-1.34Z"/>
  <path class="cls-1" d="M218.17,258.02c-.15-.16-.33-.27-.54-.32-.46-.1-1,.15-1.15.62-.03.09-.05.17-.08.26-.09.28-.07.54.04.81.13.3.41.49.71.56.28.06.55.02.79-.14.25-.16.48-.46.47-.77v-.28c0-.26-.05-.53-.24-.74Z"/>
  <path class="cls-1" d="M216.27,255.34s-.05-.07-.07-.11c-.04-.05-.09-.09-.15-.11-.04-.02-.08-.04-.12-.04-.04-.02-.09-.02-.13-.01-.05,0-.09,0-.13.02-.04,0-.08.03-.12.06-.06.03-.1.07-.14.13-.02.04-.04.08-.06.11,0,.04-.02.08-.03.13,0,.04,0,.09,0,.13l.04.13s.05.07.07.11c.04.05.09.09.15.11.04.02.08.04.12.04.06.02.13.02.2,0,.06-.01.12-.02.17-.04.17-.04.28-.19.26-.37,0-.06-.02-.12-.03-.17-.01-.04-.03-.08-.04-.13Z"/>
  <path class="cls-1" d="M226.69,297.87c-.89-1.79-1.81-3.55-2.61-5.37-1.68-3.82-2.73-7.72-3.89-11.71-1-3.44-2.33-6.74-3.24-10.22-.5-1.92-.9-3.93-1.46-5.87-.63-10.47-2.09-21.16-5.59-31.06-.01-.03-.03-.05-.04-.07-.21-.99-.44-1.97-.6-2.97-.53-3.3-.4-6.64-.91-9.94-1.05-6.79-2.51-13.53-3.69-20.3-1.15-6.55-2.28-13.1-3.5-19.64-.63-3.4-1.46-6.58-2.45-9.71-.13-2.11-.38-4.22-.6-6.25-.6-5.37-2.17-10.45-3.37-15.69-2.37-10.3-2.36-20.84-5.36-31.05-.07-.24-.22-.43-.39-.56-.18-1.36-.44-2.72-.56-3.95-.14-1.48-.28-2.96-.42-4.44.53-4.71.28-9.96-2.03-13.75-.4-.66-1.32-.51-1.46.26-.52,2.82-.11,5.85-.13,8.71-.01,1.96-.1,3.95-.22,5.93-.77.15-1.48.87-1.37,1.79h-.03c.05.17.1.33.15.47.15.44.25.88.3,1.31-1.09-.29-2.35.17-2.36,1.59-.02,2.33-.23,6.12,1.15,8.4-.24.51-.39,1.08-.48,1.67-.26.28-.41.64-.45,1.04-1.07,1.35-.22,3.16.2,4.9-.12.04-.23.08-.34.13-1.53-.79-3.43,1.12-2.8,2.92.84,2.37,1.47,4.72,2.29,6.96-.08.03-.16.04-.24.07-1.87.82-2.47,2.98-2.05,4.82.27,1.18.89,2.34,1.7,3.35-1.21-.07-2.54.91-2.16,2.28.68,2.44,1.43,4.8,2.25,7.14-.97.31-1.73,1.23-1.51,2.43.49,2.67,1.42,5.13,2.75,7.44-.64.27-1.14.95-1.07,1.75.13,1.53.42,2.63,1.13,3.97.16.31.39.52.63.65.4.77.84,1.52,1.34,2.24-.24.79-.67,1.52-1.19,2.16-.93-.24-2.06.38-1.79,1.5.53,2.22,2.19,5.9,4.48,7.63-.06.12-.12.24-.16.37-1.18.28-1.87,1.49-1.4,2.84.61,1.74,2.16,4.86,4.13,7.05-.32.46-.5,1.06-.35,1.59.74,2.55,2.77,4.73,4.33,6.86.05.12.1.24.15.36-.98.54-1.5,1.82-.96,2.88,1.22,2.38,3.17,4.39,4.73,6.55.33.45.82,1.26,1.42,1.97,0,.02.02.03.02.05-.04.02-.08.04-.12.06-1.29.73-.9,2.25-.41,3.36,1.01,2.29,2.71,4.31,4.14,6.35.28.41.56.8.85,1.18.08,1.14.31,2.33.56,3.47.03.84-.02,1.67-.19,2.46-.8,3.52-3.99,4.08-7.05,3.74-2.44-.27-4.74-.71-7.07-.97-5.67-2.85-12.04-4.63-17.92-6.81-9.03-3.35-18.06-6.41-26.77-10.58-4.15-1.99-8.35-3.95-12.3-6.33-3.77-2.27-7.03-5.22-10.72-7.59-3.39-2.18-6.91-3.44-10.69-4.65-3.63-1.16-8.19-2.83-10.83-5.66-.28-.3-.77,0-.6.39,2.49,5.67,6.98,8.87,11.8,12.09-.13.21-.17.46-.04.73.48.94,1.2,1.74,2.12,2.28.71.42,1.92.86,2.59.18.33.24.65.48.97.73-.16.13-.29.29-.37.47-.64,1.42.61,2.64,1.86,3.04.5.16,1.18.42,1.77.48-.14.85.3,1.85.91,2.41,1.02.95,2.69,1.53,3.86.53.11-.09.2-.21.27-.33.27.2.54.39.82.59-.24.16-.43.4-.53.7-.31.92.37,1.8,1.11,2.24.79.47,1.73.64,2.63.59.61-.03,1.1-.19,1.49-.5.73.43,1.46.86,2.2,1.28-.59,1.28-.14,2.71,1.25,3.48.87.49,1.91.81,2.83,1.21.76.32,1.54.69,2.34.77.29.66.83,1.22,1.48,1.61,1.48.88,3.44,1.41,5.1,1.81.19.04.37.09.56.12.04.23.11.46.24.71.49.98,1.6,1.3,2.59,1.47,1.38.23,3.11.71,4.42.15.19-.08.34-.21.47-.36,0,0,.01,0,.02,0-.13.19-.23.42-.31.68-.29.95.02,2.08.85,2.65.86.59,1.84.29,2.79.25.58-.02,1.16.14,1.74.08.57-.06,1.13-.2,1.71-.27.21-.02.34-.16.4-.34.02,0,.05.02.07.03-.12.18-.21.39-.21.6.03,1.49,1.15,2.17,2.48,2.45,1.1.23,2.52-.02,3.09-1.03-.34.77-.22,1.71.33,2.37.68.82,1.68.98,2.68,1.02.64.03,1.27.06,1.91.08.41,0,.75-.02,1.07-.12.11.58.35,1.12.7,1.49.81.86,2.02,1.08,3.14,1.25,1.53.23,2.89.5,4.38,0,.61-.21,1.03-.68,1.2-1.29.39-1.31,7.48,1.99,8.19,2.3,1.79.77,3.57,1.59,5.34,2.41,1.49.69,4.68,1.24,5.63,2.35.05.06.1.12.15.17-.55.67-1.52,1.18-2.2,1.55-.34.19-.69.38-1.03.57-.27-.02-.54-.05-.82-.07-3.51-.26-6.85.41-10.25,1.2-6.22,1.45-12.42,2.95-18.63,4.44-2.99.72-6,1.35-9,2.02-3.24.73-6.38.54-9.67.4-2.69-.11-5.6-.68-8.25.01-2.55.66-5.86,4.58-8.64,3.51-.96-.37-1.67,1.01-.83,1.59,1.36.94,3.11.83,4.63.47,1.49-.35,2.81-1.36,4.31-1.63,1.87-.33,3.89.57,5.71.93,3.55.7,6.85.45,10.43.53,3.42.08,6.61.33,10.05.02,7.26-.66,14.32-2.23,21.44-3.74,3.57-.76,7.13-1.58,10.31-3.46,1.22-.11,2.5-.34,3.44.67.63.68.65,1.45.69,2.3-3.18,3.05-5.79,6.83-8.38,10.26-2.29,3.04-4.94,5.13-8.14,7.17-2.27,1.44-5.03,2.6-6.55,4.89-.29.44-.03,1.11.53,1.13,5.81.29,12.21-5.17,16.77-8.31,4.92-3.39,10.31-8.28,13.28-13.71.45-.05.86-.23,1.24-.49.26-.02.52-.08.75-.21.66-.34,1.23-.88,1.6-1.52.17-.29.29-.58.39-.88.1.24.2.47.31.71.42,2.42,1.2,4.81,1.85,7.16,1.04,3.72,1.77,7.63,3.13,11.24,1.4,3.71,3.02,7.38,4.58,11.03.79,1.83,1.57,3.67,2.48,5.44.87,1.68,2.24,2.79,3.3,4.33.06.09.19,0,.15-.1-.78-1.61-1.05-3.39-1.85-5Z"/>
  <path class="cls-1" d="M219.89,247.66c-.57-.68-1.65-.72-2.16-.02-.19.09-.38.27-.49.43-.18.25-.25.55-.24.86.02.54.37,1.08.91,1.26.73.24,1.59.06,2.03-.61.38-.57.4-1.39-.05-1.92Z"/>
  <path class="cls-1" d="M221.83,248.1c-.11.02-.08.2.03.18.11-.02.08-.2-.03-.18Z"/>
  <path class="cls-1" d="M226.44,239.07c-.41-.38-.98-.59-1.51-.32-.01,0-.03.01-.04.02-.16.08-.29.19-.4.32-.07-.04-.14-.09-.23-.12-.23-.09-.44-.09-.68-.11-.34-.03-.79.2-.88.56-.06.24-.12.48-.11.73.02.49.29.85.65,1.16.4.35.94.61,1.48.61.68.01,1.36-.23,1.78-.79.43-.58.51-1.52-.06-2.05Z"/>
  <path class="cls-1" d="M220.47,236.52c-1.2.22-.87,2.09.34,1.87,1.2-.22.87-2.09-.34-1.87Z"/>
  <path class="cls-1" d="M192.94,233.25s-.03.08.01.07c.05,0,.03-.08-.01-.07Z"/>
  <path class="cls-1" d="M197.28,231.4c-1.15.21-.83,1.99.32,1.78,1.15-.21.83-1.99-.32-1.78Z"/>
  <path class="cls-1" d="M188.68,234.53c-.52.09-.37.89.14.8.52-.09.37-.89-.14-.8Z"/>
  <path class="cls-1" d="M184.56,251.92c-.09-.06-.2-.09-.3-.07-.1.02-.2.08-.26.17-.08.11-.11.29-.03.41.06.1.12.19.19.29.06.1.17.18.29.15.13-.03.2-.12.22-.24.02-.11.05-.22.07-.34.03-.13-.06-.3-.17-.37Z"/>
  <path class="cls-1" d="M188.82,252.52c-.05-.11-.13-.2-.22-.26-.15-.1-.33-.14-.51-.11-.09.01-.17.05-.25.1-.08.04-.14.1-.19.18-.05.07-.09.15-.1.24-.03.09-.03.18-.01.27l.06.17c.05.11.13.2.22.26.15.1.33.14.51.11.09-.01.17-.05.25-.1.08-.04.14-.1.19-.18.05-.07.09-.15.1-.24.03-.09.03-.18.01-.27l-.06-.17Z"/>
  <path class="cls-1" d="M193.5,253.09c-.06-.12-.14-.22-.25-.3-.06-.03-.12-.06-.17-.09-.13-.05-.26-.06-.4-.03-.1.01-.2.05-.28.12-.09.05-.16.11-.22.2-.06.08-.1.17-.11.27-.03.1-.04.2-.01.3.02.07.04.13.06.2.06.12.14.22.25.3.06.03.12.06.17.09.13.05.26.06.4.03.1-.01.2-.05.28-.12.09-.05.16-.11.22-.2.06-.08.1-.17.11-.27.03-.1.04-.2.01-.3-.02-.07-.04-.13-.06-.2Z"/>
  <path class="cls-1" d="M196.86,266.83c-.11-.24-.28-.43-.49-.58-.11-.06-.23-.12-.34-.18-.25-.09-.51-.11-.78-.07-.2.03-.38.11-.54.23-.17.09-.31.22-.42.39-.12.16-.19.33-.22.53-.06.19-.07.39-.02.59.04.13.08.25.12.38.11.24.28.43.49.58l.34.18c.25.09.51.11.78.07.2-.03.38-.1.54-.23.17-.09.31-.22.42-.39.12-.16.19-.33.22-.53.06-.19.07-.39.02-.59-.04-.13-.08-.25-.12-.38Z"/>
  <path class="cls-1" d="M197.17,264.88s-.07-.04-.1-.05c-.08-.03-.16-.03-.24-.02-.12,0-.24.01-.36.02-.12,0-.26.11-.32.21-.07.1-.11.25-.08.37.03.13.09.25.21.32.1.07.25.12.37.08.11-.04.23-.07.34-.11.12-.04.22-.08.29-.19.06-.09.1-.23.07-.34-.03-.11-.09-.23-.19-.29Z"/>
  <path class="cls-1" d="M215.94,232.33s-.03.08.01.07c.05,0,.03-.08-.01-.07Z"/>
  <path class="cls-1" d="M213.83,232.57c-.23.04-.17.4.06.36.23-.04.17-.4-.06-.36Z"/>
  <path class="cls-1" d="M214.63,237.04c-.75.13-.54,1.29.21,1.16.75-.13.54-1.29-.21-1.16Z"/>
  <path class="cls-1" d="M216.44,241.78c-.14-.71-1.01-1.04-1.57-.56-.19.16-.32.37-.39.6-.05.03-.1.06-.15.1-.22.22-.35.5-.29.82.05.3.27.57.56.67.17.06.36.07.55.07.38.15.86.07,1.09-.3.12-.19.19-.42.15-.65.08-.24.11-.49.06-.75Z"/>
  <path class="cls-1" d="M219.3,243.3c-.1-.01-.19-.02-.29-.03-.5-.05-.91.42-.83.9.09.48.64.78,1.09.56.09-.04.17-.09.26-.13.26-.13.44-.44.38-.74-.07-.3-.3-.53-.61-.56Z"/>
  <path class="cls-1" d="M226.32,251.17c-.1-.2-.24-.36-.42-.49-.1-.05-.19-.1-.29-.15-.21-.08-.43-.1-.66-.06-.17.02-.33.09-.46.19-.15.08-.26.19-.35.33-.1.13-.16.28-.19.45-.05.16-.06.33-.02.5.03.11.07.22.1.32.1.2.24.36.42.49.1.05.19.1.29.15.21.08.43.1.66.06.17-.02.33-.09.46-.19.15-.08.26-.19.35-.33.1-.14.16-.28.19-.45.05-.16.06-.33.02-.5-.03-.11-.07-.22-.1-.32Z"/>
  <path class="cls-1" d="M240.06,250.55c-.8.14-.58,1.39.22,1.25.8-.14.58-1.39-.22-1.25Z"/>
  <path class="cls-1" d="M243.9,227.06c-.34.06-.25.6.1.53.34-.06.25-.6-.1-.53Z"/>
  <path class="cls-1" d="M211.38,208.04c-.46.08-.33.8.13.71.46-.08.33-.8-.13-.71Z"/>
  <path class="cls-1" d="M167.81,219.38c-1.49.27-1.08,2.59.42,2.32,1.49-.27,1.08-2.59-.42-2.32Z"/>
  <path class="cls-1" d="M155.32,215.85c-.4.07-.29.7.11.62.4-.07.29-.7-.11-.62Z"/>
  <path class="cls-1" d="M163.22,225.8c-.11.02-.08.2.03.18.11-.02.08-.2-.03-.18Z"/>
  <path class="cls-1" d="M172.59,226c-.11-.07-.24-.1-.37-.08-.13.02-.25.1-.32.21-.04.05-.06.11-.07.18-.02.06-.02.13,0,.2.03.13.09.25.21.32.11.07.24.11.37.08.13-.02.25-.1.32-.21.04-.05.06-.11.07-.18.02-.06.02-.13,0-.2-.03-.13-.09-.25-.21-.32Z"/>
  <path class="cls-1" d="M180.09,228.72c-.52.09-.37.89.14.8.52-.09.37-.89-.14-.8Z"/>
  <path class="cls-1" d="M189.38,225.44c-.06.01-.04.1.02.09.06-.01.04-.1-.02-.09Z"/>
  <path class="cls-1" d="M211.06,192.47c-.05-.02-.11-.03-.16-.05-.14-.04-.23,0-.34.07-.02.02-.04.03-.07.05-.07.05-.11.08-.16.16-.09.13-.13.31-.1.47.03.17.13.31.26.41.13.1.31.12.47.1.17-.02.31-.13.41-.26.24-.31.08-.84-.3-.96Z"/>
  <path class="cls-1" d="M206.11,180.78c-1.15.21-.83,1.99.32,1.78,1.15-.21.83-1.99-.32-1.78Z"/>
  <path class="cls-1" d="M207.54,169.23c-.03-.15-.17-.24-.32-.22-.06,0-.12.02-.17.03-.04.01-.08.02-.12.04-.03.02-.07.04-.1.06-.05.04-.08.08-.1.14-.02.03-.04.07-.04.11-.01.04-.02.08-.01.12,0,.04,0,.08.02.12,0,.04.02.08.05.11.03.05.07.09.12.13.06.04.14.07.22.08.04,0,.08,0,.12,0,.04-.01.08-.02.12-.04.03-.02.07-.04.1-.06.05-.04.08-.08.1-.14.02-.03.04-.07.04-.11.02-.06.02-.12,0-.18-.01-.06-.02-.12-.04-.17Z"/>
  <path class="cls-1" d="M214.33,174.12c-.05-.1-.12-.18-.21-.25-.14-.09-.3-.13-.47-.1-.16.03-.32.13-.41.26-.06.09-.1.19-.11.3,0,.12.01.23.06.33.06.1.12.19.19.29.06.09.12.17.22.22.09.05.21.08.32.05.09-.02.17-.06.24-.11.11-.08.15-.21.17-.33.02-.11.05-.22.07-.34,0-.12-.01-.23-.06-.33Z"/>
  <path class="cls-1" d="M211.87,189.79s-.03.08.01.07c.05,0,.03-.08-.01-.07Z"/>
  <path class="cls-1" d="M211.78,224.22s-.04-.07-.07-.1c-.02-.02-.03-.04-.05-.07-.05-.07-.09-.11-.17-.17-.14-.1-.34-.14-.51-.11-.18.03-.33.14-.44.28-.11.14-.13.33-.11.51.02.18.14.33.28.44.33.25.9.09,1.02-.32.02-.05.03-.11.05-.16.03-.1.04-.2-.01-.29Z"/>
  <path class="cls-1" d="M217.65,225.94c-.06-.11-.14-.21-.24-.28-.16-.1-.35-.15-.54-.12-.1.01-.19.05-.26.11-.08.04-.15.11-.2.19-.06.08-.09.16-.11.26-.03.09-.03.19-.01.29.02.06.04.12.06.18.06.11.14.21.24.28.16.1.35.15.54.12.1-.01.19-.05.26-.11.08-.04.15-.11.2-.19.06-.08.09-.16.11-.26.03-.09.03-.19.01-.29-.02-.06-.04-.12-.06-.18Z"/>
  <path class="cls-1" d="M246.19,231.25c-.47-.45-1.04-.4-1.46.07-.3.34-.16.54-.49.79-.34.25-.77.27-1.14.44-.82.37-1.41,1.05-1.6,1.93-.17.76.92.99,1.32.48.26-.34.84-.32,1.22-.45.5-.16.96-.34,1.39-.65.73-.53,1.62-1.79.76-2.61Z"/>
  <path class="cls-1" d="M245.68,229.92c-.63.11-.45,1.09.18.98.63-.11.45-1.09-.18-.98Z"/>
  <path class="cls-1" d="M247.41,224.59c-.17.03-.12.3.05.27.17-.03.12-.3-.05-.27Z"/>
  <path class="cls-1" d="M256.07,217.85c-.57.1-.41.99.16.89.57-.1.41-.99-.16-.89Z"/>
  <path class="cls-1" d="M246.82,217.32c-.63.11-.45,1.09.18.98.63-.11.45-1.09-.18-.98Z"/>
  <path class="cls-1" d="M239.79,228.15c-.57.1-.41.99.16.89.57-.1.41-.99-.16-.89Z"/>
  <path class="cls-1" d="M245.74,248.67c-.34-.23-.72-.3-1.1-.23,0,0,0,0,0-.01-.19.04-.39.07-.58.11-.16.03-.3.08-.44.15-.06.02-.11.02-.17.04-.03.01-.26.1-.12.05-.37.12-.59.39-.58.73-.22.43-.29.94-.13,1.44.35,1.09,1.54,1.57,2.58,1.12.03-.01.06-.03.09-.04.67-.29,1.13-1.12,1.03-1.86l.03-.17c.09-.5-.22-1.06-.62-1.33Z"/>
  <path class="cls-1" d="M252.76,251.12c-.25-.23-.62-.29-.93-.14-.16.08-.27.18-.39.31-.16.16-.28.34-.3.58-.02.21.05.48.2.64.15.16.35.29.58.3.22.01.48-.04.64-.2.04-.04.08-.09.12-.13.04-.04.08-.08.12-.12.08-.09.14-.2.19-.31.06-.12.06-.31.04-.44-.03-.19-.13-.35-.27-.47Z"/>
  <path class="cls-1" d="M258.94,248.69c-2.01.36-1.45,3.48.56,3.12,2.01-.36,1.45-3.48-.56-3.12Z"/>
  <path class="cls-1" d="M230.8,257.02c-.86.15-.62,1.49.24,1.34.86-.15.62-1.49-.24-1.34Z"/>
  <path class="cls-2" d="M205.42,203.84c-1.14-11.11-3.42-22-5.44-32.98-1.95-10.63-4.24-21.19-6.1-31.84-1.92-10.98-3.58-21.99-5.9-32.9-.14-.66-1.27-.69-1.25.05.39,21.67,3.6,43.7,7.42,65.02,1.93,10.73,3.77,21.49,6.62,32.01.75,2.76,1.62,5.49,2.48,8.21-.1-.12-.2-.23-.3-.35-.42-.49-1.24-.59-1.72-.13-.23.21-.41.5-.42.82-.01.31.05.69.29.9.17.16.34.31.51.47.17.15.31.31.54.38.21.07.42.09.63.05.17-.03.43-.13.57-.25.14-.13.24-.29.31-.47.01-.03.01-.06.02-.09.75,2.37,1.47,4.75,2.09,7.15,1.46,5.66,1.93,11.34,3,17.05.15.8,1.4.58,1.25-.22-1.07-5.7-2.68-11.19-3.38-16.98-.64-5.27-.68-10.62-1.22-15.91Z"/>
  <path class="cls-2" d="M182.64,258.23c-5.43.51-10.57.97-15.94,2-4.76.91-10.79.9-15.13,3.08-.91.46-.91,1.9.11,2.25,4.73,1.61,11.05.11,15.84-.81,5.73-1.1,10.25-3.12,15.29-6.01.27-.15.14-.54-.17-.51Z"/>
  <path class="cls-2" d="M187.37,257.31c-.49-.5-1.36.04-1.7.49-.13.18-.07.44.1.57.2.14.42.06.57-.1.27-.31.68-.15.98-.38.17-.13.19-.42.04-.57Z"/>
  <path class="cls-2" d="M202.18,264.97c-2.55,1.13-4.51,2.61-6.35,4.7-1.44,1.64-3.88,3.43-4.36,5.66-.05.24.11.58.33.7,2.29,1.26,4.37-1.5,5.9-2.93,2.41-2.25,4.09-4.41,5.04-7.62.1-.34-.22-.66-.56-.51Z"/>
  <path class="cls-2" d="M265.86,193.24c-1.8.78-2.87,2.23-4.4,3.44-1.62,1.28-3.44,2.31-5.06,3.58-3.39,2.65-6.45,5.89-9.53,8.9-5.95,5.83-11.93,11.81-16.59,18.72-.46.68.43,1.49,1.07.96,6.49-5.39,12.21-11.68,18.18-17.64,2.79-2.79,5.82-5.41,8.51-8.29,1.53-1.64,2.79-3.54,4.35-5.16,1.36-1.41,2.93-2.3,3.93-4,.18-.31-.11-.68-.45-.53Z"/>
  <path class="cls-2" d="M272.59,185.34c-.31.17-.62.33-.92.51-.42.25-.64.5-.89.91-.43.68-.85,1.36-1.28,2.04-.71,1.14.89,2.25,1.71,1.19.49-.64.98-1.27,1.46-1.91.26-.34.44-.63.52-1.05.07-.38.12-.76.17-1.14.06-.4-.42-.73-.78-.54Z"/>
  <path class="cls-2" d="M206.86,241.89c-.29.05-.21.5.08.45.29-.05.21-.5-.08-.45Z"/>
  <path class="cls-2" d="M204.18,245.87c-.86.15-.62,1.49.24,1.34.86-.15.62-1.49-.24-1.34Z"/>
  <path class="cls-2" d="M195.75,243.23c-.57.1-.41.99.16.89.57-.1.41-.99-.16-.89Z"/>
  <path class="cls-2" d="M210.71,249.84c-.22-.49-.66-.75-1.15-.79l.02-.03c-.6-.06-1.18.05-1.72.32-.29.15-.51.4-.67.68-.47.27-.83.72-.85,1.3-.03.71.37,1.56,1.11,1.76.41.11.83.22,1.24.33.71.19,1.24.25,1.87-.22.29-.21.42-.56.44-.91.25-.33.39-.74.37-1.16-.03-.57-.28-.99-.67-1.28Z"/>
  <path class="cls-2" d="M210.76,255.76c-.13-.18-.33-.26-.52-.35-.21-.09-.42-.19-.63-.28-.37-.17-.87.08-.99.46-.13.42.07.81.46.99l.63.28c.2.09.37.15.6.11.25-.04.51-.22.59-.47.08-.26.02-.52-.14-.74Z"/>
  <path class="cls-2" d="M211.44,257.9c-.8.14-.58,1.39.22,1.25.8-.14.58-1.39-.22-1.25Z"/>
  <path class="cls-2" d="M221.35,246.97c-.92.17-.66,1.59.26,1.43.92-.17.66-1.59-.26-1.43Z"/>
  <path class="cls-2" d="M220.53,228.3c-.06.01-.04.1.02.09.06-.01.04-.1-.02-.09Z"/>
  <path class="cls-2" d="M188.57,182.76c-1.26.23-.91,2.19.35,1.96,1.26-.23.91-2.19-.35-1.96Z"/>
  <path class="cls-2" d="M188.88,167.89c-.22-.15-.43-.18-.66-.2-.11-.06-.23-.1-.37-.11-.45-.02-.9.23-1.05.67-.36,1.04.4,2.16,1.35,2.54.54.21,1.28-.1,1.45-.67.22-.75-.03-1.76-.71-2.22Z"/>
  <path class="cls-2" d="M192.25,174.96c-.19.02-.37.04-.56.05-.28.03-.5.36-.44.63.06.27.34.52.63.44.18-.05.36-.1.54-.14.25-.07.46-.3.4-.58-.06-.28-.3-.43-.58-.4Z"/>
  <path class="cls-2" d="M186.01,155.64c-.12-.05-.24-.09-.35-.14-.05-.01-.1-.02-.15-.03-.08-.01-.16,0-.23.03-.12.04-.24.11-.3.22-.05.09-.09.18-.1.28-.02.14.04.33.14.44.08.09.17.19.25.28.16.17.4.28.64.23.18-.04.33-.13.44-.28.1-.14.14-.34.11-.51-.04-.24-.21-.43-.43-.52Z"/>
  <path class="cls-2" d="M198.86,206.99c-.1-.61-.52-1.11-1.07-1.35-.1-.08-.21-.16-.32-.21-.37-.19-.74-.35-1.18-.26-.35.08-.64.24-.88.5-.49.55-.59,1.5-.04,2.07.1.1.2.18.3.27,0,0,0,0,0,0,0,0,0,0,0,0,.02.01.03.03.05.04,0,0,0,.01,0,.02,0,0,0-.01,0-.02,0,0,.01.01.02.01.29.86,1.12,1.41,2.05,1.11.42-.14.73-.39.94-.79.19-.37.22-.71.14-1.08,0-.11,0-.21-.01-.32Z"/>
  <path class="cls-2" d="M195.74,208.07c.05.19.03.1,0,0h0Z"/>
  <path class="cls-2" d="M247.78,216.63c-.08-.1-.26-.21-.39-.2-.09,0-.18,0-.27,0-.12,0-.23.01-.33.06-.1.05-.18.12-.25.21-.09.14-.13.31-.1.47.03.16.13.32.26.41.09.06.19.1.3.11.12,0,.23-.01.33-.06.08-.03.17-.06.25-.09.04-.03.09-.06.13-.08.06-.05.11-.11.14-.18.06-.11.09-.25.06-.37-.02-.1-.07-.2-.13-.28Z"/>
  <path class="cls-2" d="M270.22,204.36c-.06.01-.04.1.02.09.06-.01.04-.1-.02-.09Z"/>
  <path class="cls-2" d="M255.99,197.92c-.03-.12-.09-.24-.2-.31-.11-.07-.23-.1-.36-.08-.12.02-.24.1-.31.2-.07.1-.1.24-.08.36.02.09.07.17.12.23.02.21.19.41.46.36.26-.05.35-.28.31-.48.04-.09.07-.19.04-.28Z"/>
  <path class="cls-4" d="M227.53,214.26c-2.95-1.7-3.63,2.71-3.69,4.68-.01.34.53.51.61.14.2-.85.47-1.68.83-2.48.17-.38.27-.8.45-1.17.13-.26.32-.58.59-.71.21-.1.77.03,1.02.04.25.01.43-.35.18-.49Z"/>
  <path class="cls-4" d="M231.62,206.22c-1.86,2.31-2.88,5.21-3.84,7.98-.23.68.71.98,1.02.37,1.33-2.6,2.76-5.28,3.31-8.18.05-.29-.34-.37-.49-.18Z"/>
  <path class="cls-4" d="M236.12,199.61c-.26.58-.46,1.11-.59,1.73l-.39,1.84c-.05.22.3.33.41.15.67-1.08,1.34-2.08,1.77-3.28.28-.78-.86-1.18-1.2-.44Z"/>
  <path class="cls-4" d="M244.48,191.65c-.35.28-.8.41-1.09.77-.29.37-.48.9-.69,1.32-.45.92-.85,1.87-1.19,2.83-.13.37.43.7.64.33.47-.85.98-1.69,1.54-2.49.25-.36.55-.7.79-1.07.29-.45.25-.9.43-1.4.1-.26-.22-.47-.43-.3Z"/>
  <path class="cls-4" d="M251.95,187.14c-1-.35-1.77.35-2.33,1.09-.23.3.19.62.47.42.34-.24.86-.66,1.29-.41.8.47,1.42-.81.57-1.11Z"/>
  <path class="cls-4" d="M253.53,187.56c-.21.01-.42.02-.63.03-.1,0-.09.17,0,.18.21.02.42.04.64.06.19.02.19-.28-.01-.27Z"/>
  <path class="cls-4" d="M258.49,181.6c-.27.61-.53,1.21-.8,1.82-.17.38.41.67.64.33l1.12-1.66c.43-.64-.63-1.23-.95-.5Z"/>
  <path class="cls-4" d="M265.76,175.51c-.84.04-1.38.82-1.86,1.43-.52.66-.94,1.38-1.29,2.13-.2.43.45.74.72.37.47-.64.99-1.23,1.59-1.74.55-.47,1.2-.75,1.46-1.46.16-.43-.22-.75-.61-.73Z"/>
  <path class="cls-4" d="M268.44,175.78c-.5-.05-.99,0-1.47.15-.04.01-.03.09.02.09.47,0,.91.1,1.34.29.35.16.53-.48.12-.53Z"/>
  <path class="cls-4" d="M271.72,173.08c-.27.31-.54.63-.82.94-.07.08.06.19.13.12.29-.29.59-.59.88-.88.14-.14-.07-.33-.2-.18Z"/>
  <path class="cls-4" d="M277.26,170.88c-1.23-.7-2.21.92-2.3,1.96-.05.63.81.79,1.05.24.31-.69,1.18-.78,1.47-1.47.1-.23,0-.59-.23-.72Z"/>
  <path class="cls-4" d="M284.43,167.39c-.04-.05-.14-.07-.19-.01-.14.15-.28.31-.42.46-.05.05-.07.13-.01.19.04.05.14.07.19.01.14-.15.28-.31.42-.46.05-.05.07-.13.01-.19Z"/>
  <path class="cls-4" d="M293.68,164.51c-.09-.14-.3-.22-.46-.13l-.24.13c-.22.11-.3.38-.16.59.06.09.14.15.25.17.12.03.27,0,.35-.08.06-.07.13-.14.19-.2.06-.07.12-.14.13-.24,0-.08-.01-.16-.06-.23Z"/>
  <path class="cls-4" d="M190.84,102.8c-.14-.32-.28-.65-.42-.97-.2-.46-.97-.22-.85.28l.24,1.03c.09.38.15.68.46.95.23.19.68.06.75-.24.09-.4-.03-.67-.18-1.04Z"/>
  <path class="cls-4" d="M193.93,106.76c-.19-.66-1.18-.51-1.07.19.3,1.95.42,4.15,1.33,5.93.23.45,1.01.37,1.03-.19.07-2.01-.74-4.04-1.29-5.94Z"/>
  <path class="cls-4" d="M197.63,113.24c-.09-.36-.19-.71-.28-1.07-.19-.73-1.23-.55-1.16.21.04.37.07.73.11,1.1.04.45.07.73.43,1.05.24.21.72.12.87-.16.22-.42.15-.69.03-1.13Z"/>
  <path class="cls-4" d="M203.08,128.04c-1.72.05-1.49-2.07-1.61-3.29-.13-1.3-.43-2.58-.57-3.88,0-.05-.08-.04-.09,0-.24,1.14-.51,2.34-.51,3.51,0,1.17.4,2.36.73,3.46.34,1.11,1.44,1.45,2.22.55.11-.12,0-.36-.17-.35Z"/>
  <path class="cls-4" d="M204.84,127.82c-.25-.44-.92-.24-.85.28.11.88.03,2.7,1.12,3,.25.07.47,0,.63-.2.7-.89-.45-2.29-.9-3.07Z"/>
  <path class="cls-4" d="M208.94,136.72c-.32-.79-1.47-.34-1.37.44.16,1.21.18,2.44.36,3.64.16,1.16.6,1.78,1.39,2.61.11.11.34.14.43-.02.52-1,.8-1.78.55-2.93-.28-1.27-.87-2.54-1.35-3.74Z"/>
  <path class="cls-4" d="M212.36,145.45c-.16-.61-1.12-.65-1.17.05-.1,1.44-.3,2.85-.15,4.29.12,1.26.74,2.08.91,3.32.03.21.33.18.36-.02.18-1.26.78-2.11.8-3.4.03-1.47-.38-2.84-.75-4.25Z"/>
  <path class="cls-4" d="M215.67,155.02c-.17-.72-.45-1.4-.81-2.03-.44-.77-1.51-.23-1.22.59.38,1.12.15,2.31.62,3.38.2.45.91.53,1.17.09.41-.7.44-1.25.24-2.03Z"/>
  <path class="cls-4" d="M216.8,164.45c-.08,2.54-.18,5.08-.26,7.62,0,.06.08.07.09,0,.47-2.57.63-4.99.53-7.6,0-.23-.35-.27-.36-.03Z"/>
  <path class="cls-4" d="M219.22,173.18c-.05-.08-.19-.05-.17.06.33,1.54.35,3.03.36,4.6,0,1.01-.2,2.19.65,2.88.09.07.26.09.36.03,1.02-.63.87-2.04.68-3.1-.27-1.57-1.07-3.12-1.89-4.46Z"/>
  <path class="cls-4" d="M220.97,182.58c-.45,1.38-1.12,2.73-1.49,4.12-.44,1.66-.57,3.4-1.05,5.08-.04.14.16.27.24.12.79-1.4,1.62-2.81,2.3-4.27.68-1.46.72-3.27.87-4.85.05-.5-.71-.69-.88-.2Z"/>
  <path class="cls-4" d="M220.77,193.33c-.94,2.24-1.84,4.35-1.73,6.82.02.44.6.64.79.18.91-2.22,1.07-4.53,1.55-6.86.07-.37-.48-.45-.61-.14Z"/>
  <path class="cls-4" d="M220.98,205.69c-.77,1.85-1.77,3.74-1.24,5.76.1.4.56.48.82.18,1.35-1.59,1.28-3.73,1.39-5.72.03-.57-.74-.74-.96-.22Z"/>
  <path class="cls-4" d="M123.12,199.92c-.48-.7-1.27-.98-2.01-1.31-.91-.41-1.79-.86-2.65-1.36-.4-.23-.79.31-.41.59.82.63,1.67,1.22,2.55,1.76.73.45,1.48.89,2.37.76.22-.03.27-.28.16-.44Z"/>
  <path class="cls-4" d="M131.43,201.16c-.3-.93-1.05-1.38-1.79-1.98-.69-.57-1.5-.88-2.31-1.25-.69-.31-1.08.58-.75,1.08.53.79.99,1.49,1.7,2.12.32.29.63.6.97.86.4.31.78.39,1.27.47.76.12,1.1-.7.9-1.3Z"/>
  <path class="cls-4" d="M139.12,201.66c-.14-.42-.49-.64-.86-.84-.65-.35-1.29-.71-1.94-1.06-.43-.23-.96-.2-1.26.23-.29.41-.17.97.23,1.26.57.42,1.13.83,1.7,1.25.31.23.65.5,1.04.53.34.03.8-.15,1-.44.18-.25.18-.65.09-.93Z"/>
  <path class="cls-4" d="M144.72,202.15s-.1.04-.05.07c.44.31.89.62,1.33.93.05.03.1-.04.05-.07-.44-.31-.89-.62-1.33-.93Z"/>
  <path class="cls-4" d="M161.81,209.05c-.41-.8-1.34-1.32-2.08-1.78-.87-.54-1.7-1.13-2.51-1.76-.04-.03-.09.03-.06.07.61.89,1.26,1.76,1.95,2.6.56.68,1.3,1.42,2.2,1.59.38.07.65-.39.49-.71Z"/>
  <path class="cls-4" d="M176.2,213.27c-1.05-.8-2.21-1.45-3.41-2-.68-.31-1.13.7-.58,1.12,1,.76,1.87,1.62,2.71,2.55.75.84,1.32,1.7,2.48,1.86.34.05.66-.25.69-.57.12-1.31-.92-2.2-1.89-2.95Z"/>
  <path class="cls-4" d="M183.93,219.48c-1.12-.84-2.21-1.67-3.18-2.7-.16-.17-.43.06-.28.24.94,1.06,2.01,2.06,3.25,2.76.2.11.4-.15.21-.3Z"/>
  <path class="cls-4" d="M190.4,222.54c-.8-.76-1.51-1.61-2.13-2.52-.22-.31-.65.03-.53.34.43,1.11.97,2.17,1.63,3.16.48.72,1.38,1.74,2.3,1.75.27,0,.48-.2.44-.48-.13-.89-1.09-1.67-1.71-2.26Z"/>
  <path class="cls-4" d="M198.53,229.61c-.8-1.7-2.8-2.44-4.42-3.08-.87-.35-1.4.71-.95,1.37.94,1.37,1.9,3.12,3.55,3.73,1.21.44,2.36-.86,1.82-2.01Z"/>
  <path class="cls-4" d="M155.46,254.76c-1.5-.27-2.83-.08-4.33.24-1.22.26-2.31.54-2.95,1.69-.04.07,0,.15.09.14,1.54-.16,3.03-.28,4.57-.34,1.22-.04,2.07-.34,2.82-1.31.14-.17-.01-.39-.2-.43Z"/>
  <path class="cls-4" d="M157.5,252.61c-.59.16-.82,1.1-.11,1.31.71.21,1.46.37,2.2.21.78-.17,1.82-.61,1.68-1.59-.28-1.83-2.86-.17-3.76.08Z"/>
  <path class="cls-4" d="M168.98,249.35c-.48-.21-1.04-.05-1.54.06-.53.11-1.05.28-1.56.47-.24.09-.11.47.14.43.55-.09,1.11-.14,1.67-.13.46,0,.89.11,1.32-.07.35-.14.26-.62-.04-.75Z"/>
  <path class="cls-4" d="M174.43,248.61c-.29.15-.58.29-.87.44-.04.02-.02.1.03.09l.92-.27c.19-.06.09-.34-.08-.26Z"/>
  <path class="cls-4" d="M189.93,267.97c-2.3,2.46-4.39,5.09-6.77,7.48-1.96,1.97-2.7,4.56-4.01,7.01-.43.8.64,1.61,1.19.83.83-1.18,1.88-2.37,2.54-3.66.7-1.37,1.15-2.52,2.17-3.72,2.01-2.34,3.91-4.92,5.17-7.75.07-.16-.16-.33-.29-.2Z"/>
  <path class="cls-4" d="M264.05,234.05c-.8-1.16-1.51-1.55-2.87-1.2-1.02.26-1.86,1.29-2.88,1.65-1.51.53-3.18-.03-4.64.41-1.53.46-2.55.59-4.15.59-2.23,0-3.52.74-5.78,1.3-.8.2-.85,1.48.07,1.52,1.18.05,2.67.2,3.79-.24.49-.19.9-.7,1.36-.92.08.12.25.3.58.57.34.28.61.31,1.05.39,1.87.36,4.66-1.66,6.21-2.2,2.25-.79,4.75-1.1,7.12-1.43.22-.03.27-.28.16-.44Z"/>
  <path class="cls-4" d="M268.14,233.65c-.35.17-.69.34-1.04.52-.18.09-.09.39.11.34.37-.09.75-.17,1.12-.26.46-.11.22-.8-.19-.6Z"/>
  <path class="cls-4" d="M280.44,234.67c-.15-.18-.44-.31-.68-.24-.46.14-.88.52-1.32.63-.3.07-.18.06-.46-.09-.21-.11-.4-.39-.61-.52-.9-.57-2.03-.56-2.95-.06-.78.43-.23,1.51.59,1.22,1.14-.41,1.42.62,2.22,1.07.59.34,1.22.23,1.79-.1.59-.35,2.14-1.06,1.42-1.91Z"/>
  <path class="cls-4" d="M285.24,234.78c-.21-.15-.53-.19-.78-.24-.48-.08-.99-.05-1.46.08-.74.2-.54,1.2.21,1.16.32-.02.64.04.94.16.17.07.32.17.49.21.2.05.39,0,.59-.03.26-.05.53-.35.44-.63-.08-.27-.18-.54-.42-.71Z"/>
  <path class="cls-4" d="M293.83,237.03c-.21-.28-.61-.39-.94-.34-.9.15-1.76.39-2.68.25-.65-.1-1.04.9-.45,1.23,1.19.66,2.46.96,3.75.41.29-.13.57-.49.57-.81,0-.3-.06-.5-.24-.74Z"/>
  <path class="cls-4" d="M241.92,260.19c-.31-.51-.69-.93-1.25-1.2-.4-.19-.82-.33-1.22-.53-.33-.16-.63-.36-.94-.54-.48-.28-.85-.26-1.38-.23-.31.02-.62.38-.63.69-.01.59.04.98.43,1.44.3.36.65.68.99.99.87.79,1.74,1.52,3,1.33.82-.13,1.46-1.19,1-1.95Z"/>
  <path class="cls-4" d="M246.48,265.37c-.17-.26-.29-.54-.53-.75-.24-.21-.55-.37-.8-.58-.51-.43-.93-.94-1.29-1.49-.4-.6-1.37.06-1.05.69.34.67.76,1.3,1.27,1.85.24.26.51.53.79.75.33.26.66.29,1.07.32.37.03.77-.41.54-.78Z"/>
  <path class="cls-4" d="M283.1,199.38c-2.84.47-4.68,2.49-6.63,4.44-.62.62,0,1.6.83,1.28,2.65-1.02,5.31-2.43,6.1-5.36.05-.2-.09-.4-.3-.36Z"/>
  <path class="cls-4" d="M284.61,194.34c-.27-.02-.55-.06-.81.04-.34.13-.57.44-.8.71-.45.51-.85,1.04-1.23,1.6-.35.53.39,1.29.87.78.44-.47.91-.91,1.41-1.31.23-.18.48-.34.65-.58.19-.27.2-.54.24-.85.03-.19-.14-.38-.33-.39Z"/>
  <path class="cls-4" d="M212.3,159.7c-.05-.18-.22-.34-.42-.29-.21.05-.31.22-.29.42.02.18.03.35.05.53.02.21.27.37.47.33.2-.05.39-.25.33-.47-.05-.17-.09-.34-.14-.51Z"/>
  <path class="cls-4" d="M208.06,143.93c-.08-.17-.25-.29-.44-.31-.08,0-.16-.01-.23-.02-.15-.01-.29.05-.37.17s-.09.28-.03.41c.03.07.07.14.1.21.08.17.25.29.44.31.19.02.38-.07.5-.23.11-.16.13-.37.04-.54Z"/>
  <path class="cls-4" d="M204.04,155.85c-.29.05-.21.5.08.45.29-.05.21-.5-.08-.45Z"/>
  <path class="cls-4" d="M266.42,181.47c-1.38.25-.99,2.39.39,2.14,1.38-.25.99-2.39-.39-2.14Z"/>
  <path class="cls-4" d="M253.79,190.78c-.08-.17-.2-.31-.36-.42l-.25-.13c-.18-.07-.37-.08-.57-.05-.15.02-.28.08-.4.17-.12.07-.23.16-.3.28-.09.12-.14.24-.16.38-.04.14-.05.28-.02.43.03.09.06.18.09.28.08.17.2.31.36.42l.25.13c.18.07.37.08.57.05.15-.02.28-.08.4-.17.12-.07.23-.16.3-.28.09-.12.14-.24.16-.38.04-.14.05-.28.02-.43-.03-.09-.06-.18-.09-.28Z"/>
  <path class="cls-2" d="M209.31,239.28c-.03-.26-.11-.51-.23-.73-.35-.65-1.19-1.03-1.88-.66-.45.24-.73.67-.78,1.14,0,0,0,0-.01,0-.06.43.01.84.25,1.2.03.05.07.08.11.12.02.1.04.19.07.28.14.53.56,1.03,1.15,1.06.59.03,1.11-.29,1.33-.84.19-.48.21-1.09,0-1.58Z"/>
  <path class="cls-2" d="M210.76,242.15c-.1-.54-.66-.96-1.21-.84-.55.12-.94.63-.84,1.21.06.31.09.64.19.94.09.29.26.53.54.68.1.05.2.1.3.15.2.09.52.04.67-.12.05-.05.1-.1.15-.15.25-.27.37-.55.35-.92-.01-.32-.1-.64-.15-.95Z"/>
  <path class="cls-2" d="M204.75,239.38c-.46.08-.33.8.13.71.46-.08.33-.8-.13-.71Z"/>
  <path class="cls-2" d="M201.2,245.53c-.11.02-.08.2.03.18.11-.02.08-.2-.03-.18Z"/>
  <path class="cls-2" d="M188.4,242.69c-.26,0-.49.21-.44.48.02.1.08.2.17.26.11.07.29.11.41.03,0,0,.01,0,.02-.01.01,0,.02,0,.03.01-.03-.02-.04-.02-.02-.01,0,0,0,0,0,0,0,0,0,0,.01.01,0,0,0,.02.01.03.04.09.15.15.24.12.11-.02.16-.1.19-.2.08-.37-.27-.72-.62-.73Z"/>
  <path class="cls-2" d="M174.86,237.18c-.25-.49-.65-.6-1.14-.72-.38-.09-.77-.18-1.15-.28-.9-.22-1.35.96-.5,1.36l1.07.5c.46.22.86.39,1.36.16.37-.17.55-.66.36-1.03Z"/>
  <path class="cls-2" d="M179.2,238.25c-.08-.16-.19-.3-.34-.4-.08-.04-.16-.08-.24-.12-.18-.06-.36-.08-.54-.05-.14.02-.27.07-.38.16-.12.06-.22.15-.29.27-.08.11-.13.23-.15.37-.04.13-.05.27-.02.41.03.09.06.18.09.27.08.16.19.3.34.4.08.04.16.08.24.12.18.06.36.08.54.05.14-.02.27-.07.38-.16.12-.06.22-.15.29-.27.08-.11.13-.23.15-.37.04-.13.05-.27.02-.41-.03-.09-.06-.18-.09-.27Z"/>
  <path class="cls-2" d="M188.84,259.51c-.07-.14-.17-.26-.3-.35-.16-.17-.36-.3-.59-.37,0,0-.01,0-.02,0-.16-.04-.31-.07-.47-.11-.26-.03-.5,0-.73.1-.16.03-.31.1-.44.21-.15.07-.27.17-.36.31-.17.16-.3.36-.38.6-.04.16-.07.31-.11.47,0,.17.01.33.02.5.04.25.13.48.28.67.07.15.17.27.31.36.11.12.23.21.39.27.2.13.43.2.68.21.17,0,.33-.01.5-.02.16-.05.31-.1.47-.15.13-.09.27-.17.4-.26.19-.15.33-.34.43-.56.13-.2.2-.43.21-.68,0,0,0-.01,0-.02,0-.16-.01-.33-.02-.49-.04-.25-.13-.47-.28-.66Z"/>
  <path class="cls-2" d="M204.74,259.79c-.63.11-.45,1.09.18.98.63-.11.45-1.09-.18-.98Z"/>
  <path class="cls-2" d="M228.06,265.23c-.07-.1-.14-.2-.2-.3-.06-.06-.13-.11-.19-.17-.08-.04-.15-.08-.23-.12l-.25-.06c-.09,0-.18,0-.27.01-.08.03-.17.05-.25.08-.07.05-.14.09-.22.14-.06.06-.11.13-.17.19-.08.11-.13.22-.15.35-.03.08-.04.17-.02.26,0,.09,0,.18.05.26.02.09.05.17.11.24.04.08.09.14.16.19.06.07.13.11.21.14.07.05.15.08.24.09.08.03.17.04.26.02.14,0,.26-.02.39-.09.1-.04.19-.08.29-.12.21-.09.34-.29.39-.5.03-.09.03-.19.01-.29-.02-.13-.08-.24-.16-.34Z"/>
  <path class="cls-2" d="M238.09,269.22c-.19-.18-.37-.37-.56-.55-.21-.21-.49-.36-.81-.29-.22.05-.42.16-.55.36-.13.18-.18.43-.14.64.06.32.27.52.55.66.24.11.47.22.71.33.14.07.33.05.47,0,.15-.05.29-.14.37-.27.07-.11.11-.22.13-.35.02-.17-.05-.42-.17-.54Z"/>
  <path class="cls-3" d="M212.65,263.34c.47,3.51,1.11,6.99,1.92,10.44.81,3.45,1.78,6.85,2.92,10.21,1.13,3.34,2.42,6.63,3.86,9.85,1.44,3.23,3.04,6.4,4.79,9.47,1.75,3.08,3.64,6.07,5.68,8.97.25.35.5.71.75,1.06.27.37.9.01.63-.37-2.06-2.86-3.99-5.82-5.76-8.87-1.78-3.05-3.41-6.18-4.89-9.38-1.48-3.2-2.8-6.47-3.97-9.79-1.17-3.33-2.18-6.71-3.02-10.13-.84-3.42-1.53-6.89-2.04-10.37-.06-.43-.12-.86-.18-1.29-.03-.2-.27-.3-.45-.25-.21.06-.28.25-.25.45h0Z"/>
  <path class="cls-3" d="M232.57,313.35c.29.46.8.68,1.34.65.59-.03,1.15-.27,1.66-.56.57-.32,1.09-.72,1.55-1.18.42-.41.81-.87,1.06-1.4.22-.46.35-1,.08-1.47-.04-.06-.08-.12-.13-.17-.12-.15-.39-.13-.51,0-.14.16-.13.35,0,.51.03.04-.06-.09-.03-.04,0,0,.01.02.02.02.01.02.02.04.03.06,0,0,.03.05.03.05,0,0-.04-.11-.02-.05,0,.01,0,.02.01.04.01.04.02.08.03.12.01.06,0-.1,0-.05,0,0,0,.02,0,.03,0,.02,0,.05,0,.07,0,.05,0,.09,0,.14,0,.06.01-.08,0-.05,0,.01,0,.02,0,.04,0,.03,0,.05-.02.07-.01.05-.03.1-.04.15-.01.04-.03.12-.06.15,0-.01.04-.09.02-.04,0,.01-.01.03-.02.04-.01.03-.03.05-.04.08-.03.05-.06.11-.09.16-.06.11-.13.22-.21.32-.02.03-.04.05-.06.08,0,.01-.02.02-.03.04,0,0,0,.01-.01.02-.04.05.05-.06.02-.03-.04.05-.09.11-.13.16-.09.11-.19.22-.29.32-.21.22-.43.42-.66.61-.03.02-.06.05-.09.07-.01,0-.06.05,0,0,.06-.04-.01,0-.02.02-.06.05-.12.09-.18.13-.12.09-.25.17-.37.25-.12.07-.24.14-.37.21-.06.03-.12.06-.19.09-.03.01-.06.03-.09.04-.02,0-.03.01-.05.02-.06.03.04-.01.02-.01-.23.09-.47.17-.71.21-.01,0-.03,0-.04,0-.05,0,.1-.01.05,0-.03,0-.06,0-.09,0-.05,0-.11,0-.16,0-.05,0-.1,0-.15-.01-.05,0,.11.02.05,0-.01,0-.02,0-.03,0-.02,0-.05-.01-.07-.02-.01,0-.14-.04-.14-.04,0,0,.11.05.04.02,0,0-.02,0-.03-.01-.02-.01-.04-.02-.06-.03-.02-.01-.04-.02-.06-.04-.07-.05.07.06,0,0-.04-.03-.07-.07-.1-.1,0,0-.02-.02-.02-.03,0,0,.06.09.03.04-.01-.02-.03-.04-.04-.07-.1-.16-.33-.24-.5-.13-.16.1-.24.32-.13.5h0Z"/>
  <path class="cls-3" d="M215.22,259.09c.65,3.55,1.46,7.06,2.43,10.54.97,3.47,2.1,6.9,3.38,10.27,1.28,3.37,2.72,6.69,4.3,9.93,1.58,3.24,3.31,6.41,5.18,9.5,1.87,3.08,3.88,6.08,6.02,8.98.27.36.54.72.81,1.08.12.16.31.23.5.13.15-.09.25-.34.13-.5-2.17-2.86-4.2-5.83-6.1-8.88-1.9-3.06-3.67-6.21-5.29-9.43-1.61-3.21-3.08-6.49-4.39-9.83-1.31-3.34-2.48-6.75-3.48-10.19-1.01-3.45-1.85-6.94-2.54-10.47-.09-.44-.17-.88-.25-1.32-.08-.46-.78-.26-.7.19h0Z"/>
  <path class="cls-3" d="M211.08,263.12c.03,1.35-.62,2.64-1.65,3.5-.25.2-.52.38-.81.52-.14.07-.27.12-.41.17-.23.09-.37.37-.52.56-.57.74-1.14,1.49-1.71,2.23-.28.36-.54.77-.87,1.09-.11.1-.25.2-.38.18-.02,0-.09-.04-.11-.05-.03-.03-.04-.08-.05-.03.03-.18-.03-.35-.21-.43-.16-.06-.37-.02-.45.15-.48.97-1.14,1.83-1.87,2.63-.79.87-1.62,1.69-2.44,2.54-.81.83-1.6,1.7-2.47,2.48-.41.37-.85.71-1.32,1-.44.27-.92.49-1.39.72-.47.24-.92.49-1.33.83-.39.33-.68.75-1,1.15-.31.4-.66.72-1.13.93-.46.2-.96.3-1.44.44-1.13.31-2.18.85-3.2,1.41-1.1.6-2.2,1.2-3.3,1.79-2.22,1.21-4.44,2.41-6.67,3.62-.27.15-.54.29-.81.44.18.14.35.27.53.41.63-2.48,1.65-4.85,3.03-7.01.19-.3-.19-.69-.5-.5-.05.03-.03.03-.08.03.06,0-.05-.02-.06-.02.02,0,.03.01-.02-.02-.09-.05-.17-.16-.2-.26-.03-.09-.02-.17.04-.29.07-.15.18-.27.31-.38.55-.48,1.34-.66,1.71-1.36.21-.39.19-.82.25-1.25.06-.39.18-.77.35-1.12.35-.73.85-1.37,1.35-1.99,2.38-2.96,4.74-5.93,7.15-8.86,1.27-1.54,2.6-3.05,4.11-4.36.15-.13.13-.38,0-.51-.15-.15-.36-.13-.51,0-1.41,1.23-2.66,2.62-3.86,4.06-1.26,1.51-2.48,3.06-3.71,4.59-1.27,1.57-2.54,3.14-3.8,4.72-.54.67-1.07,1.37-1.42,2.16-.18.4-.31.81-.37,1.25-.05.4-.01.84-.3,1.16-.28.31-.68.47-1.02.69-.38.24-.73.53-.9.95-.18.42-.09.88.22,1.22.29.32.77.46,1.15.21-.17-.17-.33-.33-.5-.5-1.41,2.21-2.46,4.65-3.1,7.19-.08.31.25.56.53.41,2.23-1.21,4.47-2.43,6.7-3.64,1.12-.61,2.23-1.21,3.35-1.82,1.04-.56,2.07-1.17,3.19-1.56,1.01-.35,2.13-.46,2.96-1.18.39-.33.66-.77.98-1.16.33-.4.71-.71,1.16-.97.45-.26.92-.47,1.38-.7.5-.26.97-.57,1.41-.92.9-.71,1.68-1.56,2.48-2.38.84-.87,1.69-1.72,2.52-2.6.76-.8,1.51-1.64,2.09-2.59.14-.24.28-.48.4-.73l-.66-.28c-.09.58.42,1.05.99.99.61-.06.97-.62,1.31-1.06.81-1.06,1.63-2.12,2.44-3.18-.07.06-.14.11-.22.17,2.02-.71,3.46-2.74,3.41-4.88,0-.47-.73-.47-.72,0h0Z"/>
  <path class="cls-3" d="M189.32,266.49c-.71.68-1.62,1.09-2.6,1.14l.36.36c-.02-.56.07-1.08.25-1.61.13-.36-.36-.58-.61-.35-1.6,1.46-3.6,2.42-5.73,2.79.15.08.3.17.45.25-.07-.17-.08-.38.08-.51.15-.11.22-.27.15-.45-.06-.15-.26-.28-.43-.21-2.18.9-4.41,1.66-6.68,2.28.12.03.23.06.35.09-.27-.27-.21-.69.08-.92.31-.25-.04-.66-.35-.61-1.3.24-2.6.48-3.9.71-.62.11-1.25.24-1.87.34-.23.04-.58.1-.78-.05-.05-.04-.21-.25-.12-.32.32-.24.14-.76-.28-.66-2.67.64-5.41.93-8.15.87.12.15.23.31.35.46l.44-1.53c.08-.27-.18-.51-.45-.45-1.31.34-2.62.68-3.93,1.02-.64.17-1.29.34-1.93.5-.28.07-.6.2-.89.16-.11-.01-.43-.18-.28-.33.27-.27,0-.68-.35-.61-1.1.22-2.21.39-3.32.47-.54.04-1.12.12-1.67.08-.16-.01-.31-.06-.45-.15-.03-.02-.12-.11-.14-.12-.09-.02.04,0-.06.07.28-.19.2-.68-.18-.67-1.91.05-3.82.1-5.73.15.1.06.21.12.31.18-.63-1.49-2.39-2.13-3.91-2.06-2.03.09-3.79,1.24-5.75,1.62-1.06.21-2.19.19-3.14-.38v.63c3.47-2.06,6.95-4.11,10.42-6.17.21-.13.26-.51,0-.63-.36-.16-.73-.32-1.09-.48-.03.22-.06.44-.09.66l3.22-.81c.39-.1.86-.17,1.17-.46.35-.34.27-.78.29-1.22.05-.73.64-1.25,1.25-1.57.75-.39,1.58-.47,2.41-.54,1.05-.08,2.12-.16,3.06-.69.32-.18.17-.67-.18-.67-.22,0-.31-.24-.34-.43-.03-.29.12-.51.34-.67.27-.2.59-.3.91-.39.44-.12.88-.23,1.32-.34,1.81-.44,3.65-.79,5.5-1.03.16-.02.3-.1.35-.27.25-.94,1.18-1.41,2.06-1.62,1.08-.26,2.21-.12,3.3-.22.58-.05,1.14-.16,1.67-.39.57-.25.98-.67,1.45-1.05.89-.71,2.03-.66,3.1-.54,1.26.14,2.55.4,3.8.03.2-.06.29-.25.25-.45-.06-.33-.11-.67-.17-1-.12.15-.23.31-.35.46,3.44-.19,6.88-.37,10.32-.56.46-.03.47-.75,0-.72-3.44.19-6.88.37-10.32.56-.25.01-.39.22-.35.46.06.33.11.67.17,1,.08-.15.17-.3.25-.45-2.2.64-4.65-.87-6.74.35-.55.33-.96.85-1.53,1.16-.54.29-1.16.39-1.76.43-1.14.08-2.3-.03-3.42.26-1.09.29-2.14.95-2.45,2.1.12-.09.23-.18.35-.27-2.3.31-4.59.75-6.84,1.35-.75.2-1.69.53-1.91,1.38-.18.71.22,1.57,1.02,1.59-.06-.22-.12-.45-.18-.67-1.57.87-3.5.36-5.13,1.06-.66.28-1.3.73-1.66,1.37-.18.31-.27.66-.29,1.02,0,.17.06.45-.04.61-.09.14-.33.18-.48.22-1.21.31-2.42.61-3.63.91-.28.07-.38.53-.09.66.36.16.73.32,1.09.48v-.63c-3.47,2.06-6.95,4.11-10.42,6.17-.24.14-.23.48,0,.63,1.66,1,3.68.58,5.39-.04,1.68-.61,3.48-1.46,5.29-.93.82.24,1.52.74,1.86,1.54.05.11.2.18.31.18,1.91-.05,3.82-.1,5.73-.15-.06-.22-.12-.45-.18-.67-.44.3-.39.8-.02,1.13.48.42,1.03.42,1.63.39,1.54-.06,3.08-.26,4.59-.57-.12-.2-.23-.4-.35-.61-.44.44-.22,1.17.3,1.44.69.36,1.65-.08,2.33-.26,1.7-.44,3.4-.89,5.1-1.33l-.45-.45-.44,1.53c-.07.23.12.45.35.46,2.81.06,5.61-.24,8.34-.89-.09-.22-.19-.44-.28-.66-.48.36-.47,1.03-.04,1.44.54.53,1.43.26,2.07.14,1.73-.32,3.47-.63,5.2-.95-.12-.2-.23-.4-.35-.61-.59.48-.6,1.41-.08,1.94.09.09.23.13.35.09,2.27-.62,4.5-1.38,6.68-2.28-.09-.22-.19-.44-.28-.66-.41.31-.62.83-.42,1.33.08.2.23.29.45.25,2.26-.39,4.36-1.44,6.05-2.97-.2-.12-.4-.23-.61-.35-.21.58-.3,1.19-.28,1.8,0,.19.16.37.36.36,1.17-.07,2.27-.54,3.12-1.36.34-.32-.18-.84-.51-.51h0Z"/>
  <path class="cls-3" d="M101.96,203.02c-1.11-.96-2.23-1.92-3.34-2.88-1.02-.88-2.03-1.78-2.97-2.75-.26-.27-.52-.55-.76-.83-.12-.14-.24-.28-.36-.43-.06-.08-.12-.15-.18-.23,0-.01-.02-.02-.03-.04,0,0-.07-.09-.02-.02-.03-.04-.06-.08-.09-.12-.02.15-.04.29-.06.44.01-.01.03-.02.04-.03.03-.03,0-.02-.01.01,0-.02.05-.04.07-.05.06-.04.11-.06.17-.09.04-.02-.07.02-.02,0,.02,0,.03-.01.05-.02.03,0,.05-.02.08-.03.06-.02.13-.03.19-.04.06-.01-.01,0-.02,0,.02,0,.03,0,.05,0,.03,0,.06,0,.09,0,.07,0,.14,0,.22,0,.06,0,.12,0,.18.01.03,0,.07,0,.1.01.03,0,.04.02-.02,0,.02,0,.04,0,.05,0,.61.1,1.21.31,1.8.5,1.36.42,2.72.83,4.08,1.25.77.23,1.53.47,2.3.7.18.06.4-.07.45-.25.04-.2-.06-.39-.25-.45-1.39-.43-2.79-.85-4.18-1.28-.7-.21-1.4-.43-2.1-.64-.61-.19-1.22-.41-1.85-.52-.36-.06-.71-.08-1.06-.03-.34.05-.65.21-.91.43-.11.09-.15.32-.06.44.83,1.1,1.79,2.1,2.8,3.04,1.03.95,2.1,1.86,3.16,2.77.64.55,1.27,1.1,1.91,1.65.14.12.37.15.51,0,.12-.14.15-.38,0-.51h0Z"/>
  <path class="cls-3" d="M102.71,203.32c-.85.34-2.26,1.33-1.59,2.41.35.56,1.15.67,1.72.85.83.26,1.67.52,2.5.78-.07-.18-.14-.35-.22-.53-.26.37-.53.75-.79,1.12-.11.15-.03.41.13.5,1.57.83,3.25,1.44,4.98,1.83.03-.24.06-.47.1-.71-.6-.03-1.04.48-1.11,1.05-.08.69.42,1.22.93,1.59,1.34.96,2.94,1.64,4.49,2.15l.1-.71c-.54.07-.89.46-.96,1-.08.62.29,1.12.79,1.45.63.41,1.41.63,2.11.9.84.33,1.69.67,2.53,1v-.7c-.66.15-.99.82-.94,1.46.06.78.67,1.31,1.34,1.62.87.4,1.82.64,2.73.94,1.06.35,2.12.7,3.19,1.05v-.7c-.68.2-1.21.76-1.36,1.46-.07.31-.1.79.08,1.08.11.17.32.2.5.25.26.08.53.16.79.23,2.03.57,4.11.98,6.2,1.26-.03-.24-.06-.47-.1-.71-1.75.46-1.75,2.86-.59,3.92,1.83,1.66,4.43.72,6.61,1.15.03-.24.06-.47.1-.71-.75.02-1.21.68-1.25,1.39-.05.86.54,1.48,1.29,1.8.94.4,2.05.44,3.05.55,1.26.14,2.52.25,3.78.32-.03-.24-.06-.47-.1-.71-.82.3-1.19,1.11-1.1,1.95.1.95.68,1.66,1.55,2.03,1.08.47,2.31.39,3.46.38,1.51-.02,3.02-.03,4.53-.05-.1-.18-.21-.36-.31-.54-.43.8-.87,1.6-1.3,2.39-.13.24.03.55.31.54,2.79-.04,5.58-.09,8.36-.13-.09-.21-.17-.41-.26-.62-.63.66-1.26,1.32-1.88,1.98-.14.15-.15.47.07.57,2.43,1.08,5.2,1.2,7.7.28-.14-.18-.27-.35-.41-.53-.47.7-.92,1.42-1.35,2.15-.09.15-.05.42.13.5,2.52,1.07,5.26,1.53,7.99,1.29-.06-.22-.12-.45-.18-.67-.83.43-1.48,1.13-1.85,1.99-.1.25.01.54.31.54,3.46.06,6.92.11,10.38.17.47,0,.47-.72,0-.72-3.46-.06-6.92-.11-10.38-.17.1.18.21.36.31.54.32-.76.86-1.35,1.59-1.73.31-.16.18-.71-.18-.67-2.6.22-5.22-.17-7.63-1.19.04.17.09.33.13.5.43-.73.88-1.45,1.35-2.15.17-.25-.11-.64-.41-.53-2.31.85-4.89.8-7.14-.2.02.19.05.38.07.57.63-.66,1.26-1.32,1.88-1.98.21-.22.07-.62-.26-.62-2.79.04-5.58.09-8.36.13.1.18.21.36.31.54.43-.8.87-1.6,1.3-2.39.13-.24-.03-.55-.31-.54-1.2.01-2.39.03-3.59.04-1.05.01-2.15.11-3.19-.05-.8-.12-1.68-.46-1.95-1.29-.18-.54-.14-1.35.49-1.58.38-.14.32-.69-.1-.71-1.84-.11-3.71-.25-5.53-.55-.61-.1-1.46-.27-1.77-.87-.2-.38-.11-1.18.43-1.2.39-.01.51-.63.1-.71-1.86-.37-3.96.32-5.71-.58-.66-.34-1.17-.89-1.2-1.66-.02-.61.25-1.27.88-1.44.43-.11.28-.66-.1-.71-2.4-.32-4.77-.85-7.09-1.56.08.08.17.17.25.25-.21-.65.15-1.37.81-1.56.35-.1.33-.59,0-.7-1.59-.52-3.19-1.05-4.78-1.57-.59-.19-1.3-.37-1.73-.86-.3-.35-.36-1.11.19-1.24.38-.09.3-.58,0-.7-1.13-.45-2.27-.89-3.4-1.34-.44-.17-.97-.33-1.31-.68-.17-.18-.39-.85.04-.91.39-.05.51-.58.1-.71-1.14-.38-2.24-.86-3.29-1.45-.45-.25-.97-.51-1.33-.88-.16-.17-.31-.38-.29-.62.02-.22.16-.44.39-.42.41.02.5-.62.1-.71-1.68-.37-3.29-.96-4.81-1.76.04.17.09.33.13.5l.79-1.12c.14-.2-.01-.47-.22-.53-1.11-.35-2.25-.66-3.35-1.04-.42-.15-.66-.4-.37-.81.25-.36.68-.63,1.08-.79.43-.17.24-.87-.19-.7h0Z"/>
  <path class="cls-3" d="M105.59,197.8c-.07-.52-.13-1.03-.2-1.55-.15.12-.31.23-.46.35,2.16.84,4.27,1.8,6.31,2.88.29.16.72-.18.5-.5-.34-.47-.1-1.04.32-1.38.61-.5,1.48-.29,2.14,0,1.28.57,2.39,1.58,3.88,1.46.21-.02.35-.15.36-.36.05-.63.09-1.26.14-1.89-.15.12-.31.23-.46.35,2.56.61,4.96,1.69,7.11,3.19.12-.21.24-.42.37-.63-.56-.35-.13-1.2.3-1.47.82-.52,1.95.21,2.63.66,1.83,1.2,3.62,2.45,5.43,3.67.25.17.51-.07.54-.31.15-1.19.3-2.39.46-3.58-.15.12-.31.23-.46.35,2.75.74,4.96,2.6,7.08,4.41.15-.19.29-.38.44-.57-.62-.39-.23-1.26.19-1.65.76-.68,1.86-.16,2.57.33.93.64,1.73,1.49,2.56,2.24.93.84,1.86,1.69,2.79,2.53.25.22.59.05.62-.26.11-1.08.23-2.16.34-3.24-.15.12-.31.23-.46.35,2.25.93,4.14,2.58,5.39,4.66.16.26.58.22.66-.09.29-1.14.58-2.28.86-3.41-.2.05-.4.11-.61.16,2.08,2.39,4.3,4.65,6.67,6.76.21.18.52.11.61-.16l.95-2.93c-.18.07-.35.14-.53.22,2.38,1.3,4.25,3.34,5.36,5.81.05.11.2.19.31.18.69-.06.99-.59,1.18-1.2.13-.42.23-1.66.9-1.49.29.07.57.35.8.52.26.2.52.4.77.61.47.39.92.8,1.36,1.22.93.91,1.78,1.89,2.54,2.94.17.23.46.23.63,0,.38-.54.89-.93,1.5-1.19-.15-.02-.29-.04-.44-.06,1.88,2.01,3.75,4.03,5.63,6.04.2.22.51.08.61-.16.35-.91.69-1.82,1.04-2.72-.2.05-.4.11-.61.16,2.45,2.54,4.67,5.29,6.63,8.23.18.27.72.2.67-.18-.03-.27.19-.45.45-.46.25-.02.48.15.65.31.4.37.7.86,1.02,1.3.71.96,1.41,1.91,2.12,2.87.22.29.64.19.67-.18.05-.49.1-.98.15-1.47-.12.12-.24.24-.36.36,1.3.08,2.47.72,3.28,1.73.29.36.8-.15.51-.51-.93-1.17-2.31-1.86-3.79-1.95-.21-.01-.34.18-.36.36-.05.49-.1.98-.15,1.47.22-.06.45-.12.67-.18-.56-.75-1.12-1.51-1.67-2.26-.47-.63-.9-1.31-1.43-1.89-.39-.43-.94-.78-1.54-.65-.54.12-1.02.57-.95,1.16.22-.06.45-.12.67-.18-1.99-2.99-4.25-5.79-6.74-8.38-.2-.21-.51-.08-.61.16-.35.91-.69,1.82-1.04,2.72.2-.05.4-.11.61-.16-1.88-2.01-3.75-4.03-5.63-6.04-.12-.13-.29-.12-.44-.06-.72.32-1.3.81-1.76,1.45h.63c-.78-1.08-1.65-2.09-2.6-3.03-.49-.48-1.01-.95-1.54-1.38-.47-.39-.98-.86-1.53-1.12-.79-.38-1.43.08-1.71.81-.15.4-.25,1.7-.79,1.75.1.06.21.12.31.18-1.15-2.58-3.14-4.72-5.62-6.07-.21-.12-.46,0-.53.22-.32.98-.63,1.96-.95,2.93.2-.05.4-.11.61-.16-2.36-2.11-4.59-4.36-6.67-6.76-.18-.21-.54-.09-.61.16-.29,1.14-.58,2.28-.86,3.41.22-.03.44-.06.66-.09-1.36-2.25-3.4-3.99-5.83-5-.24-.1-.44.14-.46.35-.11,1.08-.23,2.16-.34,3.24.21-.09.41-.17.62-.26-1.21-1.1-2.41-2.19-3.62-3.29-.97-.88-2.01-2-3.35-2.28-1-.21-1.95.15-2.44,1.08-.4.76-.36,1.69.42,2.18.34.21.76-.3.44-.57-2.21-1.89-4.52-3.82-7.4-4.59-.25-.07-.43.12-.46.35-.15,1.19-.3,2.39-.46,3.58.18-.1.36-.21.54-.31-1.21-.82-2.43-1.64-3.64-2.47-1.07-.72-2.19-1.71-3.47-2.03-.92-.23-1.86,0-2.34.87-.39.69-.35,1.57.37,2.02.4.25.74-.36.37-.63-2.2-1.54-4.67-2.65-7.29-3.27-.24-.06-.44.11-.46.35-.05.63-.09,1.26-.14,1.89l.36-.36c-1.98.16-3.35-1.93-5.36-1.75-1.22.11-2.44,1.6-1.6,2.76.17-.17.33-.33.5-.5-2.1-1.11-4.27-2.1-6.49-2.96-.2-.08-.49.13-.46.35.07.52.13,1.03.2,1.55.06.46.78.46.72,0h0Z"/>
  <path class="cls-3" d="M201.9,230.95c-1.85-2.13-3.69-4.27-5.54-6.4-.77-.89-1.84-1.86-2.08-3.06-.11-.54.03-1.04.43-1.42.36-.34.84-.49,1.26-.17.28.21.71-.21.5-.5-1.47-1.93-2.94-3.87-4.41-5.8-.64-.84-1.48-1.72-1.8-2.74-.16-.52-.14-1.07.23-1.5.3-.34.76-.56,1.19-.3.35.21.75-.29.44-.57-2.92-2.59-5.11-5.93-6.3-9.65-.08.15-.17.3-.25.45.69-.11,1.39-.22,2.08-.33.26-.04.36-.44.16-.61-2.57-2.09-4.43-4.93-5.29-8.13-.12.15-.23.31-.35.46.68-.08,1.36-.15,2.04-.23.22-.02.42-.21.35-.46-.6-1.97-1.86-3.58-2.99-5.27-1.2-1.79-2.33-3.91-1.86-6.13-.18.07-.35.14-.53.22,1.13.82,2.63.89,3.85.22.22-.12.22-.4.07-.57-2.22-2.71-3.68-5.97-4.24-9.43-.12.15-.23.31-.35.46l2.39.14c.3.02.41-.31.31-.54-1.29-3.04-2.58-6.08-3.87-9.12-.04.17-.09.33-.13.5.93-.4,1.99-.35,2.89.11.22.11.57-.02.54-.31-.17-1.86-1.08-3.5-1.92-5.14-.84-1.62-1.69-3.39-1.16-5.24-.15.08-.3.17-.45.25.8.19,1.6.38,2.39.57.2.05.49-.1.46-.35-.24-2.01-1.86-3.26-2.65-5.01-.37-.83-.56-1.93.16-2.63.46-.44,1.41-.78,1.88-.17.23.3.63.18.67-.18.27-1.99-.56-3.88-1.28-5.68-.72-1.78-1.48-3.72-.72-5.61-.2.05-.4.11-.61.16.92.84,2.09,1.18,3.31,1.01.12-.02.22-.14.25-.25.47-1.66-.66-2.99-1.17-4.48-.24-.7-.4-1.62.22-2.17.36-.32,1.08-.59,1.43-.11.28.37.9,0,.63-.37-.85-1.14-2.63-.51-3.07.71-.82,2.24,1.88,4.04,1.26,6.23.08-.08.17-.17.25-.25-.95.13-1.9-.18-2.6-.82-.22-.2-.5-.09-.61.16-1.6,3.95,2.5,7.51,1.97,11.48.22-.06.45-.12.67-.18-1.18-1.53-3.47-.27-3.69,1.38-.38,2.74,2.65,4.26,2.95,6.8.15-.12.31-.23.46-.35-.8-.19-1.6-.38-2.39-.57-.19-.05-.39.06-.45.25-1.11,3.87,2.74,6.88,3.06,10.57.18-.1.36-.21.54-.31-1.16-.59-2.43-.61-3.62-.11-.2.08-.2.34-.13.5,1.29,3.04,2.58,6.08,3.87,9.12.1-.18.21-.36.31-.54l-2.39-.14c-.26-.02-.38.24-.35.46.58,3.59,2.12,6.94,4.43,9.75.02-.19.05-.38.07-.57-1.01.55-2.2.45-3.12-.22-.18-.13-.49,0-.53.22-1.01,4.66,3.61,7.72,4.85,11.78.12-.15.23-.31.35-.46-.68.08-1.36.15-2.04.23-.23.03-.42.21-.35.46.89,3.31,2.82,6.29,5.48,8.45.05-.2.11-.4.16-.61-.69.11-1.39.22-2.08.33-.19.03-.31.28-.25.45,1.23,3.84,3.47,7.3,6.48,9.97.15-.19.29-.38.44-.57-.85-.51-1.85-.02-2.33.77-.63,1.05-.09,2.28.53,3.19.84,1.22,1.8,2.38,2.69,3.56.97,1.27,1.93,2.54,2.9,3.81.17-.17.33-.33.5-.5-.89-.66-2.07-.05-2.56.82-.65,1.15.01,2.46.74,3.4,1.03,1.34,2.2,2.58,3.31,3.85,1.19,1.37,2.37,2.74,3.56,4.11.31.35.82-.16.51-.51h0Z"/>
  <path class="cls-3" d="M182.23,124.46c-.39-1.79-.78-3.59-1.16-5.38-.1-.44-.19-.88-.29-1.32-.08-.39-.17-.77-.21-1.17-.04-.38-.04-.77.07-1.13.09-.31.21-.51.44-.71.04-.03.08-.06.15-.11.07-.04.14-.08.21-.11-.05.02.03-.01.04-.02.04-.02.08-.03.13-.04.04-.01.07-.02.11-.03.01,0,.12-.02.05,0,.07,0,.15,0,.22,0,.11,0-.06-.02.05,0,.03,0,.07.01.1.02.11.03.2.08.3.19.16.17.45.12.57-.07.59-.98.14-2.09-.15-3.07-.14-.48-.27-1-.11-1.5.03-.09.06-.14.1-.22.04-.06.02-.02,0,0,.01-.02.03-.04.05-.05.03-.03.07-.07.1-.1-.04.03.04-.03.05-.04.03-.02.07-.04.11-.06.02-.01.04-.02.06-.03,0,0-.04.02,0,0,.04-.02.09-.03.13-.04.05-.01.1-.03.15-.03-.07,0,.05,0,.07,0,.04,0,.09,0,.13,0-.07,0,.03.01.06.02.02,0,.04.01.06.02-.03-.01-.03-.02,0,0,.02.01.1.08.05.03.02.01.03.03.04.04.05.05-.01-.02.01.01.03.04.05.09.07.13.07.16.3.21.45.15.16-.07.26-.25.21-.43-.31-1.07-.53-2.18-.63-3.29-.05-.55-.09-1.1-.09-1.66,0-.21.01-.42.07-.63.03-.1.06-.18.11-.26.02-.03.03-.06.05-.08,0,0,.11-.11.06-.07.14-.11.24-.13.42-.11-.07,0,.05.02.07.02,0,0,.05.02.02,0-.04-.02.02.01.03.02.04.03-.04-.02,0,0,0,0,.05.05.03.02,0,0,.02.04.03.05.14.44.84.26.7-.19-.79-2.56-.83-5.33-.12-7.92.2-.73.46-1.44.77-2.12h-.63c1.35,1.8,2.29,3.89,2.74,6.09.13.61.21,1.23.26,1.85.02.29.39.51.62.26.13-.14.22-.19.41-.23,0,0,.07,0,.01,0,.02,0,.04,0,.06,0,.05,0,.1,0,.15,0,0,0,.09,0,.05,0-.03,0,.03,0,.03,0,.06.01.12.02.17.04.37.11.66.36.84.73.23.46.25,1,.25,1.51,0,.54-.05,1.08,0,1.62.06.65.23,1.26.64,1.77.14.18.47.12.57-.07.34-.66,1.05-1.06,1.78-1.02-.12-.09-.23-.18-.35-.27.57,2.01,1.01,4.07,1.28,6.15.03.19.15.36.36.36.18,0,.39-.17.36-.36-.28-2.14-.71-4.26-1.3-6.34-.05-.16-.19-.26-.35-.27-.98-.05-1.95.51-2.4,1.38.19-.02.38-.05.57-.07-.32-.41-.41-.96-.44-1.46-.03-.59.03-1.17,0-1.76-.03-.6-.13-1.23-.47-1.74-.27-.42-.71-.73-1.19-.86-.54-.15-1.16-.05-1.55.38.21.09.41.17.62.26-.18-2.34-.87-4.62-2.03-6.66-.32-.57-.68-1.12-1.08-1.65-.14-.19-.5-.27-.63,0-1.2,2.59-1.62,5.48-1.24,8.3.11.78.28,1.55.51,2.3.23-.06.47-.13.7-.19-.16-.51-.67-.71-1.17-.63-.53.08-.88.52-1.02,1.01-.16.57-.1,1.2-.07,1.78.04.68.12,1.35.23,2.02.12.74.29,1.47.49,2.18.22-.09.44-.19.66-.28-.38-.89-1.64-.71-2.21-.13-.4.4-.51,1.01-.45,1.56.06.62.29,1.19.46,1.78.16.55.28,1.17-.04,1.69.19-.02.38-.05.57-.07-.5-.54-1.29-.52-1.91-.22-.72.35-1.09,1.04-1.18,1.81-.11.91.15,1.84.34,2.72.21.96.42,1.93.62,2.89.24,1.11.48,2.21.72,3.32.04.19.26.3.45.25.2-.05.29-.25.25-.45h0Z"/>
  <path class="cls-3" d="M196.64,112.64c.01-.07.03-.14.04-.2,0-.03.02-.07.03-.1.02-.07-.02.03.02-.04.03-.06.06-.11.09-.17.02-.03.04-.06.06-.09,0-.01.02-.03.03-.04-.02.02-.02.02,0,0,.04-.05.08-.1.13-.14.03-.02.05-.05.08-.07,0,0,.09-.07.04-.03.06-.04.12-.08.18-.11.03-.01.05-.03.08-.04.02-.01.02-.01,0,0,.02,0,.04-.02.07-.02-.15-.08-.3-.17-.45-.25.74,2.16,1.3,4.39,1.66,6.65.1.63.18,1.23.25,1.87.02.21.15.34.36.36.4.03.73-.23.97-.52.12-.15.24-.3.35-.46.05-.07-.05.06,0,0,.01-.02.03-.03.04-.05.02-.03.05-.05.07-.08.02-.03.05-.05.07-.07.01-.01.03-.03.04-.04,0,0,.02-.02.03-.02.03-.02.02-.02-.03.02.01,0,.06-.04.07-.05.07-.05-.08.02,0,0,.11-.03-.07,0,.01,0,.09,0-.1-.01.02,0,.06,0-.07-.05-.02,0,0,0,.02.01.03.02-.06-.03.01.01.03.03-.05-.05,0,.02.02.03.03.05,0,.02,0,0,.01.03.02.06.03.1,0,.03.01.07.02.1.02.11,0-.07,0,.04.05.7.09,1.4.14,2.1.09,1.41.18,2.82.28,4.23.04.6.03,1.22.2,1.8.13.44.37.95.8,1.17.26.13.56.16.83.06.31-.12.54-.36.7-.64.14-.23.25-.53.4-.73.08-.1.19-.19.28-.25.08-.05-.05,0,.04-.02.01,0,.11-.02.03-.01.03,0,.07,0,.1,0-.08-.01.05.02.07.03l-.22-.17c.45.97.78,2.05.97,3.13.09.53.15,1.06.17,1.62.02.55.01,1.1-.03,1.64-.05.61-.15,1.2-.3,1.82-.04.18.06.4.25.45.19.04.4-.06.45-.25.44-1.83.48-3.74.14-5.59-.17-.91-.43-1.81-.79-2.66-.05-.12-.1-.24-.15-.36-.07-.16-.14-.27-.32-.33-.24-.08-.49-.04-.71.06-.4.19-.63.58-.82.96-.04.07-.08.15-.12.22-.02.04-.04.08-.07.11-.01.02-.02.04-.04.05,0,0-.07.09-.02.03-.03.03-.05.06-.08.09-.01.01-.03.03-.05.04,0,0-.04.03-.01,0,.04-.03-.02,0-.03.01-.02,0-.04.02-.05.03-.05.03.05-.02,0,0-.02,0-.05.02-.07.02-.02,0-.04,0-.05.01.08-.02.04,0,.02,0-.04,0-.11,0-.03,0-.03,0-.06-.02-.09-.02-.02,0-.06-.03.02.01-.02,0-.04-.02-.05-.03-.01,0-.1-.06-.06-.03.04.03-.04-.04-.05-.05-.02-.02-.05-.05-.07-.08-.04-.03.03.05,0,0-.01-.02-.03-.04-.04-.06-.04-.06-.08-.13-.11-.2-.01-.02-.05-.12-.03-.05-.02-.04-.03-.09-.05-.13-.06-.16-.1-.33-.13-.5,0-.02,0-.04,0-.06,0,.01,0,.08,0,0,0-.03,0-.07-.01-.1-.01-.13-.02-.25-.02-.38l-.05-.78c-.07-1.04-.14-2.08-.2-3.11-.07-1.03-.12-2.06-.2-3.09-.03-.44-.18-.9-.64-1.05-.29-.09-.57.02-.78.21-.2.17-.34.4-.5.6-.02.02-.08.1-.01.02-.02.02-.04.05-.06.07-.04.05-.08.1-.13.15-.04.04-.08.08-.12.11-.07.06.04-.02,0,0-.03.02-.05.04-.08.05-.01,0-.02.01-.03.02-.05.03.03-.03.03-.01,0,0-.06.02-.06.02-.01,0-.03,0-.04,0-.04.02.08,0,.04,0-.03,0-.06,0-.09,0,.12.12.24.24.36.36-.25-2.31-.69-4.61-1.34-6.84-.18-.63-.38-1.25-.59-1.87-.06-.17-.25-.32-.45-.25-.68.25-1.21.84-1.33,1.56-.03.19.05.4.25.45.17.04.41-.05.45-.25h0Z"/>
  <path class="cls-3" d="M207.18,136.58s-.02-.06-.03-.09c0-.02-.01-.09,0-.03,0-.02,0-.05,0-.07.01-.11-.01.04,0-.02.02-.09.06-.15.13-.22.14-.15.34-.24.57-.28.18-.03.41,0,.58.11.26.17.44.44.56.72.28.65.31,1.39.38,2.08.1.93.2,1.85.3,2.78.11,1.06.23,2.12.34,3.18.02.15.08.27.22.33.13.05.3.04.4-.07.28-.33.72-.33,1.12-.12.51.26.73.77.81,1.32.1.7,0,1.43-.06,2.13-.07.82-.13,1.65-.2,2.47-.07.92-.15,1.84-.22,2.76-.02.3.42.5.62.26.39-.47.91-1.01,1.54-1.13.23-.04.46.01.63.2.2.22.26.54.3.83.12.86.17,1.75.22,2.62.05.89.07,1.78.06,2.67,0,1.01-.05,2.02-.13,3.03-.02.31.42.49.62.26.16-.18.32-.23.55-.23.21,0,.48.11.67.26.51.39.56,1.14.53,1.74-.04.82-.2,1.64-.31,2.45-.12.87-.24,1.75-.35,2.62-.14,1.01-.27,2.01-.41,3.02-.03.19.05.39.25.45.17.05.42-.06.45-.25.27-1.96.53-3.93.8-5.89.06-.48.13-.96.19-1.44.06-.42.11-.84.11-1.27,0-.8-.25-1.61-.93-2.08-.61-.42-1.54-.49-2.06.11.21.09.41.17.62.26.15-1.97.17-3.95.06-5.92-.03-.48-.06-.96-.11-1.44-.04-.44-.07-.89-.15-1.32-.15-.76-.69-1.46-1.54-1.4-.86.07-1.6.72-2.12,1.36.21.09.41.17.62.26.14-1.8.29-3.61.43-5.41.11-1.35.3-3.25-1.2-3.93-.63-.29-1.43-.28-1.91.28.21.09.41.17.62.26-.23-2.12-.46-4.23-.68-6.35-.09-.8-.16-1.67-.61-2.36-.21-.33-.51-.63-.88-.78-.31-.12-.65-.13-.97-.05-.71.16-1.39.83-1.11,1.6.07.18.25.31.45.25.18-.05.32-.26.25-.45h0Z"/>
  <path class="cls-3" d="M217.06,173.71c.8-.58,1.6-1.16,2.41-1.74-.17-.04-.33-.09-.5-.13,1.56,3.48,1.75,7.51.56,11.13-.09.26.19.53.45.45.82-.26,1.63-.51,2.45-.77l-.45-.45c-.47,3.21-1.48,6.33-3,9.2-.16.29.18.72.5.5.52-.38,1.18-.18,1.63.23.63.57.68,1.47.57,2.26-.14.96-.46,1.9-.71,2.84-.27,1-.54,2-.81,2.99-.31,1.14-.62,2.28-.92,3.41-.11.39.46.64.66.28.29-.5.95-.48,1.42-.27.71.33.93,1.12.92,1.85,0,.9-.28,1.8-.53,2.66-.27.93-.6,1.85-.98,2.74-.43,1.01-.93,1.99-1.49,2.94-.15.25.1.65.41.53.81-.32,1.16.97,1.06,1.54-.1.56-.43,1.08-.65,1.6-.24.55-.43,1.13-.36,1.74.03.26.29.46.54.31.48-.28.95-.55,1.43-.83-.18-.1-.36-.21-.54-.31-.22,2.66-.88,5.28-1.95,7.73-.19.42.35.75.63.37.7-1.01,1.4-2.01,2.1-3.02l-.5.13c.38.2.77.4,1.15.6.41.22.78-.41.37-.63-.38-.2-.77-.4-1.15-.6-.18-.1-.38-.04-.5.13-.7,1.01-1.4,2.01-2.1,3.02.21.12.42.24.63.37,1.13-2.57,1.82-5.3,2.05-8.09.02-.28-.32-.44-.54-.31-.48.28-.95.55-1.43.83.18.1.36.21.54.31-.16-1.37,1.14-2.41,1.02-3.77-.08-.96-.84-2.26-1.98-1.81.14.18.27.35.41.53,1.13-1.92,2.02-3.99,2.62-6.14.47-1.66,1.08-4.31-1.01-5.13-.78-.31-1.76-.16-2.2.61.22.09.44.19.66.28l1.82-6.72c.47-1.72,1.44-4.24-.27-5.61-.66-.53-1.63-.76-2.37-.23.17.17.33.33.5.5,1.55-2.92,2.6-6.1,3.07-9.37.04-.25-.15-.54-.45-.45-.82.26-1.63.51-2.45.77l.45.45c1.25-3.81,1.01-8.03-.63-11.68-.08-.17-.35-.24-.5-.13-.8.58-1.6,1.16-2.41,1.74-.37.27-.01.9.37.63h0Z"/>
  <path class="cls-3" d="M223.57,222.98c.15-2.43.44-4.92,1.05-7.28.2-.79.57-1.88,1.44-2.15.59-.18,1.57.08,1.54.83-.01.34.53.52.67.18,1.23-2.87,2.47-5.75,3.7-8.62-.19.02-.38.05-.57.07.67.61,1.35,1.22,2.02,1.82.25.22.58.05.62-.26.33-2.93,1.47-5.72,3.23-8.08-.22-.06-.45-.12-.67-.18-.03.79.6,1.36,1.33,1.52.87.2,1.69-.11,2.26-.8.65-.79.9-1.8,1.23-2.74.38-1.08.9-2.1,1.52-3.06.7-1.07,1.53-2.05,2.48-2.91-.19-.02-.38-.05-.57-.07.34.47.67.93,1.01,1.4.11.15.32.25.5.13.97-.7,1.6-1.69,2.2-2.71.61-1.03,1.22-2.04,2.29-2.64.47-.27,1.03-.46,1.58-.39.58.07.9.5,1.41.71.56.23,1.03-.08,1.36-.52.46-.61.88-1.26,1.32-1.89,1.01-1.46,2.03-2.92,3.04-4.39-.19.02-.38.05-.57.07.52.42,1.05.84,1.57,1.27.18.14.44.14.57-.07.58-.98,1.18-1.94,1.82-2.88.32-.48.66-.95,1-1.42.31-.43.62-.88,1-1.25.31-.3.73-.6,1.19-.48.4.11.71.45,1.11.58.99.32,1.66-.79,2.22-1.42.91-1.02,1.83-2.04,2.74-3.07h-.51c.6.61,1.19,1.23,1.79,1.84.15.15.47.14.57-.07.52-1.15,1.1-2.5,2.23-3.18.89-.54,2.19-.59,2.88.29.09.12.32.14.44.06,1.26-.88,1.78-2.32,2.68-3.51.68-.89,2.36-1.86,3.29-.78.16.19.45.1.57-.07.64-.91,1.32-1.92,2.36-2.41.84-.4,1.96-.37,2.59.37.13.15.38.13.51,0,.74-.75,1.49-1.49,2.23-2.24.33-.33-.18-.84-.51-.51-.74.75-1.49,1.49-2.23,2.24h.51c-.78-.91-2.14-1.03-3.21-.6-1.29.51-2.12,1.69-2.88,2.79.19-.02.38-.05.57-.07-1.04-1.2-2.84-.6-3.86.3-1.24,1.09-1.61,2.91-2.99,3.88.15.02.29.04.44.06-.83-1.06-2.38-1.09-3.52-.54-1.4.68-2.13,2.23-2.74,3.57.19-.02.38-.05.57-.07-.6-.61-1.19-1.23-1.79-1.84-.13-.13-.38-.14-.51,0-.81.9-1.61,1.8-2.42,2.7-.39.44-.78.89-1.18,1.32-.15.16-.3.33-.54.3-.2-.02-.38-.16-.54-.27-.37-.23-.75-.43-1.2-.4-.45.03-.85.25-1.18.53-.4.33-.7.74-1.01,1.15-.34.46-.68.93-1.01,1.41-.75,1.08-1.45,2.19-2.12,3.32.19-.02.38-.05.57-.07-.52-.42-1.05-.84-1.57-1.27-.19-.15-.43-.13-.57.07-.88,1.27-1.76,2.54-2.64,3.81-.43.62-.85,1.23-1.28,1.85-.17.25-.34.59-.59.78-.27.21-.51-.04-.73-.21-.89-.66-1.98-.6-2.95-.14-1.06.5-1.8,1.38-2.41,2.35-.69,1.1-1.27,2.36-2.36,3.14.17.04.33.09.5.13-.34-.47-.67-.93-1.01-1.4-.14-.19-.38-.24-.57-.07-1.46,1.33-2.67,2.94-3.53,4.71-.41.86-.71,1.75-1.02,2.64-.26.72-.65,1.69-1.46,1.94-.59.18-1.61-.03-1.58-.8.02-.39-.48-.45-.67-.18-1.85,2.46-2.98,5.39-3.33,8.44.21-.09.41-.17.62-.26l-2.02-1.82c-.15-.14-.47-.15-.57.07-1.23,2.87-2.47,5.75-3.7,8.62.22.06.45.12.67.18.03-.73-.5-1.27-1.16-1.5-.72-.25-1.49-.09-2.07.41-.68.58-1,1.47-1.2,2.31-.28,1.12-.47,2.27-.64,3.42-.19,1.31-.33,2.63-.41,3.96-.03.47.7.46.72,0h0Z"/>
  <path class="cls-3" d="M293.68,162.73c.42.2.86.24,1.32.17.42-.06.82-.22,1.2-.41.38-.19.75-.41,1.11-.62.4-.23.79-.46,1.19-.69,1.59-.92,3.18-1.84,4.77-2.76.9-.52,1.79-1.04,2.69-1.56-.15-.02-.29-.04-.44-.06.05.06-.03-.05,0,0,0,.02.02.04.03.05.03.05-.02-.02,0-.02,0,0,.02.05.02.04,0,.01,0,.03.01.05,0,.01.02.08,0,.02-.02-.06,0,0,0,.02,0,.02,0,.05,0,.07,0,.02,0,.03,0,.05,0,.07,0-.02,0-.02-.02.03-.02.08-.02.11,0,.04-.02.08-.03.11,0,.02-.01.03-.02.05-.01.04-.02.07,0,.01-.06.16-.15.31-.24.45-.11.17-.22.35-.33.52-.45.72-.9,1.44-1.35,2.15-.9,1.44-1.8,2.87-2.71,4.31-.51.8-1.01,1.61-1.52,2.41-.08.13-.06.33.06.44.13.12.29.13.44.06-.1.04.04,0,.07-.02.05-.01.07,0,0,0,.02,0,.05,0,.07,0,.03,0,.08.01.11,0-.02,0-.04,0-.05,0,.01,0,.03,0,.04,0,.03,0,.06.01.09.02,0,0,.06.03.06.02,0,0-.08-.04-.02-.01.04.02.08.04.12.07.02.01.04.03.06.04.07.04-.06-.05,0,0,.04.03.07.06.1.1.02.02.09.08.1.11,0-.01-.02-.02-.03-.04,0,0,.01.02.02.03.01.02.02.03.03.05.03.04.05.08.07.13.01.02.02.04.03.07.03.07-.03-.07,0,.01.01.04.03.08.04.13,0,.02.01.05.02.07,0,0,0,.02,0,.02,0,.04,0,.03,0-.03,0,0,0,.12,0,.13,0,.07,0,.13-.01.2,0,.1.02-.08,0,.02,0,.02,0,.04-.01.06-.01.06-.02.11-.04.17-.02.06-.03.11-.05.17,0,.02-.01.04-.02.05,0,.02-.01.04-.02.05.02-.04.02-.04,0,0-.1.21-.21.41-.34.61-.27.42-.57.83-.86,1.24-.35.49-.69.98-1.04,1.47-.11.16-.03.41.13.5.19.1.38.04.5-.13l.99-1.4c.32-.45.65-.89.94-1.36.29-.45.52-.95.56-1.49.04-.49-.15-.97-.49-1.33-.18-.19-.42-.34-.67-.41-.29-.08-.57-.04-.84.08l.5.5c.93-1.47,1.85-2.95,2.78-4.42.92-1.47,1.85-2.94,2.77-4.41.43-.69,1.18-1.66.51-2.44-.1-.12-.31-.13-.44-.06-1.56.91-3.13,1.81-4.69,2.72-.78.45-1.55.9-2.33,1.35-.77.44-1.53.9-2.3,1.33-.19.11-.39.21-.6.3-.03.01-.06.02-.08.04.06-.03,0,0-.03,0-.05.02-.09.04-.14.05-.11.04-.22.07-.33.1-.05.01-.1.03-.16.04-.02,0-.04,0-.06.01-.02,0-.04,0-.06,0,.04,0,.05,0,.03,0-.1,0-.21.02-.31.01-.05,0-.11,0-.15-.01.07.02.04,0,.01,0-.03,0-.06-.01-.1-.02-.05-.01-.1-.03-.15-.04-.02,0-.04-.01-.05-.02-.04-.01-.04-.01,0,0-.02,0-.04-.02-.05-.02-.17-.08-.4-.05-.5.13-.08.16-.05.41.13.5h0Z"/>
  <path class="cls-3" d="M297.21,174.11c.51-.25,1.03-.51,1.54-.76-.18-.14-.35-.27-.53-.41-.7,2.08-1.8,4-3.25,5.65-.1.11-.15.3-.06.44.53.76.16,1.62-.36,2.28-.6.77-1.41,1.22-2.16,1.8-.68.53-1.29,1.24-1.28,2.15,0,.75.41,1.5,1.18,1.69-.05-.2-.11-.4-.16-.61-1.67,1.37-3.35,2.73-5.03,4.08-.3.24.03.68.35.61.71-.17,1.05.75,1.04,1.31-.01.92-.93,1.5-1.65,1.9-.9.5-1.8.94-2.6,1.61-.81.68-1.49,1.5-2.02,2.41-.09.16-.05.41.13.5.69.34,1.3.82,1.77,1.44.02-.15.04-.29.06-.44-2.68,2.67-5.72,4.97-9.02,6.83-.38.21-.1.72.28.66.29-.05.5.26.58.49.11.31.05.61-.13.88-.46.7-1.41,1.06-2.12,1.44-1.89,1.01-3.78,2.02-5.67,3.03.12.21.24.42.37.63.6-.38,1.21.36,1.32.91.15.77-.57,1.44-1.14,1.83-.79.53-1.68.92-2.54,1.32-1,.46-2.01.89-3.04,1.29-.33.13-.36.58,0,.7.62.2.66,1,.49,1.52-.25.78-1.08,1.16-1.81,1.38-1.54.48-3.55.71-4.15,2.49-.06.18.07.4.25.45.33.08.46.44.42.76-.05.42-.39.72-.73.92-.91.55-2.04.84-3.07,1.1-.56.14-1.13.25-1.7.34-.58.09-1.17.09-1.75.18-.26.04-.33.22-.49.42-.15.19-.31.37-.49.53-.34.32-.71.6-1.12.83-.93.52-1.99.76-3.06.69-.35-.02-.51.52-.18.67.58.28.38.97.1,1.42-.49.76-1.37.85-2.2.92-.49.04-1,.08-1.48.2-.23.06-.48.13-.69.25-.21.12-.22.32-.32.52-.35.73-1.22,1.2-2.03,1.06-.46-.08-.65.62-.19.7,1.31.23,2.64-.56,3.02-1.85l-.17.22c1.37-.65,3.22-.04,4.35-1.23.71-.75,1.13-2.27-.04-2.83-.06.22-.12.45-.18.67,2.14.14,4.24-.9,5.47-2.65-.1.06-.21.12-.31.18,2.13-.12,4.27-.57,6.24-1.4.71-.3,1.53-.78,1.7-1.61.14-.7-.17-1.52-.92-1.71.08.15.17.3.25.45.3-.89,1.27-1.32,2.11-1.57.94-.28,1.96-.42,2.79-.97.7-.46,1.14-1.15,1.17-2,.02-.77-.35-1.5-1.11-1.75v.7c.97-.38,1.93-.78,2.88-1.21.88-.4,1.77-.8,2.59-1.3.65-.4,1.29-.91,1.6-1.63.3-.69.21-1.43-.25-2.03-.47-.61-1.28-.95-1.99-.51-.4.25-.05.85.37.63l3.48-1.86c1.1-.59,2.21-1.14,3.29-1.76.75-.43,1.6-1.11,1.57-2.07-.03-.84-.67-1.62-1.56-1.48.09.22.19.44.28.66,3.35-1.89,6.44-4.23,9.16-6.94.1-.1.15-.31.06-.44-.55-.72-1.22-1.3-2.03-1.7.04.17.09.33.13.5.48-.82,1.08-1.55,1.79-2.17.71-.62,1.53-1.04,2.36-1.48.74-.4,1.51-.88,1.95-1.63.35-.61.34-1.37.07-2-.31-.71-.97-1.2-1.76-1.01.12.2.23.4.35.61,1.68-1.35,3.36-2.71,5.03-4.08.21-.17.09-.54-.16-.61-.69-.17-.77-1.09-.5-1.63.41-.8,1.28-1.2,1.96-1.72,1.21-.92,2.66-2.7,1.59-4.24-.02.15-.04.29-.06.44,1.53-1.74,2.7-3.77,3.44-5.97.11-.32-.27-.54-.53-.41-.51.25-1.03.51-1.54.76-.42.21-.05.83.37.63h0Z"/>
  <path class="cls-3" d="M239.72,236.66c3.38.83,7.08.14,9.92-1.89l-.5-.13c.28.61.55,1.23.83,1.84.1.23.41.21.57.07,1.17-1.04,2.67-2.28,4.33-2.26.39,0,.77.09,1.12.26.42.2.79.36,1.25.24.47-.12.92-.33,1.37-.49.47-.17.95-.35,1.42-.52,1.09-.4,2.18-.8,3.27-1.19l-.41-.17c.32.56.47,1.17.44,1.81-.01.26.32.47.54.31,1.23-.86,2.64-1.87,4.21-1.83,1.11.03,2.46.73,2.6,1.95.02.14.1.32.27.35.78.12,1.5-.08,2.21-.42.7-.34,1.34-.81,2.08-1.09.6-.23,1.32-.35,1.88.07.4.3.7.84.41,1.31-.16.25.05.52.31.54.81.07,1.6-.16,2.35-.45.71-.28,1.44-.67,2.21-.75.94-.1,2.5.32,2.36,1.53-.03.24.25.4.46.35,1.48-.39,3.03-.36,4.5.08-.08-.15-.17-.3-.25-.45-.06.44-.12.88-.19,1.33-.03.23.09.46.35.46,1.04-.02,2.09-.03,3.13-.05.52,0,1.04-.02,1.56-.02.35,0,.69.01,1.01.16.1.05.25.12.31.22.01.02.02.05.04.06,0,.02,0,.05,0,.07.04-.08.01-.08-.08,0-.24.06-.49.22-.71.32-.24.11-.48.22-.71.32-.95.43-1.9.86-2.85,1.3-.24.11-.23.51,0,.63.37.18-.04.61-.25.72-.47.24-1.07.32-1.58.45-1.21.31-2.42.62-3.63.94-.45.12-.26.81.19.7,1.53-.4,3.07-.79,4.6-1.19.53-.14,1.15-.34,1.4-.87.23-.47.14-1.13-.37-1.38v.63c.87-.39,1.73-.79,2.6-1.18.42-.19.85-.39,1.27-.58.39-.18.81-.27.85-.76.06-.63-.57-1.01-1.09-1.17-.32-.1-.65-.11-.99-.11-.48,0-.97.01-1.45.02-1.08.02-2.16.03-3.24.05.12.15.23.31.35.46.06-.44.12-.88.19-1.33.03-.2-.05-.38-.25-.45-1.59-.47-3.28-.49-4.88-.08.15.12.31.23.46.35.18-1.47-1.44-2.23-2.67-2.27-1.76-.06-3.2,1.37-4.97,1.21.1.18.21.36.31.54.36-.59.23-1.29-.17-1.82-.46-.6-1.15-.9-1.9-.85-.89.06-1.69.5-2.45.94-.74.43-1.59.93-2.48.79.09.12.18.23.27.35-.17-1.53-1.57-2.49-3.02-2.65-1.81-.2-3.47.93-4.87,1.91.18.1.36.21.54.31.03-.76-.16-1.51-.54-2.17-.07-.13-.26-.22-.41-.17-1.96.72-3.91,1.48-5.88,2.15-.23.08-.39.1-.62.01-.2-.08-.39-.19-.59-.27-.38-.15-.79-.21-1.19-.21-.83,0-1.64.3-2.37.69-.89.48-1.68,1.12-2.43,1.79.19.02.38.05.57.07-.28-.61-.55-1.23-.83-1.84-.08-.17-.35-.23-.5-.13-2.69,1.91-6.15,2.6-9.36,1.81-.45-.11-.65.59-.19.7h0Z"/>
  <path class="cls-3" d="M285.2,242.84c.4.69,0,1.45-.51,1.96-.62.63-1.4.9-2.23,1.13-.82.23-1.67.44-2.4.89-.38.24-.7.53-.97.89-.28.37-.47.8-.7,1.2-.23.4-.5.76-.87,1.03-.37.26-.78.45-1.2.61-1.01.38-2.05.71-3.08,1.05-2.14.7-4.29,1.35-6.45,1.97-2.44.69-4.89,1.32-7.36,1.9-.15.03-.27.2-.27.35.02.41-.35.57-.71.65-.53.12-1.04.04-1.57-.06-1.63-.29-3.26-.58-4.89-.87-.26-.05-.53.16-.45.45.24.78-.38,1.51-1.07,1.8-.96.41-2.11.04-3.04-.27-.99-.32-2.03-.67-3.08-.54-.26.03-.52.14-.77.12-.29-.01-.58-.04-.87-.06-.58-.04-1.16-.09-1.73-.13-1.32-.1-2.63-.2-3.95-.3-.46-.03-.46.69,0,.72l3.76.28c.61.05,1.22.09,1.83.14.32.02.64.05.96.07.3.02.56-.1.86-.13,2.2-.26,4.36,1.79,6.53.65.91-.47,1.6-1.52,1.27-2.56l-.45.45c.92.16,1.84.33,2.76.49.91.16,1.81.35,2.72.48.96.13,2.69-.06,2.61-1.39-.09.12-.18.23-.27.35,4.56-1.07,9.08-2.33,13.54-3.78,1.07-.35,2.15-.69,3.21-1.08.91-.33,1.78-.76,2.36-1.56.55-.76.81-1.7,1.62-2.24.74-.49,1.62-.68,2.45-.92.99-.28,1.92-.68,2.6-1.49.63-.75.95-1.73.44-2.63-.23-.41-.86-.04-.63.37h0Z"/>
  <path class="cls-3" d="M236.84,257.23c1.72.85,3.44,1.69,5.16,2.54-.02-.19-.05-.38-.07-.57-.31.38-.74.6-1.23.6-.44,0-.45.56-.1.71,2.31.97,4.46,2.31,6.35,3.95.09-.21.17-.41.26-.62-.8,0-1.5.51-1.77,1.26-.06.16.04.32.17.41,1.97,1.48,4.08,2.77,6.28,3.88.03-.22.06-.44.09-.66-.41.17-.82.34-1.24.51-.26.11-.39.51-.09.66,2.65,1.35,5.17,2.97,7.49,4.84.66.53,1.3,1.08,1.92,1.64.09-.21.17-.41.26-.62-2.32-.3-4.64-.61-6.95-.91-.24-.03-.4.26-.35.46.11.44.22.87.34,1.31l.45-.45c-1.47-.59-2.96-1.17-4.53-1.45-.76-.14-1.54-.21-2.32-.17-.75.04-1.49.17-2.23.32-1.4.29-2.83.71-4.28.57-1.34-.13-2.39-.94-3.48-1.65-.96-.62-2.14-1.24-3.3-.82-.3.11-.59.34-.9.39-.33.06-.64-.29-.88-.47-.65-.52-1.31-1.04-1.96-1.56-2.52-2-5.08-3.96-7.5-6.07-1.16-1.01-2.29-2.07-3.34-3.2-.13-.14-.26-.28-.39-.42-.13-.14-.26-.34-.42-.46-.12-.09-.29-.08-.44-.12-.15-.03-.3-.08-.44-.14-.53-.23-.99-.64-1.27-1.15-.14-.25-.23-.52-.28-.81-.03-.19-.27-.3-.45-.25-.2.06-.29.25-.25.45.25,1.42,1.49,2.51,2.91,2.67-.09-.04-.17-.07-.26-.11,1.85,2.13,3.97,3.99,6.15,5.77,2.31,1.89,4.67,3.72,7,5.58.3.23.59.48.89.7.26.2.57.34.9.32.58-.04,1.01-.49,1.59-.53,1.05-.07,2.01.68,2.83,1.23.48.32.97.64,1.49.89.58.27,1.19.43,1.83.49,1.32.12,2.65-.21,3.93-.49,1.35-.3,2.68-.51,4.06-.35,1.42.17,2.79.64,4.12,1.15.34.13.68.26,1.01.4.27.11.51-.2.45-.45-.11-.44-.22-.87-.34-1.31-.12.15-.23.31-.35.46,2.32.3,4.64.61,6.95.91.31.04.47-.42.26-.62-2.24-2.03-4.7-3.84-7.31-5.36-.74-.43-1.49-.84-2.25-1.23-.03.22-.06.44-.09.66.41-.17.82-.34,1.24-.51.26-.11.4-.51.09-.66-2.2-1.1-4.31-2.4-6.28-3.88l.17.41c.16-.45.61-.73,1.07-.73.3,0,.5-.41.26-.62-1.99-1.73-4.24-3.12-6.67-4.14-.03.24-.06.47-.1.71.67,0,1.32-.29,1.74-.81.14-.17.15-.46-.07-.57-1.72-.85-3.44-1.69-5.16-2.54-.42-.21-.78.42-.37.63h0Z"/>
  <path class="cls-3" d="M211.65,262.37c.23.11.46.21.69.32.04.03.09.04.13.04.05.01.1,0,.14,0,.08-.02.17-.09.22-.17.04-.08.07-.19.04-.28-.03-.08-.08-.18-.17-.22-.23-.11-.46-.21-.69-.32-.04-.03-.09-.04-.13-.04-.05-.01-.1,0-.14,0-.08.02-.17.09-.22.17-.04.08-.07.19-.04.28.03.08.08.18.17.22h0Z"/>
  <path class="cls-3" d="M187.42,106.01c.48,2.09.93,4.19,1.34,6.29.41,2.09.79,4.19,1.13,6.3.19,1.19.38,2.39.55,3.58.03.19.28.31.45.25.21-.07.28-.24.25-.45-.3-2.12-.64-4.24-1.02-6.35-.37-2.1-.78-4.2-1.22-6.28-.25-1.18-.51-2.36-.78-3.54-.04-.18-.26-.31-.45-.25-.19.06-.3.25-.25.45h0Z"/>
  <path class="cls-3" d="M190.91,126.5c.21,1.58.42,3.16.63,4.74.06.44.12.89.18,1.33.01.1.03.18.11.26.06.06.17.11.26.11.17,0,.39-.16.36-.36-.21-1.58-.42-3.16-.63-4.74-.06-.44-.12-.89-.18-1.33-.01-.1-.03-.18-.11-.26-.06-.06-.17-.11-.26-.11-.17,0-.39.16-.36.36h0Z"/>
  <path class="cls-3" d="M192.53,137.68c1.39,6.56,2.74,13.13,4.05,19.71,1.3,6.55,2.57,13.1,3.8,19.66,1.23,6.59,2.43,13.2,3.58,19.8,1.15,6.58,2.26,13.16,3.33,19.75,1.08,6.62,2.11,13.25,3.11,19.88.12.83.25,1.65.37,2.48.07.46.77.26.7-.19-.99-6.64-2.01-13.26-3.08-19.89-1.06-6.59-2.16-13.17-3.3-19.75-1.14-6.61-2.33-13.21-3.55-19.81-1.22-6.56-2.47-13.12-3.77-19.67-1.3-6.58-2.64-13.15-4.02-19.72-.17-.82-.34-1.63-.52-2.45-.1-.46-.79-.26-.7.19h0Z"/>
  <path class="cls-3" d="M211.94,244.63c.12.26.24.53.36.79.04.08.14.14.22.17.09.02.2.01.28-.04.08-.05.15-.12.17-.22,0-.03,0-.06.01-.1,0-.07-.02-.13-.05-.18-.12-.26-.24-.53-.36-.79-.04-.08-.14-.14-.22-.17-.09-.02-.2-.01-.28.04-.08.05-.15.12-.17.22,0,.03,0,.06-.01.1,0,.07.02.13.05.18h0Z"/>
  <path class="cls-3" d="M102.6,200.3c.98.61,1.99,1.15,3.03,1.65,1.06.51,2.13.97,3.22,1.42,1.09.45,2.19.88,3.28,1.32,1.14.46,2.28.91,3.42,1.37,1.15.46,2.29.92,3.44,1.37.14.06.29.11.43.17.18.07.41-.08.45-.25.05-.21-.06-.37-.25-.45-1.14-.46-2.28-.91-3.42-1.37l-3.42-1.37c-1.1-.44-2.2-.88-3.3-1.32-.27-.11-.53-.22-.8-.33-.06-.03-.13-.05-.19-.08-.02,0-.09-.04-.03-.01-.04-.02-.08-.03-.12-.05-.13-.06-.26-.11-.4-.17-.52-.23-1.04-.46-1.56-.7-1.04-.49-2.05-1.01-3.03-1.6-.12-.07-.25-.15-.37-.22-.16-.1-.41-.04-.5.13-.09.18-.04.39.13.5h0Z"/>
  <path class="cls-3" d="M128.69,211.67c3.16,1.79,6.38,3.44,9.66,5,3.26,1.55,6.57,3.01,9.9,4.41,3.35,1.41,6.72,2.76,10.1,4.1,3.38,1.34,6.77,2.66,10.15,4,3.36,1.34,6.72,2.7,10.04,4.13.42.18.84.36,1.26.54.18.08.39.05.5-.13.09-.15.05-.42-.13-.5-3.33-1.45-6.7-2.83-10.07-4.18-3.36-1.35-6.74-2.66-10.11-3.99-3.38-1.33-6.76-2.67-10.12-4.07-3.35-1.39-6.68-2.84-9.97-4.37-3.27-1.53-6.5-3.15-9.66-4.9-.4-.22-.8-.44-1.19-.67-.41-.23-.77.4-.37.63h0Z"/>
  <path class="cls-3" d="M186.43,235.43c1.26.7,2.67,1.06,4.06,1.42.7.18,1.4.38,2.09.61.35.12.69.24,1.04.37.17.07.35.13.52.2.08.03.16.06.24.1.02,0,.04.02.06.02-.06-.03-.01,0,0,0,.05.02.1.04.15.06.76.33,1.51.69,2.23,1.09.17.09.4.05.5-.13.09-.17.05-.4-.13-.5-1.31-.72-2.68-1.33-4.08-1.82-.69-.24-1.39-.45-2.1-.63-.69-.18-1.37-.35-2.05-.56-.38-.12-.76-.24-1.13-.39-.04-.02-.09-.03-.13-.05-.02,0-.05-.02-.07-.03.05.02.02,0-.01,0-.09-.04-.18-.08-.26-.12-.19-.09-.37-.18-.55-.28-.17-.09-.4-.05-.5.13-.09.17-.05.4.13.5h0Z"/>
  <path class="cls-3" d="M226.75,233.85c1.38-1.57,2.78-3.13,4.19-4.67,1.41-1.54,2.84-3.07,4.28-4.59,1.44-1.51,2.9-3.01,4.37-4.5,1.47-1.49,2.96-2.96,4.46-4.41,1.5-1.46,3.01-2.9,4.54-4.33.19-.18.39-.36.58-.54.14-.13.14-.38,0-.51-.15-.14-.36-.14-.51,0-1.53,1.42-3.05,2.86-4.55,4.31s-2.99,2.92-4.47,4.4c-1.48,1.48-2.94,2.98-4.38,4.49-1.45,1.51-2.88,3.04-4.29,4.57s-2.82,3.09-4.2,4.66c-.17.2-.35.39-.52.59-.13.14-.15.37,0,.51.14.13.38.15.51,0h0Z"/>
  <path class="cls-3" d="M253.69,206.82c1.44-1.23,2.87-2.47,4.29-3.74,1.41-1.26,2.81-2.53,4.18-3.83,1.38-1.29,2.74-2.6,4.09-3.92,1.35-1.33,2.69-2.67,4.01-4.03,1.31-1.35,2.61-2.72,3.89-4.1.16-.17.32-.35.48-.52.13-.14.15-.38,0-.51-.14-.13-.38-.15-.51,0-1.28,1.4-2.59,2.78-3.9,4.14-1.31,1.36-2.64,2.7-3.99,4.03-1.34,1.33-2.71,2.64-4.08,3.94-1.38,1.3-2.78,2.58-4.19,3.85-1.4,1.26-2.82,2.5-4.25,3.72-.18.15-.36.31-.54.46-.14.12-.14.39,0,.51.15.14.36.13.51,0h0Z"/>
  <path class="cls-3" d="M278.2,183.36c.87-.73,1.74-1.46,2.6-2.19.15-.12.14-.39,0-.51-.15-.14-.36-.13-.51,0-.87.73-1.74,1.46-2.6,2.19-.15.12-.14.39,0,.51.15.14.36.13.51,0h0Z"/>
  <path class="cls-3" d="M288.49,174.91c.96-.84,1.93-1.69,2.89-2.53s1.93-1.69,2.89-2.53c.54-.47,1.08-.95,1.63-1.42.14-.13.14-.39,0-.51-.15-.14-.36-.13-.51,0-.96.84-1.93,1.69-2.89,2.53-.96.84-1.93,1.69-2.89,2.53-.54.47-1.08.95-1.63,1.42-.14.13-.14.39,0,.51.15.14.36.13.51,0h0Z"/>
  <path class="cls-3" d="M149.03,264.34c4.75-.96,9.49-1.93,14.24-2.89,4.72-.96,9.45-1.92,14.17-2.88,2.66-.54,5.32-1.08,7.97-1.62.19-.04.3-.27.25-.45-.05-.2-.25-.29-.45-.25-4.75.96-9.49,1.93-14.24,2.89-4.72.96-9.45,1.92-14.17,2.88-2.66.54-5.32,1.08-7.97,1.62-.19.04-.3.27-.25.45.05.2.25.29.45.25h0Z"/>
  <path class="cls-3" d="M189.26,256.24c.43,0,.86-.01,1.28-.02.19,0,.37-.16.36-.36,0-.19-.16-.36-.36-.36-.43,0-.86.01-1.28.02-.19,0-.37.16-.36.36,0,.19.16.36.36.36h0Z"/>
  <path class="cls-3" d="M191.69,276.36c1.43-1.59,2.85-3.19,4.28-4.78.71-.79,1.42-1.58,2.12-2.37.64-.72,1.28-1.44,1.96-2.13.37-.37.75-.74,1.15-1.08.1-.08.2-.17.3-.25.05-.04.11-.09.17-.13-.07.05.01-.01.02-.02.02-.02.05-.04.07-.05.22-.16.44-.32.67-.46.16-.1.24-.33.13-.5-.1-.16-.32-.24-.5-.13-1.63,1.05-2.92,2.5-4.21,3.93-1.42,1.59-2.85,3.18-4.27,4.78-.8.9-1.6,1.79-2.41,2.69-.13.14-.15.37,0,.51.14.13.38.15.51,0h0Z"/>
  <path class="cls-3" d="M206.53,261.1c.33-.13.66-.27,1-.4.09-.04.16-.08.22-.17.05-.08.06-.19.04-.28-.03-.09-.08-.17-.17-.22-.08-.04-.19-.07-.28-.04-.33.13-.66.27-1,.4-.09.04-.16.08-.22.17-.05.08-.06.19-.04.28.03.09.08.17.17.22.08.04.19.07.28.04h0Z"/>
  <path class="cls-3" d="M222.86,258.28c1.72,1.07,3.47,2.1,5.23,3.1,1.77.99,3.55,1.95,5.36,2.87,1.02.52,2.04,1.02,3.07,1.51.17.08.4.05.5-.13.09-.16.05-.41-.13-.5-1.83-.87-3.64-1.79-5.43-2.74-1.79-.95-3.56-1.94-5.31-2.97-.98-.58-1.96-1.17-2.93-1.77-.16-.1-.41-.04-.5.13-.09.18-.04.39.13.5h0Z"/>
  <path class="cls-3" d="M241.57,267.94c1.08.66,2.24,1.18,3.45,1.55.34.1.68.19,1.02.27.18.04.4-.06.45-.25.04-.18-.06-.4-.25-.45-.6-.14-1.18-.31-1.76-.52-.15-.05-.29-.11-.44-.17-.07-.03-.13-.05-.2-.08-.06-.03-.01,0,0,0-.01,0-.03-.01-.04-.02-.04-.02-.09-.04-.13-.06-.28-.12-.56-.25-.83-.4-.31-.16-.61-.33-.91-.51-.16-.1-.41-.04-.5.13-.09.18-.04.39.13.5h0Z"/>
  <path class="cls-3" d="M228.35,250.12c1.39-.56,2.8-1.08,4.22-1.57,1.42-.48,2.85-.93,4.3-1.33,1.47-.41,2.95-.78,4.43-1.11,1.52-.34,3.04-.68,4.56-1.02,1.52-.34,3.05-.68,4.57-1.02.19-.04.38-.09.57-.13.19-.04.31-.27.25-.45-.06-.19-.25-.3-.45-.25-1.52.34-3.05.68-4.57,1.02-1.52.34-3.04.68-4.56,1.02-1.49.33-2.98.69-4.46,1.09-1.45.39-2.88.83-4.31,1.3-1.42.47-2.83.99-4.23,1.54-.18.07-.35.14-.53.21-.18.07-.32.24-.25.45.05.17.26.33.45.25h0Z"/>
  <path class="cls-3" d="M255.04,243.04c1.46-.17,2.92-.35,4.38-.53,1.48-.19,2.95-.39,4.42-.6,1.46-.21,2.92-.43,4.38-.66,1.45-.23,2.9-.47,4.35-.73,1.45-.25,2.89-.52,4.34-.79.18-.03.36-.07.54-.1.19-.04.31-.27.25-.45-.06-.2-.25-.29-.45-.25-2.89.56-5.78,1.07-8.68,1.54-2.87.46-5.77.88-8.63,1.25-1.63.21-3.27.41-4.91.6-.19.02-.37.15-.36.36,0,.18.16.39.36.36h0Z"/>
</svg>