<?xml version="1.0" encoding="UTF-8"?>
<svg id="Camada_1" data-name="Camada 1" xmlns="http://www.w3.org/2000/svg" viewBox="0 0 476.3 467.86">
  <defs>
    <style>
      .cls-1 {
        fill: #93a603;
      }
    </style>
  </defs>
  <circle class="cls-1" cx="238.15" cy="237.52" r="39.19"/>
  <g>
    <path class="cls-1" d="M98.43,260.68l-89.2-.07c3.29,32.79,13.67,64.71,30.29,93.09l113.5-1.09-63.38,60.65c26.33,22.25,57.46,38.38,90.78,46.99,22.03-22.33,34.62-51.47,35.48-82.15l.12-4.13c-2.32-62.87-54.18-113.3-117.6-113.3Z"/>
    <path class="cls-1" d="M377.08,260.68c-63.78,0-115.88,51.01-117.64,114.37l.16,3.05c.86,30.75,13.51,59.95,35.63,82.31,33.39-8.53,64.6-24.58,91-46.79l-63.75-61.02,114.28,1.1c16.63-28.39,27.01-60.31,30.3-93.11l-7.49.08h-82.5Z"/>
    <path class="cls-1" d="M152.14,207.35c1.51-1.51,2.91-3.39,4.4-5.38,2.63-3.53,4.49-6.66,5.83-9.75,1.48-3.41,2.58-7.07,3.24-10.9.59-3.32.86-6.03.86-8.54,0-13.06-5.09-25.33-14.32-34.56l-69.87-69.86c-24.62,22.71-44.11,50.63-56.83,81.43l57.57,57.57c19.07,19.07,50.08,19.05,69.13,0Z"/>
    <path class="cls-1" d="M313.3,192.5c1.38,3.13,3.26,6.24,5.75,9.52,1.68,2.25,2.87,3.88,4.32,5.32,19.06,19.06,50.08,19.06,69.14,0l58.12-58.13c-12.8-30.77-32.36-58.63-57.01-81.26l-70.25,70.25c-9.23,9.23-14.32,21.51-14.32,34.56,0,2.71.29,5.63.88,8.91.67,3.62,1.8,7.27,3.37,10.81Z"/>
    <path class="cls-1" d="M189.28,12.65v93.41c0,26.96,21.93,48.9,48.88,48.9s48.88-21.94,48.88-48.9V12.65c-32.1-6.95-65.67-6.95-97.76,0Z"/>
  </g>
</svg>