<?xml version="1.0" encoding="UTF-8"?>
<svg id="Camada_1" data-name="Camada 1" xmlns="http://www.w3.org/2000/svg" viewBox="0 0 476.3 467.86">
  <defs>
    <style>
      .cls-1 {
        fill: #93a603;
      }
    </style>
  </defs>
  <path class="cls-1" d="M238.15,277.08c-21.88,0-39.68-17.8-39.68-39.68s17.8-39.68,39.68-39.68,39.68,17.8,39.68,39.68-17.8,39.68-39.68,39.68ZM238.15,199.9c-20.68,0-37.5,16.82-37.5,37.5s16.82,37.5,37.5,37.5,37.5-16.82,37.5-37.5-16.82-37.5-37.5-37.5Z"/>
  <g>
    <path class="cls-1" d="M181.64,457.92l-.61-.15c-32.79-8.48-63.85-24.55-89.82-46.49l-.92-.79.88-.84,60.4-57.82-109.63,1.06-.32-.55c-16.37-27.94-26.73-59.8-29.97-92.11l-.12-1.2,89.03.07c63.21,0,114.56,49.46,116.88,112.6l-.12,4.14c-.85,30.46-13.37,59.45-35.25,81.62l-.44.44ZM93.56,410.39c25.36,21.19,55.55,36.76,87.41,45.1,21.22-21.71,33.35-49.99,34.18-79.7l.12-4.06c-2.28-61.89-52.66-110.43-114.7-110.43l-86.62-.07c3.32,31.38,13.41,62.27,29.23,89.47l113.89-1.09-63.51,60.79Z"/>
    <path class="cls-1" d="M294.02,458.08l-.44-.44c-21.98-22.22-34.54-51.26-35.4-81.78l-.16-2.98c1.74-62.77,54.2-113.77,116.92-113.77l89.82-.09-.13,1.21c-3.24,32.32-13.6,64.17-29.98,92.12l-.32.55h-.63s-109.77-1.07-109.77-1.07l61.66,59.01-.94.79c-26.01,21.88-57.15,37.89-90.03,46.29l-.61.15ZM462.34,261.23l-6.16.07h-81.24c-61.56,0-113.03,50.04-114.74,111.55l.16,2.91c.83,29.8,13.02,58.13,34.33,79.9,31.95-8.26,62.21-23.78,87.62-44.91l-63.88-61.15,114.65,1.1c15.83-27.19,25.92-58.09,29.24-89.48Z"/>
    <path class="cls-1" d="M119.43,222.86c-12.61,0-25.21-4.8-34.82-14.39l-57.19-57.2.28-.67c12.52-30.33,31.97-58.18,56.22-80.56l.78-.71.74.73,68.8,68.79c9.3,9.31,14.42,21.67,14.42,34.81,0,2.55-.27,5.28-.86,8.6-.67,3.84-1.77,7.54-3.27,10.98-1.36,3.16-3.23,6.28-5.86,9.81-1.41,1.9-2.87,3.86-4.43,5.43-9.6,9.6-22.21,14.39-34.81,14.39ZM29.99,150.75l56.17,56.16c8.86,8.87,20.68,13.75,33.25,13.76h0c12.58,0,24.39-4.89,33.25-13.76,1.45-1.44,2.87-3.35,4.23-5.17,2.54-3.41,4.32-6.39,5.62-9.38,1.43-3.29,2.48-6.81,3.12-10.48.56-3.18.83-5.8.83-8.22,0-12.56-4.89-24.37-13.79-33.25l-68.05-68.05c-23.5,21.87-42.36,48.95-54.64,78.4Z"/>
    <path class="cls-1" d="M356.09,222.86c-12.61,0-25.21-4.8-34.82-14.39-1.37-1.37-2.51-2.91-3.97-4.86l-.38-.5c-2.51-3.3-4.4-6.44-5.79-9.59-1.58-3.58-2.72-7.24-3.4-10.89-.6-3.33-.89-6.27-.89-8.97,0-13.14,5.12-25.5,14.42-34.81l69.92-69.91.78.71c24.3,22.31,43.81,50.11,56.4,80.39l.28.67-.51.52-57.23,57.24c-9.6,9.6-22.21,14.39-34.82,14.39ZM391.26,71.95l-68.43,68.44c-8.9,8.89-13.79,20.7-13.79,33.25,0,2.58.28,5.38.85,8.58.64,3.48,1.73,6.98,3.24,10.4h0c1.32,3,3.13,5.99,5.53,9.16l.38.51c1.46,1.95,2.51,3.36,3.77,4.61,8.86,8.87,20.68,13.75,33.26,13.75s24.4-4.88,33.26-13.75l56.72-56.72c-12.35-29.4-31.28-56.43-54.81-78.24Z"/>
    <path class="cls-1" d="M238.15,157.2c-27.14,0-49.22-22.09-49.22-49.24V15.11l.86-.19c31.63-6.86,65.08-6.86,96.72,0l.86.19v92.86c0,27.15-22.08,49.24-49.22,49.24ZM191.12,16.87v91.1c0,25.95,21.1,47.05,47.03,47.05s47.03-21.11,47.03-47.05V16.87c-30.8-6.54-63.28-6.54-94.07,0Z"/>
  </g>
</svg>