<?xml version="1.0" encoding="UTF-8"?>
<svg id="Camada_1" data-name="Camada 1" xmlns="http://www.w3.org/2000/svg" viewBox="0 0 476.3 467.86">
  <defs>
    <style>
      .cls-1 {
        fill: #d6d6d6;
      }
    </style>
  </defs>
  <circle class="cls-1" cx="238.15" cy="237.49" r="38.78"/>
  <g>
    <path class="cls-1" d="M99.88,260.4l-88.27-.07c3.25,32.45,13.52,64.04,29.97,92.12l112.32-1.08-62.72,60.02c26.06,22.02,56.86,37.98,89.83,46.5,21.8-22.1,34.26-50.94,35.11-81.29l.12-4.08c-2.29-62.21-53.61-112.12-116.37-112.12Z"/>
    <path class="cls-1" d="M375.64,260.4c-63.12,0-114.67,50.48-116.42,113.18l.16,3.02c.85,30.43,13.37,59.33,35.26,81.46,33.04-8.44,63.93-24.33,90.06-46.3l-63.09-60.38,113.09,1.09c16.46-28.09,26.73-59.68,29.98-92.14l-7.41.08h-81.64Z"/>
    <path class="cls-1" d="M153.03,207.62c1.49-1.49,2.88-3.36,4.35-5.33,2.6-3.49,4.44-6.59,5.77-9.64,1.47-3.37,2.55-6.99,3.21-10.79.58-3.29.85-5.96.85-8.45,0-12.92-5.04-25.06-14.18-34.2l-69.14-69.14c-24.36,22.47-43.65,50.1-56.24,80.58l56.97,56.97c18.87,18.87,49.56,18.85,68.41,0Z"/>
    <path class="cls-1" d="M312.52,192.93c1.36,3.1,3.23,6.18,5.69,9.42,1.66,2.22,2.84,3.84,4.27,5.27,18.86,18.86,49.56,18.86,68.42,0l57.52-57.53c-12.67-30.44-32.02-58.01-56.42-80.41l-69.52,69.52c-9.14,9.14-14.18,21.29-14.18,34.2,0,2.68.29,5.57.88,8.82.66,3.59,1.78,7.19,3.34,10.7Z"/>
    <path class="cls-1" d="M189.79,14.96v92.44c0,26.68,21.7,48.39,48.37,48.39s48.37-21.71,48.37-48.39V14.96c-31.77-6.88-64.99-6.88-96.74,0Z"/>
  </g>
</svg>