<?xml version="1.0" encoding="UTF-8"?>
<svg id="Camada_1" data-name="Camada 1" xmlns="http://www.w3.org/2000/svg" viewBox="0 0 399.81 406.59">
  <defs>
    <style>
      .cls-1 {
        fill: #ee3b24;
      }

      .cls-2 {
        fill: #231f20;
      }

      .cls-3 {
        fill: #f7aa1a;
      }

      .cls-4 {
        fill: #ef629c;
      }
    </style>
  </defs>
  <path class="cls-3" d="M241.73,79.8c8.46,6.2,19.57,16.26,29.73,25.16,17.72,15.52,42.27,40.47,45.02,72.7,3.31,38.76-7.54,48.17-23.39,47.47.52-3.31.77-1.86.96-11.36.01-.51-4.28,1.84-4.16.82,1.27-10.21,3.74-19.46,1.97-33.41-3.2-25.19-19.66-40.31-35.86-59.86"/>
  <path class="cls-4" d="M135.43,103.64c21.09,21.61,49.78,20.03,70.18,15.4,19.92-4.52,28.78-4.69,31.06-5.16,1.65-.34,11.17-5.37,12.74-5.76,1.29-.32-1.38,5.52-.08,5.17,4.56-1.2,6.14-2.83,12.29-4.13,2.43,5.81,1.02,24.51-40.36,34.96-42.8,10.81-65.75.33-73.03-3.79-14.71-8.35-7.11-9.55-24.73-10.92"/>
  <path class="cls-4" d="M140.13,367.25c.61,2.42,1.1,6.35,1.32,8.47,3.9,0,7.79,0,11.69,0,.67,0,1.35,0,2.02,0,2.11,0,4.21,0,6.32,0,1.19,0,2.4.08,3.55.08-2.77-1.62-5.67-4.52-9.95-6.13-.32-.12-.56-.4-.89-.48-.38-.09-.78,0-1.17.05-1.17.17-2.37.07-3.55-.03-3.17-.27-5.7-2.1-8.87-2.37.24.15-.17,1.87.07,2.02"/>
  <path class="cls-4" d="M170.06,201.63c-3.05,54.51-10.45,117.7-13.5,172.21-5.85-.08-9.49.1-15.33.02-8.48-45.99-4.3-57.84-8.43-104.42-2.56,7.34-10.66,65.42-13.82,104.3-5.1-.45-10.16.6-15.26.15-3.06-20.98-8.04-131.74-8.04-172.26,22.03.92,51.01-.92,73.04,0"/>
  <path class="cls-4" d="M118.32,368.71c2.86,2.15,5.57,4.49,8.11,7.02-7.51-.29-15.85.29-23.36,0,.12-2.01.08-5.06.21-7.07,2.88.8,6.96,1.07,9.88.46,1.01-.21,2.02-.51,3.05-.45.83.05,1.64.33,2.32.81"/>
  <path class="cls-2" d="M103.18,367.82c4.16.11,8.33.23,12.49.34,1.19.03,2.38.07,3.57.1.34,0,.67-.31.65-.65-.02-.36-.29-.64-.65-.65-4.16-.11-8.33-.23-12.49-.34-1.19-.03-2.38-.07-3.57-.1-.34,0-.67.31-.65.65.02.36.29.64.65.65h0Z"/>
  <path class="cls-2" d="M140.13,368.16c2.25-.11,4.51-.14,6.77-.17,2.54-.04,5.07-.06,7.61-.12,1.17-.03,2.35-.06,3.52-.12.34-.02.67-.29.65-.65-.02-.34-.29-.67-.65-.65-2.25.11-4.51.14-6.77.17-2.54.04-5.07.06-7.61.12-1.17.03-2.35.06-3.52.12-.34.02-.67.29-.65.65.02.34.29.67.65.65h0Z"/>
  <path class="cls-4" d="M98.5,164.55c-6.2,24.07-2.95,71.04-11.99,95.7-.17.47,57.87,6.07,85.66.93-2.95-14.92-2.53-52.24-2.16-68.4"/>
  <path class="cls-2" d="M97.83,164.36c-1.56,6.08-2.33,12.36-2.95,18.6-.73,7.4-1.16,14.83-1.59,22.25-.45,7.71-.9,15.41-1.59,23.1-.64,7.1-1.46,14.2-2.93,21.17-.64,3.06-1.41,6.1-2.4,9.06-.23.7-1.07,2.08.02,2.42.2.06.43.09.64.12,2.8.43,5.64.65,8.46.9,5.08.45,10.18.81,15.27,1.12,6.41.38,12.83.66,19.25.82,6.76.16,13.52.19,20.28-.03,6.12-.2,12.24-.57,18.31-1.43,1.25-.18,2.5-.38,3.75-.61.39-.07.55-.52.49-.86-.71-3.59-1.06-7.25-1.35-10.89-.38-4.71-.59-9.43-.75-14.15-.17-5.1-.25-10.2-.28-15.3-.03-4.89-.02-9.77.03-14.66.04-4,.1-8.01.19-12.01,0-.4.02-.8.03-1.2.02-.9-1.38-.9-1.4,0-.09,3.87-.15,7.74-.2,11.61-.05,4.81-.07,9.63-.05,14.44.02,5.15.09,10.3.24,15.45.14,4.8.34,9.6.69,14.38.28,3.87.63,7.76,1.3,11.59.07.37.13.74.21,1.12.16-.29.32-.57.49-.86-5.62,1.04-11.35,1.5-17.06,1.79-6.62.34-13.25.39-19.88.31-6.54-.08-13.07-.31-19.6-.65-5.49-.28-10.97-.64-16.45-1.08-3.46-.28-6.93-.57-10.38-.99-.24-.03-.48-.06-.73-.09-.05,0-.11-.01-.16-.02.27.04.07,0,0,0-.09-.01-.18-.02-.27-.04-.22-.03-.46-.1-.68-.12-.08,0-.16-.12.09.05-.07-.04.08.05.12.1.15.15.32.49.18.67.06-.07.08-.21.11-.3.24-.68.48-1.37.7-2.05.46-1.44.87-2.9,1.24-4.37,1.69-6.69,2.65-13.55,3.38-20.4.81-7.58,1.3-15.18,1.76-22.79.45-7.48.85-14.97,1.45-22.44.53-6.48,1.17-12.99,2.45-19.38.27-1.33.56-2.66.9-3.97.22-.87-1.12-1.24-1.35-.37h0Z"/>
  <path class="cls-2" d="M137.17,73.58c-1.93-3.92-3.92-5.87-8.08-7.22-2.74-.89-5.71-.29-8.5.44-3.91,1.02-7.91,2.39-10.76,5.25-3.82,3.84-4.84,9.55-6.34,14.76-3.56,12.38-10.89,23.65-20.77,31.92,3.1,13.05,17.7,21.56,30.97,19.59,13.27-1.97,24.22-12.93,28.13-25.76,3.92-12.83,1.46-27.04-4.66-38.97"/>
  <path class="cls-2" d="M228.54,70.57c-2.28-4.47-4.98-10.24-6.69-14.94-1.71-4.7-2.85-9.65-2.76-14.64.43.88.86,1.76,1.28,2.64.7-3.24,1.4-6.48,2.09-9.72,1.1,1.81,2.34,3.53,3.72,5.14.45-1.33,1-2.63,1.64-3.88,1.06.83,2.04,1.74,2.94,2.73,1.22-2.22,2.05-4.64,2.44-7.13,1.78,2.4,3.28,5,4.47,7.72.87-.96,1.6-2.04,2.16-3.2,2.47,10.41,3.8,21.09,3.96,31.77-5,1.5-10.1,2.67-15.25,3.5"/>
  <path class="cls-3" d="M194.69,185.87c3.34,59.61,11.44,128.71,14.78,188.32,6.4-.09,10.38.11,16.79.02,9.28-50.29,4.69-94.2,9.2-145.14,2.8,8.02,11.69,102.49,15.15,145,5.59-.49,11.12.65,16.71.16,3.35-22.95,8.8-144.06,8.8-188.37-24.12,1-55.84-1-79.96,0"/>
  <path class="cls-3" d="M235.27,43.61c2.76,1.45,4.3,4.61,5.46,7.63,1.2,3.13,2.21,6.42,2.11,9.76-.1,3.34-1.49,6.77-4.18,8.47-3.72,2.34-8.94.61-11.74-3-2.81-3.61-3.55-8.56-3.19-13.16.21-2.62.77-5.27,2.18-7.41,1.41-2.14,3.79-3.67,6.28-3.45,1.33.12,2.69.81,3.37,2.04"/>
  <path class="cls-3" d="M242.15,54.8c1.29-1.17,3.5-1.13,4.74.09,1.24,1.22,1.31,3.43.15,4.73-1.16,1.3-3.36,1.48-4.72.39.12-1.55-.08-3.13-.58-4.6"/>
  <path class="cls-3" d="M224.14,58.53c-.92-.4-2.03-.08-2.8.57-1.51,1.28-1.76,3.79-.53,5.33,1.23,1.55,3.74,1.87,5.32.68-.63-1.81-1.27-3.62-1.9-5.43-.07-.2-.12-.47.07-.58.18-.11.29.35.1.25"/>
  <path class="cls-3" d="M239.56,66.89c.42,5.68,1.75,11.28,3.93,16.54-3.62.23-7.23.68-10.8,1.34.27-5.59-.5-11.23-2.27-16.54,2.65,1.08,5.78.9,8.29-.48"/>
  <path class="cls-3" d="M241.73,78.19c1.91,4.2,9.45,12.18,14.72,18.31,7.99,9.29,12.56,21.15,14.62,33.22,2.06,12.07,5.92,46.1,5.05,58.32-8.26.58-20.59.46-28.85,1.04-4.96.35-9.93.7-14.9.69-4.2-.01-8.39-.28-12.57-.55-7.78-.5-17.25-1.25-25.03-1.74-.41-18.18.97-58,9.49-74.06,6.99-13.17,19.07-22.79,28.33-34.48.87,1.89,2.83,3.23,4.91,3.36,2.08.13,3.13-2.33,4.22-4.1"/>
  <path class="cls-2" d="M223.84,48.12c-.37.9-.58,1.86-.62,2.83,1.92-1.9,3.94-3.69,6.05-5.37-.43,1.06-.86,2.13-1.29,3.19,3.16-1.63,6.32-3.26,9.48-4.89-1.07-1.28-2.71-2.05-4.39-2.22-1.68-.16-3.4.25-4.88,1.04-2.26,1.19-4.03,3.23-4.86,5.61"/>
  <path class="cls-2" d="M230.87,69.62c1.36.79,3,1.36,4.57,1.15,1.57-.21,3.05-.96,4.14-2.09-.06.72-.82,2.79-1.26,3.37-1.57,2.05-3.58,2.85-6.14,3.37-.39-1.64-.78-4.19-1.3-5.8"/>
  <path class="cls-2" d="M226.04,57.8c.03.28.09.54.25.78.15.22.33.4.56.55.42.28.99.33,1.47.2.48-.13.89-.45,1.16-.86.11-.18.2-.39.25-.59.06-.29.06-.54.01-.83-.02-.16-.19-.34-.33-.42-.15-.09-.38-.12-.55-.07-.17.05-.34.16-.43.32-.1.18-.1.34-.07.54,0,.01,0,.02,0,.03,0-.06-.02-.12-.03-.19.01.11.01.22,0,.33,0-.06.02-.12.03-.19-.02.12-.05.24-.1.35.02-.06.05-.11.07-.17-.05.1-.1.19-.17.28.04-.05.07-.09.11-.14-.07.09-.15.16-.24.23.05-.04.1-.07.14-.11-.09.06-.18.12-.28.16.06-.02.11-.05.17-.07-.1.04-.21.07-.32.08.06,0,.13-.02.19-.02-.1.01-.19.01-.29,0,.06,0,.13.02.19.02-.1-.01-.19-.04-.28-.07.06.02.11.05.17.07-.08-.03-.16-.08-.23-.13.05.04.1.07.14.11-.07-.05-.13-.11-.19-.18.04.05.07.09.11.14-.05-.07-.1-.14-.14-.22.02.06.05.11.07.17-.03-.08-.06-.16-.07-.25,0,.06.02.12.03.19,0-.01,0-.02,0-.03-.02-.19-.07-.35-.21-.49-.12-.12-.33-.21-.5-.2-.35.02-.75.31-.71.7h0Z"/>
  <path class="cls-2" d="M236.62,55.59c.13.42.43.74.81.96.39.23.89.37,1.34.2.81-.31,1.29-1.11,1.34-1.94.02-.3-.03-.62-.24-.85-.27-.28-.77-.27-1.04,0-.23.22-.29.61-.11.88.19.28.48.38.8.32,0,0,0,0,.01,0,.17-.03.34-.18.43-.32.09-.15.13-.37.07-.54-.13-.38-.48-.56-.88-.49,0,0,0,0-.01,0,.27.11.54.21.8.32,0,0,0,0,0,0,.03.12.06.23.1.35,0,0,0,0,0-.01-.03.12-.06.23-.1.35,0,0,0,0,0-.01-.14.11-.28.21-.43.32,0,0,0,0,.01,0-.18-.02-.37-.05-.55-.07,0,0,.01,0,.02.01-.09-.08-.17-.17-.26-.25,0,0,0,.01.01.02-.02-.06-.05-.11-.07-.17,0,.02,0,.04.01.06,0-.06-.02-.12-.03-.19.02.14.02.27,0,.41,0-.06.02-.12.03-.19-.02.14-.06.27-.11.39.02-.06.05-.11.07-.17-.05.13-.12.24-.21.35.04-.05.07-.09.11-.14-.08.1-.17.19-.27.27.05-.04.1-.07.14-.11-.06.04-.13.08-.2.11.06-.02.11-.05.17-.07-.06.02-.12.04-.19.05.06,0,.13-.02.19-.02-.06,0-.12,0-.18,0,.06,0,.13.02.19.02-.07-.01-.14-.03-.21-.06.06.02.11.05.17.07-.14-.06-.28-.13-.4-.23.05.04.1.07.14.11-.07-.06-.14-.12-.2-.19.04.05.07.09.11.14-.04-.05-.07-.1-.09-.15.02.06.05.11.07.17-.01-.03-.02-.06-.03-.08-.11-.35-.5-.6-.88-.49-.36.11-.61.48-.5.86h0Z"/>
  <path class="cls-2" d="M233.45,57.13c.11.72.26,1.44.45,2.14.09.35.2.69.32,1.03.06.16.11.33.17.49.03.08.06.16.09.24.02.05.04.11.06.16.04.12.04.08.02-.13.06-.1.12-.2.18-.31-.05.05-.05.05,0,0-.04.03-.08.05-.13.07.1-.04-.11.03-.14.03-.05.01-.05,0,0,0-.05,0-.09,0-.14,0-.13,0-.26.02-.39.04-.38.06-.59.52-.5.86.11.39.5.55.88.49-.1.02-.01.01.04.01.06,0,.12,0,.18,0,.15-.01.3-.03.44-.08.27-.09.55-.22.75-.43.49-.53.02-1.25-.17-1.81-.35-1.03-.61-2.09-.77-3.17-.06-.37-.54-.58-.88-.49-.41.11-.55.48-.5.86h0Z"/>
  <path class="cls-2" d="M231.54,65.66c1.29,1.15,3.27,1.35,4.72.36.31-.21.48-.62.26-.95-.2-.3-.65-.47-.97-.25-.14.1-.3.18-.45.26-.08.03-.08.04,0,0-.03.01-.06.02-.09.03-.07.03-.14.05-.22.07-.08.02-.17.04-.25.06-.04,0-.09.02-.13.02.08-.01.08-.01,0,0-.15,0-.3.01-.46,0-.04,0-.08,0-.13-.01.08.01.08.01,0,0-.06-.01-.12-.02-.19-.04-.08-.02-.16-.04-.24-.07-.03,0-.27-.1-.13-.04-.13-.06-.27-.13-.39-.2-.07-.04-.14-.09-.21-.14.12.09-.08-.07-.1-.09-.27-.25-.74-.29-1.01,0-.25.27-.29.72,0,.98h0Z"/>
  <path class="cls-2" d="M228.69,82.96c.5,2.95,2.77,5.54,5.68,6.46,2.89.92,6.36,0,8.36-2.26,1.32-1.49,1.88-3.39,2.38-5.26.1-.35-.12-.77-.5-.86-.37-.08-.77.11-.88.49-.21.77-.42,1.55-.7,2.3-.15.4-.25.65-.44,1.02-.18.35-.38.69-.61,1-.03.04-.05.07-.08.11,0,0-.07.09-.03.03.05-.06-.04.04-.05.06-.02.03-.04.05-.06.08-.12.13-.24.26-.36.38-.12.12-.24.23-.37.33-.06.05-.12.1-.18.15-.02.01-.11.08-.01.01-.04.03-.09.07-.13.1-.27.19-.56.36-.85.52-.15.08-.3.15-.45.22,0,0-.11.05-.04.02.08-.03-.05.02-.07.03-.09.04-.19.07-.28.1-.32.11-.64.2-.97.27-.15.03-.31.06-.46.08.14-.02-.11.01-.14.02-.09,0-.18.02-.27.02-.35.02-.69.02-1.04,0-.08,0-.16-.01-.23-.02-.02,0-.14-.02-.01,0-.03,0-.07,0-.1-.01-.18-.03-.35-.06-.53-.1-.34-.08-.67-.18-.99-.31.11.04-.07-.03-.11-.05-.07-.03-.14-.06-.21-.1-.16-.08-.32-.16-.47-.25-.13-.08-.27-.16-.4-.24-.07-.05-.15-.1-.22-.15-.04-.03-.07-.05-.11-.08.06.04.02.02-.01-.01-.27-.21-.53-.44-.77-.68-.13-.13-.26-.27-.38-.42-.06-.07-.11-.14-.17-.2.07.09,0,0-.01-.02-.03-.04-.07-.09-.1-.13-.22-.3-.42-.62-.59-.95-.05-.09-.09-.18-.13-.27-.02-.03-.11-.25-.06-.13-.07-.17-.14-.35-.2-.52-.12-.36-.21-.74-.28-1.11-.06-.37-.53-.58-.88-.49-.4.11-.56.48-.5.86h0Z"/>
  <path class="cls-3" d="M267.81,367.13c1.67,3.08,3.84,5.91,6.42,8.36-7.77-.22-15.54-.4-23.31-.53-.39-2.11-.65-4.23-.8-6.36-.02-.3-.03-.62.1-.89.27-.53.97-.68,1.59-.76,5.08-.63,10.29-.39,15.28.71.22.05.49.16.48.37,0,.21-.48.07-.29-.05"/>
  <path class="cls-3" d="M226.04,88.79c-17.42,14.68-26.83,25.89-59.84,55.02-15.32,13.52-18.71,15.64-20.69,16.86-1.43.89-11.8,3.78-13.21,4.58-1.16.66,4.79,3.06,3.62,3.7-4.14,2.27-6.4,2.16-11.76,5.45,2.24,5.89,21.09,25.57,53.34-2.38,29.56-25.63,47.96-44.98,50.4-52.98,4.94-16.18-3.78-9.15,8.07-22.27"/>
  <path class="cls-3" d="M210.26,367.42c-1.56,2.96-3.58,5.68-5.99,8.04,7.25-.21,15.3.13,22.56,0,.36-2.02.5-5.79.63-7.84.02-.29-.66.62-.79.36-.25-.51-.91-.66-1.48-.73-4.74-.61-9.6-.38-14.26.68-.21.05-.46.15-.45.36,0,.21.45.07.27-.05"/>
  <path class="cls-4" d="M120.06,73.82c-1.8,2.13-1.98,5.16-1.88,7.94.1,2.88.42,5.83,1.7,8.42,1.27,2.59,3.65,4.79,6.51,5.16,3.95.51,7.72-2.71,8.79-6.55,1.07-3.84-.05-7.99-1.99-11.47-1.1-1.98-2.52-3.87-4.46-5.04-1.94-1.18-4.49-1.53-6.49-.47-1.08.57-1.97,1.6-2.1,2.81"/>
  <path class="cls-4" d="M118.43,85.82c-1.51-.51-3.34.33-3.93,1.81-.59,1.48.16,3.36,1.61,4.02,1.45.66,3.36.01,4.1-1.4-.67-1.26-1.08-2.65-1.2-4.07"/>
  <path class="cls-4" d="M125.03,95c1.73,4.91,1.94,11.78,1.05,16.99,3.12-1.13,8.02-3.77,11.25-4.52-2.28-4.58-4.58-11.6-5.05-16.7-1.82,1.87-4.99,2.17-7.6,1.94"/>
  <path class="cls-4" d="M126.88,101.85c-1.75,3.45-8.42,11.19-13.24,16.23-7.3,7.64-11.48,17.4-13.36,27.33-1.88,9.93-5.41,37.92-4.61,47.96,7.54.48,18.81.38,26.35.86,4.53.29,9.07.57,13.61.56,3.83,0,7.66-.23,11.48-.45,7.11-.41,15.75-1.02,22.86-1.43.37-14.95-.88-47.7-8.67-60.92-6.38-10.84-17.42-18.74-25.88-28.36-.79,1.55-2.58,2.66-4.48,2.76-1.9.1-3.07-3.09-4.07-4.54"/>
  <path class="cls-4" d="M134.67,82.9c1.12-1.13,3.14-1.2,4.33-.15,1.19,1.06,1.36,3.07.37,4.31-.99,1.24-3,1.52-4.29.59.03-1.42-.23-2.85-.75-4.18"/>
  <path class="cls-2" d="M125.72,99.36c3.56-.19,6.59-3.18,7.12-6.55-2.43,2.73-5.38,3.41-8.15,2.12.37,1.57.96,3.42,1.03,4.43"/>
  <path class="cls-2" d="M163.21,240.03c1.52-.22,2.96-.75,4.26-1.56.29-.18.36-.64.16-.91-.23-.29-.6-.35-.91-.16-1.08.68-2.35,1.15-3.61,1.33-.34.05-.64.33-.6.7.04.33.34.65.7.6h0Z"/>
  <path class="cls-4" d="M115.87,117.36c-17.02,16.62-21.36,37.39-15.26,57.48,6.06,19.97,20.51,37.35,37.73,51.97,12.42,10.55,35.08,20.75,46.87,6.95-2.81-.97-7.04-5.53-14.54-9.34-.4-.2,5.01-.64,4.16-.96-8.51-3.27-22.03-13.67-22.77-14.31-17.03-14.69-29.04-31.01-37.55-51.83"/>
  <path class="cls-2" d="M147.47,234.03c3.21,1.99,6.44,3.93,10.01,5.22,1.99.72,4.05,1.27,6.12,1.72,1.95.43,3.96.63,5.96.59,3.93-.07,7.91-1.03,11.27-3.11.84-.52,1.64-1.11,2.39-1.76.37-.32.72-.65,1.05-1,.36-.38.72-.77.91-1.27.23-.6.06-1.24-.36-1.7-.32-.35-.76-.59-1.17-.84-.63-.39-1.27-.78-1.91-1.17-3.12-1.9-6.22-3.82-9.25-5.85-.5-.33-.99-.67-1.49-1.01-.29-.2-.72-.05-.89.24-.19.32-.06.69.24.89,3.15,2.15,6.35,4.19,9.61,6.17.62.38,1.24.75,1.86,1.13.31.19.62.38.93.57.15.1.31.19.46.29.08.05.15.09.23.14.05.03.1.06.14.09.02.01.19.14.11.08.09.07.17.15.24.23-.08-.1.03.07.04.08-.05-.09,0,.03.01.06.02.1.02-.12,0,.04-.02.18.05-.11,0,.06-.01.04-.02.07-.03.11.04-.13-.05.08-.06.11-.03.04-.05.09-.08.13-.02.03-.1.13-.02.03-.06.08-.13.15-.2.23-.18.19-.36.38-.54.56-.33.32-.67.63-1.03.93-.17.14-.35.28-.53.42,0,0-.16.12-.08.06.07-.06-.09.07-.08.06-.1.08-.21.15-.31.22-.77.54-1.59,1.01-2.43,1.43-.42.21-.86.4-1.29.57-.01,0-.12.05-.02,0-.06.02-.12.05-.18.07-.1.04-.2.08-.3.11-.23.08-.47.16-.7.24-.9.29-1.82.52-2.74.69-.47.09-.95.16-1.42.22.1-.01-.04,0-.06,0-.05,0-.11.01-.16.02-.11.01-.22.02-.33.03-.26.02-.52.04-.79.06-.94.05-1.89.05-2.83,0-.48-.03-.96-.07-1.44-.12-.11-.01-.22-.03-.33-.04-.07,0-.13-.02-.2-.03-.21-.03.12.02-.09-.01-.24-.04-.47-.07-.71-.11-2.04-.35-4.06-.9-6.03-1.54-.87-.28-1.72-.6-2.56-.95-.12-.05-.03-.01,0,0-.05-.02-.11-.05-.16-.07-.09-.04-.18-.08-.27-.12-.21-.09-.41-.18-.62-.28-.38-.18-.76-.36-1.13-.55-1.64-.83-3.21-1.77-4.78-2.72-.43-.26-.85-.52-1.28-.79-.3-.19-.72-.06-.89.24-.18.31-.06.7.24.89h0Z"/>
  <path class="cls-2" d="M167.23,228.86c3.45,2.84,7.28,5.2,11.39,6.97,1.18.51,2.38.97,3.59,1.39.33.11.71-.13.8-.46.1-.36-.12-.69-.46-.8-4.08-1.39-7.97-3.37-11.54-5.85-1.01-.7-1.93-1.4-2.86-2.16-.26-.22-.66-.29-.92,0-.22.24-.29.69,0,.92h0Z"/>
  <path class="cls-2" d="M164.41,232.8c3.13,2.3,6.54,4.18,10.13,5.64,1.01.41,2.04.78,3.08,1.12.33.11.71-.13.8-.46.1-.35-.12-.69-.46-.8-3.6-1.17-7.01-2.77-10.23-4.8-.91-.58-1.8-1.18-2.67-1.82-.28-.21-.73-.05-.89.24-.19.33-.05.68.24.89h0Z"/>
  <path class="cls-2" d="M161.61,236.64c2.28,1.49,4.76,2.69,7.3,3.66.74.28,1.49.54,2.25.77.34.1.71-.12.8-.46.09-.35-.12-.7-.46-.8-2.62-.8-5.06-1.87-7.45-3.22-.6-.34-1.2-.7-1.78-1.08-.29-.19-.72-.06-.89.24-.19.32-.06.7.24.89h0Z"/>
  <path class="cls-2" d="M117.37,165.37c2.82,7.04,6.51,13.7,10.92,19.86,4.01,5.61,8.57,10.81,13.56,15.57,4.32,4.12,8.95,7.91,13.81,11.38,3.77,2.69,7.69,5.19,11.73,7.47,2.38,1.34,4.8,2.6,7.28,3.75.16.07.31.15.47.22-.1-.24-.2-.49-.3-.73-.24.76-.93.97-1.66,1-.84.03-1.66-.12-2.5-.12-.84,0-.85,1.3-.01,1.3,1.01,0,2.01.2,3.03.08,1.16-.14,2.04-.78,2.4-1.91.08-.25-.05-.62-.3-.73-2.23-1.02-4.41-2.13-6.55-3.3-3.86-2.11-7.6-4.43-11.22-6.93-4.73-3.27-9.25-6.84-13.49-10.73-4.97-4.55-9.56-9.52-13.62-14.9-4.49-5.94-8.31-12.41-11.29-19.24-.38-.88-.75-1.77-1.11-2.66-.13-.33-.61-.41-.89-.25-.34.19-.39.56-.25.89h0Z"/>
  <path class="cls-2" d="M148.57,233.06c-4.86-3.53-9.71-7.09-14.33-10.92-4.3-3.56-8.38-7.38-12.12-11.52-1.98-2.19-3.87-4.47-5.67-6.82-1.7-2.21-3.35-4.47-4.82-6.84-2.96-4.77-5.44-9.87-7.55-15.08-2.05-5.07-3.86-10.35-4.68-15.78-.08-.53-.14-.99-.2-1.55-.04-.37-.29-.7-.7-.7-.35,0-.74.32-.7.7.54,5.39,2.22,10.66,4.14,15.69,2.07,5.42,4.54,10.73,7.47,15.74,2.92,4.98,6.48,9.61,10.26,13.97,3.69,4.26,7.73,8.21,12.02,11.87,4.56,3.89,9.37,7.49,14.21,11.02.65.48,1.31.95,1.97,1.43.31.22.78.05.95-.25.21-.35.06-.73-.25-.95h0Z"/>
  <path class="cls-2" d="M114.22,119.24c3.97,2.89,8.87,4.31,13.74,4.42,5.04.12,10.01-1.23,14.5-3.46,2.55-1.27,4.94-2.84,7.17-4.6.3-.23.24-.74,0-.99-.29-.29-.69-.23-.99,0-3.79,2.98-8.11,5.36-12.77,6.64-4.53,1.25-9.35,1.39-13.9.14-2.53-.7-4.93-1.82-7.05-3.37-.3-.22-.78-.05-.95.25-.21.35-.06.73.25.95h0Z"/>
  <path class="cls-2" d="M131.45,72.86c-.27,1.28-1.32,2.22-2.35,3.02-3.96,3.06-8.57,5.43-11.7,9.34-.71-2.15-.73-4.47-.74-6.73,0-.93,0-1.87.22-2.77.2-.77.56-1.48.98-2.15,1.47-2.34,3.8-4.26,6.54-4.68,2.73-.42,5.8.97,6.83,3.53"/>
  <path class="cls-2" d="M122.29,85.3c0-.1,0-.19,0-.29,0,.06-.02.12-.02.19.02-.12.05-.23.09-.34-.02.06-.05.11-.07.17.05-.12.12-.23.19-.33-.04.05-.07.09-.11.14.07-.08.14-.16.23-.23-.05.04-.09.07-.14.11.09-.07.18-.12.28-.16-.06.02-.11.05-.17.07.1-.04.2-.07.31-.09-.06,0-.12.02-.19.02.13-.02.26-.02.39,0-.06,0-.12-.02-.19-.02.12.02.23.05.34.09-.06-.02-.11-.05-.17-.07.11.05.21.11.31.18-.05-.04-.09-.07-.14-.11.03.03.07.06.1.09.26.25.73.28.99,0,.25-.27.28-.72,0-.99-.63-.6-1.55-.72-2.33-.36-.7.33-1.17,1.17-1.09,1.94.02.19.07.35.2.49.12.12.32.21.49.2.35-.02.73-.31.7-.7h0Z"/>
  <path class="cls-2" d="M130.65,81.66s0-.09,0-.13c0,.06-.02.12-.02.19.01-.1.04-.19.08-.28-.02.06-.05.11-.07.17.03-.07.06-.14.11-.2.01-.02.02-.04.04-.05-.07.09-.09.12-.06.08.03-.03.05-.06.08-.08.02-.02.05-.04.07-.07.08-.08-.16.11-.01.01.06-.04.13-.08.2-.11-.06.02-.11.05-.17.07.09-.04.18-.06.28-.08-.06,0-.12.02-.19.02.1-.01.19,0,.29,0-.06,0-.12-.02-.19-.02.11.02.21.05.31.09-.06-.02-.11-.05-.17-.07.07.03.14.07.2.11.06.04.09.1-.04-.03.03.03.06.05.08.08.03.03.05.05.08.08.08.09-.09-.14-.03-.04.04.07.08.13.11.2-.02-.06-.05-.11-.07-.17,0,.02.02.04.02.06.06.17.16.32.32.42.15.09.37.12.54.07.34-.11.62-.49.49-.86-.16-.43-.43-.79-.82-1.03-.4-.25-.87-.32-1.33-.25-.87.14-1.51.98-1.53,1.83-.01.37.33.71.7.7.39-.02.69-.31.7-.7h0Z"/>
  <path class="cls-2" d="M126.26,83.38c.23,1.29.89,2.5,1.83,3.41-.06-.23-.12-.45-.18-.68.04-.09.05-.11.02-.06-.01.02-.02.04-.03.06,0,0,.11-.13,0-.02-.1.11.02,0,.02,0,0,0-.12.07-.12.07,0,0,.16-.05.01-.01-.15.04.02,0,.03,0,0,0-.14,0-.14,0,0-.02.18.04,0-.02-.35-.11-.78.13-.86.49-.09.38.12.74.49.86.39.13.81.07,1.17-.11.37-.18.61-.51.75-.88.08-.22-.01-.52-.18-.68-.11-.11-.22-.22-.32-.34-.04-.04-.08-.09-.11-.13-.02-.03-.05-.06-.07-.09.05.06.05.07,0,0-.17-.23-.32-.47-.45-.72-.07-.13-.13-.26-.19-.4.07.15-.01-.03-.02-.05-.03-.07-.05-.15-.08-.22-.09-.28-.16-.56-.22-.85-.06-.36-.52-.6-.86-.49-.39.13-.55.47-.49.86h0Z"/>
  <path class="cls-2" d="M126.9,91.13c1.42.11,2.9-.48,3.85-1.54.24-.27.29-.72,0-.99-.27-.25-.73-.29-.99,0-.1.11-.21.22-.32.32-.05.05-.11.09-.16.14-.08.06.13-.1,0,0-.03.02-.06.04-.09.06-.12.08-.25.16-.38.23-.06.03-.12.06-.19.09-.03.02-.06.03-.1.04-.09.04.16-.06,0,0-.27.1-.55.18-.84.23-.02,0-.03,0-.05,0-.05,0-.03,0,.05,0,0,0-.09,0-.1.01-.07,0-.14.01-.21.01-.16,0-.32,0-.47-.01-.36-.03-.71.34-.7.7.02.4.31.67.7.7h0Z"/>
  <path class="cls-1" d="M221.15,144.12c41.38-10.45,42.79-29.14,40.36-34.96-6.15,1.3-7.72,2.93-12.29,4.13-1.3.34,1.37-5.49.08-5.17-1.57.39-11.09,5.42-12.74,5.76-2.28.47-11.13.65-31.06,5.16-4.58,1.04-9.58,1.92-14.81,2.43-6.59,6.17-14.49,13.41-24.6,22.34-15.32,13.52-18.71,15.64-20.69,16.86-1.43.89-11.8,3.78-13.21,4.58-1.16.66,4.79,3.06,3.62,3.7-4.14,2.27-6.4,2.16-11.76,5.45,2.05,5.41,18.11,22.44,45.68,3.56-.38-9.88-1.36-21.39-3.41-31.03,12.28,2.59,30.28,3.38,54.81-2.81Z"/>
  <path class="cls-2" d="M170.62,194.79c.1-6.92-.03-13.85-.39-20.76-.36-6.91-.94-13.81-1.75-20.69-.46-3.87-.99-7.73-1.58-11.58-.06-.37-.52-.58-.86-.49-.4.11-.55.48-.49.86,1.06,6.8,1.89,13.63,2.49,20.49.6,6.84.98,13.69,1.14,20.55.09,3.87.1,7.75.05,11.62-.01.9,1.38.9,1.4,0h0Z"/>
  <path class="cls-2" d="M315.27,196.91c-.15,1.98-.38,3.96-.7,5.93-.07.44-.15.89-.24,1.33-.02.09-.04.19-.06.28-.01.06-.02.11-.03.17-.04.19.03-.12-.01.06-.05.22-.09.44-.14.66-.18.8-.37,1.6-.6,2.4-.4,1.43-.87,2.84-1.43,4.22-.25.62-.53,1.23-.82,1.83-.04.08-.07.15-.11.23-.01.02-.02.05-.04.07-.07.13.07-.13,0,0-.07.15-.15.29-.23.44-.14.27-.29.54-.45.81-.57.99-1.2,1.94-1.91,2.84-.16.21-.33.41-.5.61-.08.1-.17.2-.25.29-.04.05-.08.09-.12.14-.08.09.1-.11.02-.02-.03.03-.05.06-.08.09-.34.37-.69.72-1.05,1.06-.67.62-1.38,1.2-2.13,1.71-.09.06-.17.12-.26.17-.02.02-.05.03-.07.05,0,0,.14-.09.06-.04-.05.03-.11.07-.16.1-.18.11-.36.22-.54.33-.35.2-.71.39-1.07.57-.68.34-1.38.59-2.09.86.23-.09-.05.02-.12.04-.09.03-.18.06-.26.08-.17.05-.33.1-.5.14-.32.09-.64.16-.97.23-.6.12-1.2.21-1.81.27-.14.01-.28.02-.42.04-.06,0-.19,0,.05,0-.03,0-.07,0-.1,0-.07,0-.14,0-.21.01-.25.01-.5.02-.74.02-.71,0-1.43-.05-2.13-.18-.13-.02.2.04.08.02-.03,0-.05-.01-.08-.02-.04,0-.08-.02-.13-.03-.06-.02-.11-.04-.17-.06.09.02.16.08.23.16-.04-.05.11.18.08.12.08.17.06.18.04.12,0-.04,0,.22,0,.07.02-.24.06-.47.1-.7.07-.41.16-.82.24-1.23.01-.06-.02-.06-.01.07,0-.03.01-.07.02-.1.01-.07.03-.13.04-.2.03-.14.06-.28.09-.42.06-.29.12-.58.18-.88.3-1.45.59-2.9.87-4.35.61-3.23,1.15-6.48,1.35-9.76.04-.72.07-1.44.06-2.16,0-.33-.22-.63-.57-.65-.31-.02-.65.24-.65.57.03,3.26-.47,6.52-1.02,9.73-.27,1.57-.57,3.13-.88,4.69-.02.08-.03.17-.05.25,0,.05-.07.33-.03.15-.04.17-.07.35-.11.52-.06.31-.13.62-.19.93-.12.58-.24,1.16-.36,1.75-.08.39-.16.78-.22,1.16-.03.2-.07.4-.07.6,0,.42.25.66.62.77.61.17,1.27.23,1.91.26,1.1.05,2.2-.01,3.28-.17,1.42-.21,2.81-.6,4.13-1.14,1.6-.65,3.09-1.56,4.43-2.64,1.64-1.32,3.05-2.92,4.22-4.66,1.5-2.23,2.63-4.7,3.49-7.23,1.13-3.34,1.81-6.83,2.22-10.32.12-.99.21-1.99.29-2.98.02-.33-.24-.63-.57-.65-.33-.02-.62.24-.65.57h0Z"/>
  <path class="cls-2" d="M299.08,209.3c-.43,4.23-.9,8.44-2.23,12.47-.37,1.11-.8,2.2-1.32,3.25-.14.29.09.69.38.78.35.1.62-.07.78-.38,1.92-3.88,2.69-8.23,3.22-12.49.15-1.19.27-2.37.39-3.56.03-.33-.25-.63-.57-.65-.34-.02-.62.24-.65.57h0Z"/>
  <path class="cls-2" d="M303.51,210.32c-.58,3.67-1.11,7.29-2.34,10.8-.17.47-.35.94-.54,1.4-.1.24-.21.48-.31.71-.09.2-.23.48-.3.61-.15.28-.15.66.16.85.25.16.69.15.85-.16,1.76-3.44,2.57-7.25,3.21-11.03.18-1.04.34-2.07.5-3.11.05-.33-.26-.63-.57-.65-.35-.02-.6.24-.65.57h0Z"/>
  <path class="cls-2" d="M307.73,211.79c-.31,2.52-.64,5.01-1.6,7.38-.26.66-.51,1.16-.89,1.76-.17.27-.13.67.16.85.27.17.67.13.85-.16,1.42-2.26,2-4.93,2.4-7.54.11-.73.21-1.47.3-2.21.04-.33-.25-.63-.57-.65-.35-.02-.61.24-.65.57h0Z"/>
  <path class="cls-2" d="M291.3,194.86c.16,2.84.1,5.7-.18,8.53-.13,1.34-.31,2.67-.54,3.99-.06.33-.12.66-.18.99-.03.15-.06.29-.09.44-.02.11-.05.23-.08.4-.13.61-.27,1.21-.42,1.81-.32,1.3-.7,2.58-1.13,3.84-.1.3.06.68.38.78,1.7.5,3.58.13,4.94-1.01.25-.21.28-.61.07-.86-.22-.25-.61-.28-.86-.07-.07.06-.14.11-.21.17-.04.03-.08.06-.12.09-.03.02-.07.05-.02.01-.15.1-.31.18-.47.26-.16.08-.33.15-.5.21.09-.03-.04.01-.05.01-.05.01-.1.03-.14.04-.09.02-.17.04-.26.06-.18.04-.35.06-.53.08-.01,0-.12,0-.07,0,.06,0-.09,0-.1,0-.09,0-.18,0-.27,0-.18,0-.36-.02-.54-.05-.04,0-.08-.01-.12-.02-.07-.01.07.02-.04,0-.1-.02-.19-.05-.29-.08.13.26.25.52.38.78.8-2.36,1.41-4.78,1.86-7.22.5-2.71.79-5.45.88-8.2.05-1.63.03-3.27-.06-4.9-.02-.33-.21-.63-.57-.65-.3-.02-.67.24-.65.57h0Z"/>
</svg>