<?xml version="1.0" encoding="UTF-8"?>
<svg id="Camada_1" data-name="Camada 1" xmlns="http://www.w3.org/2000/svg" viewBox="0 0 476.3 467.86">
  <defs>
    <style>
      .cls-1 {
        fill: #eaf205;
      }
    </style>
  </defs>
  <path class="cls-1" d="M238.15,277.05c-21.86,0-39.65-17.79-39.65-39.65s17.79-39.65,39.65-39.65,39.65,17.79,39.65,39.65-17.79,39.65-39.65,39.65ZM238.15,199.93c-20.66,0-37.47,16.81-37.47,37.47s16.81,37.47,37.47,37.47,37.47-16.81,37.47-37.47-16.81-37.47-37.47-37.47Z"/>
  <g>
    <path class="cls-1" d="M181.69,457.74l-.61-.15c-32.77-8.47-63.79-24.53-89.74-46.45l-.92-.78.88-.84,60.35-57.77-109.54,1.06-.32-.55c-16.35-27.92-26.71-59.75-29.94-92.03l-.12-1.2,88.96.07c63.16,0,114.47,49.42,116.79,112.51l-.12,4.14c-.85,30.44-13.36,59.4-35.22,81.55l-.44.44ZM93.68,410.25c25.34,21.17,55.5,36.73,87.34,45.06,21.2-21.69,33.32-49.95,34.15-79.63l.12-4.06c-2.28-61.84-52.62-110.34-114.6-110.34l-86.54-.07c3.32,31.35,13.4,62.22,29.21,89.39l113.79-1.09-63.46,60.74Z"/>
    <path class="cls-1" d="M293.98,457.9l-.44-.44c-21.96-22.2-34.52-51.22-35.37-81.72l-.16-2.98c1.74-62.72,54.15-113.67,116.83-113.67l89.74-.09-.13,1.21c-3.23,32.29-13.59,64.12-29.95,92.05l-.32.55h-.63s-109.68-1.07-109.68-1.07l61.61,58.96-.94.78c-25.99,21.86-57.1,37.86-89.96,46.25l-.61.15ZM462.15,261.21l-6.15.07h-81.17c-61.51,0-112.94,50-114.64,111.46l.16,2.91c.83,29.77,13.01,58.09,34.3,79.83,31.92-8.26,62.15-23.76,87.55-44.87l-63.83-61.1,114.56,1.1c15.82-27.17,25.9-58.04,29.22-89.4Z"/>
    <path class="cls-1" d="M119.52,222.86c-13.15,0-25.5-5.1-34.78-14.37l-57.15-57.16.28-.67c12.51-30.3,31.94-58.14,56.17-80.5l.78-.71.74.73,68.74,68.73c9.29,9.3,14.41,21.65,14.41,34.78,0,2.55-.27,5.28-.86,8.59-.67,3.84-1.77,7.53-3.27,10.97-1.36,3.16-3.22,6.27-5.85,9.8-1.41,1.9-2.87,3.86-4.43,5.43-9.27,9.26-21.63,14.37-34.78,14.37h0ZM30.16,150.82l56.12,56.12c8.85,8.86,20.66,13.74,33.23,13.74h0c12.57,0,24.37-4.88,33.23-13.74,1.45-1.44,2.87-3.34,4.22-5.17,2.53-3.4,4.32-6.38,5.61-9.38,1.42-3.28,2.47-6.81,3.11-10.48.56-3.18.83-5.79.83-8.22,0-12.55-4.89-24.35-13.78-33.23l-67.99-67.99c-23.48,21.86-42.33,48.91-54.6,78.34Z"/>
    <path class="cls-1" d="M355.99,222.87c-12.6,0-25.19-4.79-34.79-14.38-1.36-1.37-2.51-2.91-3.97-4.85l-.38-.5c-2.51-3.29-4.39-6.43-5.78-9.58-1.58-3.57-2.72-7.23-3.4-10.89-.6-3.33-.89-6.26-.89-8.97,0-13.13,5.12-25.48,14.41-34.78l69.86-69.85.78.71c24.28,22.29,43.77,50.07,56.35,80.33l.28.67-57.69,57.71c-9.6,9.59-22.19,14.38-34.79,14.38ZM391.13,72.09l-68.37,68.38c-8.89,8.88-13.78,20.68-13.78,33.23,0,2.58.28,5.37.85,8.57.64,3.48,1.73,6.98,3.24,10.39h0c1.32,2.99,3.13,5.99,5.53,9.15l.38.51c1.46,1.95,2.51,3.35,3.77,4.61,8.85,8.86,20.66,13.74,33.24,13.74s24.38-4.88,33.24-13.74l56.67-56.67c-12.34-29.38-31.26-56.38-54.77-78.18Z"/>
    <path class="cls-1" d="M238.15,157.27c-27.12,0-49.18-22.07-49.18-49.2V15.29l.86-.19c31.61-6.87,65.03-6.85,96.64,0l.86.19v92.78c0,27.13-22.06,49.2-49.18,49.2ZM191.16,17.05v91.02c0,25.92,21.08,47.01,47,47.01s47-21.09,47-47.01V17.05c-30.78-6.53-63.23-6.53-93.99,0Z"/>
  </g>
</svg>