<?xml version="1.0" encoding="UTF-8"?>
<svg id="Camada_1" xmlns="http://www.w3.org/2000/svg" version="1.1" viewBox="0 0 894.9 467.9">
  <!-- Generator: Adobe Illustrator 30.3.0, SVG Export Plug-In . SVG Version: 2.1.3 Build 182)  -->
  <defs>
    <style>
      .st0 {
        fill: #3a3a3a;
      }
    </style>
  </defs>
  <g>
    <circle class="st0" cx="127.7" cy="219.4" r="12.1"/>
    <g>
      <path class="st0" d="M84.5,226.6h-27.6c1,10.1,4.2,20,9.4,28.8l35.1-.3-19.6,18.7c8.1,6.9,17.8,11.9,28.1,14.5,6.8-6.9,10.7-15.9,11-25.4v-1.3c-.7-19.4-16.7-35-36.3-35h0Z"/>
      <path class="st0" d="M170.6,226.6c-19.7,0-35.8,15.8-36.4,35.3v.9c.3,9.5,4.2,18.5,11.1,25.4,10.3-2.6,20-7.6,28.1-14.5l-19.7-18.9,35.3.3c5.1-8.8,8.4-18.6,9.4-28.8h-2.3s-25.5,0-25.5,0h0Z"/>
      <path class="st0" d="M101.1,210.1c.5-.5.9-1.1,1.4-1.7.8-1.1,1.4-2.1,1.8-3,.5-1.1.8-2.2,1-3.4.2-1,.3-1.9.3-2.6,0-4-1.6-7.8-4.4-10.7l-21.6-21.6c-7.6,7-13.6,15.6-17.6,25.2l17.8,17.8c5.9,5.9,15.5,5.9,21.4,0h0Z"/>
      <path class="st0" d="M150.9,205.5c.4,1,1,1.9,1.8,2.9.5.7.9,1.2,1.3,1.6,5.9,5.9,15.5,5.9,21.4,0l18-18c-4-9.5-10-18.1-17.6-25.1l-21.7,21.7c-2.9,2.9-4.4,6.6-4.4,10.7s0,1.7.3,2.8c.2,1.1.6,2.2,1,3.3h0Z"/>
      <path class="st0" d="M112.6,149.9v28.9c0,8.3,6.8,15.1,15.1,15.1s15.1-6.8,15.1-15.1v-28.9c-9.9-2.1-20.3-2.1-30.2,0h0Z"/>
    </g>
  </g>
  <g>
    <path class="st0" d="M245.6,179.9h35.6v70.8c0,6,1.3,11.5,3.9,16.3,2.6,4.8,6.3,8.7,11,11.5,4.7,2.8,10.4,4.2,16.9,4.2h8.6v-15.7h-8.5c-4.3,0-7.8-1.4-10.4-4-2.6-2.7-3.9-6.1-3.9-10.3v-72.8h35.6v-15.7h-88.8v15.7h0Z"/>
    <path class="st0" d="M408,200.6h0c-5.9-3.7-13.1-5.6-21.5-5.6s-15.4,1.9-21.7,5.6c-6.3,3.7-11.2,9-14.7,15.7-3.4,6.6-5.2,14.6-5.2,23.6s1.8,16.8,5.3,23.5c3.5,6.7,8.4,12,14.7,15.8,6.2,3.7,13.4,5.6,21.3,5.6s12.6-1.2,17.6-3.6c5-2.4,9.3-5.6,12.7-9.6,3.4-4,5.9-8.7,7.3-13.9l.3-1h-15.4l-.2.5c-1.7,4.4-4.5,7.9-8.2,10.4s-8.5,3.8-14.2,3.8-8.8-1.1-12.8-3.4c-3.9-2.3-7.1-5.7-9.6-10.2-2-3.8-3.2-8.4-3.5-13.9h65.7v-.7c.2-1.6.2-3,.2-4.2v-3.5c0-7.2-1.6-13.9-4.7-20-3.1-6.1-7.7-11-13.6-14.8h0ZM373.3,211.5c4-2.1,8.3-3.2,12.9-3.2,6.9,0,12.7,2.1,17.3,6.3,4.4,4,6.9,9.7,7.3,16.8h-50.4c.5-4.1,1.6-7.7,3.3-10.6,2.4-4,5.6-7.1,9.6-9.2h0Z"/>
    <path class="st0" d="M475.7,197.2c-4.3,1.5-8,3.6-11,6.4-2.4,2.2-4.5,4.7-6.2,7.6l-.9-14.1h-14.2v85.8h15.6v-44.2c0-5.2.7-9.7,2-13.2,1.3-3.5,3.2-6.3,5.6-8.3,2.4-2,5.2-3.5,8.3-4.4,3.1-.9,6.5-1.4,10-1.4h5.9v-16.2h-.8c-5.4,0-10.3.7-14.5,2.2h0Z"/>
    <path class="st0" d="M572.2,200.9c-6.2-4-13.5-6-21.7-6s-9.8.8-13.8,2.3c-4,1.5-7.4,3.5-10.3,6-2.2,1.9-4.2,4-5.8,6.1l-1.1-12.4h-14.2v122.6h15.6v-48.8c2.7,4,6.4,7.3,10.9,9.7,5.3,2.8,11.5,4.3,18.4,4.3s15.6-2,21.8-5.8c6.2-3.8,11.1-9.2,14.6-15.9,3.4-6.7,5.2-14.4,5.2-23s-1.8-16.3-5.2-23c-3.5-6.7-8.3-12.1-14.5-16.1h0ZM576.1,239.9c0,6.3-1.2,11.9-3.5,16.5-2.3,4.6-5.6,8.2-9.8,10.8-4.2,2.6-9,3.9-14.2,3.9s-10.2-1.3-14.3-3.9c-4.1-2.6-7.3-6.2-9.6-10.8-2.3-4.6-3.4-10.2-3.4-16.5s1.2-11.7,3.4-16.4c2.3-4.6,5.5-8.3,9.6-10.9,4.1-2.6,8.9-3.9,14.3-3.9s10.1,1.3,14.2,3.9c4.2,2.6,7.4,6.3,9.8,10.9,2.3,4.7,3.5,10.2,3.5,16.4h0Z"/>
    <path class="st0" d="M665.1,199.3c-5.3-2.9-12-4.4-19.8-4.4s-11.4,1.1-16.7,3.3c-5.3,2.2-9.8,5.4-13.2,9.6-3.5,4.2-5.6,9.4-6.3,15.5v.8c0,0,15.8,0,15.8,0v-.6c1-5,3.3-8.8,7-11.4,3.8-2.6,8.3-3.9,13.5-3.9s8.1.9,11.1,2.6c2.9,1.7,5.2,4.3,6.7,7.6,1.5,3.2,2.3,7.3,2.3,12.1h-21.5c-7.4,0-14,1.1-19.4,3.1-5.5,2.1-9.8,5.2-12.9,9.3-3,4.1-4.6,9.1-4.6,14.9s1.2,9.3,3.4,13.3c2.3,4.1,5.8,7.4,10.5,9.8,4.7,2.4,10.5,3.7,17.4,3.7s7.3-.5,10.4-1.4,5.8-2.1,8.2-3.7,4.4-3.4,6.2-5.5c1.2-1.4,2.2-2.8,3.1-4.4l.7,12.9h14v-52.9c0-7-1.3-13.2-3.9-18.3-2.6-5.2-6.6-9.3-11.9-12.2h0ZM665.4,243c0,3.6-.6,7.1-1.7,10.4-1.1,3.4-2.8,6.5-5,9.2-2.2,2.8-4.8,4.9-7.9,6.5-3,1.5-6.5,2.3-10.3,2.3s-6.9-.6-9.5-1.8c-2.6-1.2-4.6-2.8-5.9-4.9-1.3-2.1-2-4.6-2-7.5s.7-5.2,2.1-7.4c1.3-2.1,3.7-3.8,6.8-5.1,3.2-1.2,7.6-1.9,12.9-1.9h20.3Z"/>
    <path class="st0" d="M721.5,185c0-4,.8-6.8,2.5-8.3,1.7-1.5,4.5-2.3,8.4-2.3h8.1v-13.6h-10.3c-5.2,0-9.7.8-13.3,2.5-3.7,1.7-6.5,4.3-8.3,7.9-1.8,3.5-2.8,8-2.8,13.5v12.3h-12.9v13.4h12.9v72.4h15.6v-72.4h21.2v-13.4h-21.2v-12h0Z"/>
    <polygon class="st0" points="821.8 197 793.3 260.2 766.6 197.4 766.4 197 749.5 197 783.3 273.4 787.5 273.4 766.9 319.6 783.3 319.6 837.5 198 838 197 821.8 197"/>
  </g>
</svg>