<?xml version="1.0" encoding="UTF-8"?>
<svg id="Camada_1" data-name="Camada 1" xmlns="http://www.w3.org/2000/svg" viewBox="0 0 476.3 467.86">
  <defs>
    <style>
      .cls-1 {
        fill: #3a3a3a;
      }
    </style>
  </defs>
  <path class="cls-1" d="M238.15,277.09c-21.88,0-39.69-17.8-39.69-39.69s17.8-39.69,39.69-39.69,39.68,17.8,39.68,39.69-17.8,39.69-39.68,39.69ZM238.15,199.9c-20.68,0-37.5,16.82-37.5,37.5s16.82,37.5,37.5,37.5,37.49-16.82,37.49-37.5-16.82-37.5-37.49-37.5Z"/>
  <g>
    <path class="cls-1" d="M181.63,457.95l-.61-.15c-32.8-8.48-63.85-24.56-89.83-46.49l-.92-.79.88-.84,60.41-57.82-109.65,1.06-.32-.55c-16.37-27.95-26.73-59.81-29.97-92.12l-.12-1.2,89.04.07c63.22,0,114.57,49.47,116.9,112.62l-.12,4.14c-.85,30.47-13.37,59.46-35.26,81.63l-.44.44ZM93.55,410.41c25.36,21.19,55.55,36.77,87.42,45.1,21.22-21.71,33.35-49.99,34.18-79.71l.12-4.06c-2.28-61.9-52.67-110.44-114.71-110.44l-86.63-.07c3.32,31.38,13.41,62.28,29.24,89.48l113.9-1.09-63.52,60.8Z"/>
    <path class="cls-1" d="M294.03,458.11l-.44-.44c-21.98-22.22-34.55-51.27-35.4-81.79l-.16-2.98c1.74-62.78,54.2-113.78,116.94-113.78l89.83-.09-.13,1.21c-3.24,32.32-13.6,64.18-29.98,92.13l-.32.55h-.63s-109.78-1.07-109.78-1.07l61.67,59.02-.94.79c-26.02,21.88-57.16,37.9-90.04,46.3l-.61.15ZM462.36,261.23l-6.16.07h-81.25c-61.56,0-113.04,50.05-114.75,111.57l.16,2.91c.83,29.8,13.02,58.14,34.33,79.91,31.95-8.27,62.21-23.78,87.63-44.91l-63.89-61.15,114.67,1.1c15.83-27.2,25.92-58.1,29.25-89.49Z"/>
    <path class="cls-1" d="M119.41,222.86c-12.61,0-25.22-4.8-34.82-14.4l-57.2-57.21.28-.67c12.53-30.33,31.97-58.19,56.23-80.57l.78-.71.74.73,68.81,68.8c9.3,9.31,14.42,21.67,14.42,34.81,0,2.55-.27,5.29-.86,8.6-.67,3.84-1.77,7.54-3.27,10.98-1.36,3.16-3.23,6.28-5.86,9.81-1.41,1.9-2.87,3.86-4.43,5.43-9.61,9.6-22.21,14.4-34.81,14.4ZM29.97,150.74l56.18,56.17c8.86,8.87,20.68,13.76,33.26,13.76h0c12.59,0,24.4-4.89,33.26-13.76,1.45-1.44,2.87-3.35,4.23-5.17,2.54-3.41,4.32-6.39,5.62-9.38,1.43-3.29,2.48-6.81,3.12-10.49.56-3.18.83-5.8.83-8.22,0-12.56-4.89-24.37-13.79-33.26l-68.05-68.05c-23.5,21.88-42.37,48.95-54.65,78.41Z"/>
    <path class="cls-1" d="M356.11,222.86c-12.61,0-25.22-4.8-34.82-14.4-1.37-1.37-2.51-2.91-3.97-4.86l-.38-.5c-2.51-3.3-4.4-6.44-5.79-9.59-1.58-3.58-2.72-7.24-3.4-10.9-.6-3.33-.89-6.27-.89-8.97,0-13.14,5.12-25.51,14.42-34.81l69.92-69.92.78.71c24.3,22.31,43.81,50.11,56.41,80.4l.28.67-.51.52-57.24,57.24c-9.61,9.6-22.21,14.4-34.82,14.4ZM391.28,71.94l-68.44,68.45c-8.9,8.89-13.79,20.7-13.79,33.26,0,2.58.28,5.38.85,8.58.64,3.48,1.73,6.98,3.24,10.4h0c1.32,3,3.13,5.99,5.53,9.16l.38.51c1.46,1.95,2.51,3.36,3.77,4.61,8.86,8.87,20.68,13.76,33.27,13.76s24.4-4.88,33.27-13.76l56.72-56.72c-12.36-29.41-31.29-56.43-54.82-78.25Z"/>
    <path class="cls-1" d="M238.15,157.2c-27.14,0-49.23-22.09-49.23-49.24V15.08l.86-.19c31.63-6.87,65.08-6.87,96.73,0l.86.19v92.87c0,27.15-22.08,49.24-49.23,49.24ZM191.11,16.84v91.11c0,25.95,21.1,47.06,47.04,47.06s47.04-21.11,47.04-47.06V16.84c-30.81-6.54-63.29-6.54-94.08,0Z"/>
  </g>
</svg>